{
.appVersion = "1172";
DisplayStrings = (
archetype,
"@Ga/g.smcp/commaaccent/commaaccentcomb"
);
classes = (
{
automatic = 1;
code = "A B C D E F G H I J K L M N O P Q R S T U V W X Y Z Agrave Aacute Acircumflex Atilde Amacron Abreve Adieresis Aring Aogonek AE Cacute Ccircumflex Cdotaccent Ccaron Ccedilla Dcaron Dcroat Egrave Eacute Ecircumflex Emacron Ebreve Edotaccent Edieresis Ecaron Eogonek Gcircumflex Gbreve Gdotaccent Gcommaaccent Hcircumflex Hbar Igrave Iacute Icircumflex Itilde Imacron Ibreve Idotaccent Idieresis Iogonek IJ Jcircumflex Kcommaaccent Lacute Lcommaaccent Lcaron Ldot Lslash Nacute Ntilde Ncaron Eng Ncommaaccent Ograve Oacute Ocircumflex Otilde Omacron Obreve Odieresis Ohungarumlaut Oslash OE Racute Rcaron Rcommaaccent Sacute Scircumflex Scaron Scommaaccent Scedilla Germandbls Tcaron Tcommaaccent Tcedilla Tbar Ugrave Uacute Ucircumflex Utilde Umacron Ubreve Udieresis Uring Uhungarumlaut Uogonek Wgrave Wacute Wcircumflex Wdieresis Ygrave Yacute Ycircumflex Ydieresis Zacute Zdotaccent Zcaron Eth Thorn Germandbls.c2sc Q.ss02";
name = Uppercase;
}
);
copyright = "Copyright (c) 2011 by Anna Giedrys. All rights reserved. Reserved Font Name: Signika.";
customParameters = (
{
name = trademark;
value = "Signika Light is a trademark of Anna Giedrys.";
},
{
name = openTypeOS2Type;
value = (
2
);
},
{
name = glyphOrder;
value = (
.notdef,
NULL,
CR,
space,
nbspace,
A,
B,
C,
D,
E,
F,
G,
H,
I,
J,
K,
L,
M,
N,
O,
P,
Q,
R,
S,
T,
U,
V,
W,
X,
Y,
Z,
a,
b,
c,
d,
e,
f,
g,
h,
i,
j,
k,
l,
m,
n,
o,
p,
q,
r,
s,
t,
u,
v,
w,
x,
y,
z,
a.smcp,
b.smcp,
c.smcp,
d.smcp,
e.smcp,
f.smcp,
g.smcp,
h.smcp,
i.smcp,
j.smcp,
k.smcp,
l.smcp,
m.smcp,
n.smcp,
o.smcp,
p.smcp,
q.smcp,
r.smcp,
s.smcp,
t.smcp,
u.smcp,
v.smcp,
w.smcp,
x.smcp,
y.smcp,
z.smcp,
quotesingle,
quotedbl,
numbersign,
ampersand,
asterisk,
comma,
hyphen,
hyphen.case,
softhyphen,
period,
colon,
semicolon,
question,
exclam,
questiondown,
exclamdown,
at,
parenleft,
parenright,
bracketleft,
bracketright,
braceleft,

glyphs = (
{
glyphname = A;
lastChange = "2018-10-19 19:05:17 +0000";
layers = (
{
anchors = (
{
name = bottom_U;
position = "{324, -20}";
},
{
name = top_U;
position = "{324, 732}";
}
);
layerId = UUID1;
paths = (
{
closed = 1;
nodes = (
"7 13 LINE",
"13 4 LINE",
"32 -3 OFFCURVE",
"69 -7 OFFCURVE",
"94 -7 CURVE SMOOTH",
"120 -7 OFFCURVE",
"144 -6 OFFCURVE",
"165 -1 CURVE",
"262 334 LINE SMOOTH",
"278 391 OFFCURVE",
"302 474 OFFCURVE",
"312 531 CURVE",
"318 531 LINE",
"335 463 OFFCURVE",
"358 378 OFFCURVE",
"373 322 CURVE SMOOTH",
"439 82 LINE SMOOTH",
"459 10 OFFCURVE",
"486 -9 OFFCURVE",
"539 -9 CURVE SMOOTH",
"570 -9 OFFCURVE",
"612 -2 OFFCURVE",
"635 11 CURVE",
"421 682 LINE",
"394 687 OFFCURVE",
"351 689 OFFCURVE",
"324 689 CURVE SMOOTH",
"296 689 OFFCURVE",
"254 687 OFFCURVE",
"227 683 CURVE"
);
},
{
closed = 1;
nodes = (
"386 140 LINE SMOOTH",
"401 140 OFFCURVE",
"420 141 OFFCURVE",
"435 141 CURVE",
"524 141 LINE",
"482 271 LINE",
"401 271 LINE",
"386 271 OFFCURVE",
"367 272 OFFCURVE",
"352 272 CURVE SMOOTH",
"283 272 LINE SMOOTH",
"268 272 OFFCURVE",
"249 271 OFFCURVE",
"234 271 CURVE",
"156 271 LINE",
"105 141 LINE",
"194 141 LINE",
"209 141 OFFCURVE",
"228 140 OFFCURVE",
"243 140 CURVE SMOOTH"
);
}
);
width = 642;
},
{
anchors = (
{
name = bottom_U;
position = "{298.35, -20}";
},
{
name = top_U;
position = "{298.35, 732}";
}
);
layerId = "59A137EB-1A44-4616-9625-4B79FA594CBD";
paths = (
{
closed = 1;
nodes = (
"26 4.45 LINE",
"28.2 1.15 LINE",
"39.6 -2.05 OFFCURVE",
"50 -4.15 OFFCURVE",
"65.5 -4.15 CURVE SMOOTH",
"77.25 -4.15 OFFCURVE",
"89.85 -3.15 OFFCURVE",
"99.45 -1 CURVE",
"257.25 481.25 LINE SMOOTH",
"265.65 507.85 OFFCURVE",
"281.1 561.4 OFFCURVE",
"291.1 600.35 CURVE",
"296.15 600.35 LINE",
"308.4 555.15 OFFCURVE",
"327.6 492 OFFCURVE",
"347.35 433.15 CURVE SMOOTH",
"478.9 33.55 LINE SMOOTH",
"489.4 2.4 OFFCURVE",
"500.25 -6.15 OFFCURVE",
"524.75 -6.15 CURVE SMOOTH",
"543.4 -6.15 OFFCURVE",
"558.8 -2.95 OFFCURVE",
"570.4 4.35 CURVE",
"341.2 682.95 LINE",
"332.25 685.1 OFFCURVE",
"311.1 686.15 OFFCURVE",
"299.3 686.15 CURVE SMOOTH",
"286.5 686.15 OFFCURVE",
"266.35 685.1 OFFCURVE",
"254.55 683 CURVE"
);
},
{
closed = 1;
nodes = (
"361.3 177.05 LINE SMOOTH",
"367.75 177.05 OFFCURVE",
"430.45 178.05 OFFCURVE",
"437.85 178.05 CURVE",
"467.95 178.05 LINE",
"445.9 243.45 LINE",
"419.05 243.45 LINE",
"411.65 243.45 OFFCURVE",
"358.45 244.45 OFFCURVE",
"352 244.45 CURVE SMOOTH",
"237.4 244.45 LINE SMOOTH",
"230.95 244.45 OFFCURVE",
"179.65 243.45 OFFCURVE",
"172.25 243.45 CURVE",
"145.55 243.45 LINE",
"121.15 178.05 LINE",
"151.25 178.05 LINE",
"158.65 178.05 OFFCURVE",
"220.4 177.05 OFFCURVE",
"226.85 177.05 CURVE SMOOTH"
);
}
);
width = 596.4;
},
{
anchors = (
{
name = bottom_U;
position = "{288.847, -20}";
},
{
name = top_U;
position = "{288.847, 732}";
}
);
layerId = "9ED2045D-B62B-46E9-A722-9499BEB4CDB9";
paths = (
{
closed = 1;
nodes = (
"33.039 1.282 LINE",
"33.831 0.094 LINE",
"42.416 -1.698 OFFCURVE",
"42.961 -3.094 OFFCURVE",
"54.942 -3.094 CURVE SMOOTH",
"61.413 -3.094 OFFCURVE",
"69.789 -2.094 OFFCURVE",
"75.166 -1 CURVE",
"255.49 535.801 LINE SMOOTH",
"261.075 551.139 OFFCURVE",
"273.357 593.779 OFFCURVE",
"283.357 626.042 CURVE",
"288.055 626.042 LINE",
"298.546 589.289 OFFCURVE",
"316.338 534.233 OFFCURVE",
"337.848 474.327 CURVE SMOOTH",
"493.682 15.601 LINE SMOOTH",
"500.662 -0.416 OFFCURVE",
"505.529 -5.094 OFFCURVE",
"519.471 -5.094 CURVE SMOOTH",
"533.546 -5.094 OFFCURVE",
"539.091 -3.302 OFFCURVE",
"546.468 1.886 CURVE",
"311.637 683.302 LINE",
"309.374 684.396 OFFCURVE",
"296.318 685.094 OFFCURVE",
"290.149 685.094 CURVE SMOOTH",
"282.981 685.094 OFFCURVE",
"270.925 684.396 OFFCURVE",
"264.756 683 CURVE"
);
},
{
closed = 1;
nodes = (
"352.149 190.776 LINE SMOOTH",
"355.432 190.776 OFFCURVE",
"434.321 191.776 OFFCURVE",
"438.906 191.776 CURVE",
"447.185 191.776 LINE",
"432.526 233.244 LINE",
"425.737 233.244 LINE",
"421.152 233.244 OFFCURVE",
"355.282 234.244 OFFCURVE",
"352 234.244 CURVE SMOOTH",
"220.507 234.244 LINE SMOOTH",
"217.224 234.244 OFFCURVE",
"153.958 233.244 OFFCURVE",
"149.374 233.244 CURVE",
"141.679 233.244 LINE",
"127.133 191.776 LINE",
"135.412 191.776 LINE",
"139.997 191.776 OFFCURVE",
"217.584 190.776 OFFCURVE",
"220.867 190.776 CURVE SMOOTH"
);
}
);
width = 596;
}
);
leftKerningGroup = A;
rightKerningGroup = A;
unicode = 0041;
},
{
glyphname = B;
lastChange = "2018-10-19 19:05:17 +0000";
layers = (
{
anchors = (
{
name = bottom_U;
position = "{299, -20}";
},
{
name = top_U;
position = "{291, 732}";
}
);
layerId = UUID1;
paths = (
{
closed = 1;
nodes = (
"74 678 LINE",
"74 5 LINE",
"81 -2 LINE",
"168 -4 OFFCURVE",
"254 -6 OFFCURVE",
"331 -6 CURVE SMOOTH",
"482 -6 OFFCURVE",
"583 53 OFFCURVE",
"583 197 CURVE SMOOTH",
"583 289 OFFCURVE",
"511 372 OFFCURVE",
"430 377 CURVE",
"430 361 LINE",
"495 369 OFFCURVE",
"551 434 OFFCURVE",
"551 507 CURVE SMOOTH",
"551 635 OFFCURVE",
"453 689 OFFCURVE",
"315 689 CURVE SMOOTH",
"243 689 OFFCURVE",
"162 687 OFFCURVE",
"81 685 CURVE"
);
},
{
closed = 1;
nodes = (
"239 572 LINE",
"263 571 OFFCURVE",
"290 571 OFFCURVE",
"306 571 CURVE SMOOTH",
"369 571 OFFCURVE",
"388 533 OFFCURVE",
"388 495 CURVE SMOOTH",
"388 457 OFFCURVE",
"370 417 OFFCURVE",
"306 417 CURVE SMOOTH",
"176 417 LINE",
"176 299 LINE",
"318 299 LINE SMOOTH",
"394 299 OFFCURVE",
"415 247 OFFCURVE",
"415 204 CURVE SMOOTH",
"415 163 OFFCURVE",
"396 111 OFFCURVE",
"318 111 CURVE SMOOTH",
"299 111 OFFCURVE",
"270 111 OFFCURVE",
"239 110 CURVE"
);
}
);
width = 616;
},
{
anchors = (
{
name = bottom_U;
position = "{295.2, -20}";
},
{
name = top_U;
position = "{278.65, 732}";
}
);
layerId = "59A137EB-1A44-4616-9625-4B79FA594CBD";
paths = (
{
closed = 1;
nodes = (
"98.7 677.05 LINE",
"98.7 5.95 LINE",
"104.75 -0.1 LINE",
"174.65 -1.15 OFFCURVE",
"228.35 -3.15 OFFCURVE",
"311.05 -3.15 CURVE SMOOTH",
"484.85 -3.15 OFFCURVE",
"543.1 92.9 OFFCURVE",
"543.1 188.45 CURVE SMOOTH",
"543.1 294.7 OFFCURVE",
"457.8 369.15 OFFCURVE",
"373.95 369.4 CURVE",
"373.95 355.3 LINE",
"457 364.25 OFFCURVE",
"510.15 428.3 OFFCURVE",
"510.15 506.05 CURVE SMOOTH",
"510.15 611.25 OFFCURVE",
"452.05 686.15 OFFCURVE",
"299.8 686.15 CURVE SMOOTH",
"236.35 686.15 OFFCURVE",
"174.35 684.15 OFFCURVE",
"104.75 683.1 CURVE"
);
},
{
closed = 1;
nodes = (
"175.35 623.3 LINE",
"211.7 622.3 OFFCURVE",
"268.15 622.3 OFFCURVE",
"301.25 622.3 CURVE SMOOTH",
"410.8 622.3 OFFCURVE",
"429.8 561.5 OFFCURVE",
"429.8 507.35 CURVE SMOOTH",
"429.8 455.1 OFFCURVE",
"407.05 391.35 OFFCURVE",
"298.4 391.35 CURVE SMOOTH",
"143.7 391.35 LINE",
"143.7 326.55 LINE",
"307.55 326.55 LINE SMOOTH",
"430.1 326.55 OFFCURVE",
"462.5 247 OFFCURVE",
"462.5 193.55 CURVE SMOOTH",
"462.5 138.3 OFFCURVE",
"439.7 60.65 OFFCURVE",
"317.05 60.65 CURVE SMOOTH",
"270.5 60.65 OFFCURVE",
"222.5 59.7 OFFCURVE",
"175.35 59.65 CURVE"
);
}
);
width = 599.85;
},
{
anchors = (
{
name = bottom_U;
position = "{293.792, -20}";
},
{
name = top_U;
position = "{274.075, 732}";
}
);
layerId = "9ED2045D-B62B-46E9-A722-9499BEB4CDB9";
paths = (
{
closed = 1;
nodes = (
"107.851 676.698 LINE",
"107.851 6.302 LINE",
"113.549 0.604 LINE",
"177.114 -0.094 OFFCURVE",
"218.848 -2.094 OFFCURVE",
"303.659 -2.094 CURVE SMOOTH",
"485.906 -2.094 OFFCURVE",
"528.318 107.682 OFFCURVE",
"528.318 185.283 CURVE SMOOTH",
"528.318 296.812 OFFCURVE",
"438.091 368.094 OFFCURVE",
"353.185 366.584 CURVE",
"353.185 353.188 LINE",
"442.922 362.49 OFFCURVE",
"495.016 426.188 OFFCURVE",
"495.016 505.698 CURVE SMOOTH",
"495.016 602.451 OFFCURVE",
"451.698 685.094 OFFCURVE",
"294.169 685.094 CURVE SMOOTH",
"233.886 685.094 OFFCURVE",
"178.925 683.094 OFFCURVE",
"113.549 682.396 CURVE"
);
},
{
closed = 1;
nodes = (
"151.77 642.305 LINE",
"192.695 641.305 OFFCURVE",
"260.055 641.305 OFFCURVE",
"299.49 641.305 CURVE SMOOTH",
"426.286 641.305 OFFCURVE",
"445.286 572.058 OFFCURVE",
"445.286 511.925 CURVE SMOOTH",
"445.286 454.396 OFFCURVE",
"420.776 381.848 OFFCURVE",
"295.584 381.848 CURVE SMOOTH",
"131.734 381.848 LINE",
"131.734 336.756 LINE",
"303.679 336.756 LINE SMOOTH",
"443.474 336.756 OFFCURVE",
"480.097 247 OFFCURVE",
"480.097 189.679 CURVE SMOOTH",
"480.097 129.149 OFFCURVE",
"455.889 41.997 OFFCURVE",
"316.698 41.997 CURVE SMOOTH",
"259.942 41.997 OFFCURVE",
"204.903 40.695 OFFCURVE",
"151.77 40.997 CURVE"
);
}
);
width = 600;
}
);
unicode = 0042;
},
{
glyphname = C;
lastChange = "2018-10-19 19:05:17 +0000";
layers = (
{
anchors = (
{
name = bottom_U;
position = "{328, -20}";
},
{
name = top_U;
position = "{327, 733}";
}
);
layerId = UUID1;
paths = (
{
closed = 1;
nodes = (
"449 401 OFFCURVE",
"468 397 OFFCURVE",
"492 397 CURVE SMOOTH",
"551 397 OFFCURVE",
"588 423 OFFCURVE",
"588 489 CURVE SMOOTH",
"588 609 OFFCURVE",
"485 699 OFFCURVE",
"329 699 CURVE SMOOTH",
"168 699 OFFCURVE",
"34 591 OFFCURVE",
"34 339 CURVE SMOOTH",
"34 168 OFFCURVE",
"99 -15 OFFCURVE",
"312 -15 CURVE SMOOTH",
"424 -15 OFFCURVE",
"530 35 OFFCURVE",
"588 92 CURVE",
"581 131 OFFCURVE",
"544 178 OFFCURVE",
"512 200 CURVE",
"467 169 OFFCURVE",
"413 131 OFFCURVE",
"343 131 CURVE SMOOTH",
"258 131 OFFCURVE",
"210 199 OFFCURVE",
"210 338 CURVE SMOOTH",
"210 486 OFFCURVE",
"240 566 OFFCURVE",
"323 566 CURVE SMOOTH",
"409 566 OFFCURVE",
"431 490 OFFCURVE",
"429 406 CURVE"
);
}
);
width = 610;
},
{
anchors = (
{
name = bottom_U;
position = "{316.6, -20}";
},
{
name = top_U;
position = "{318.45, 733}";
}
);
layerId = "59A137EB-1A44-4616-9625-4B79FA594CBD";
paths = (
{
closed = 1;
nodes = (
"489.85 462.75 OFFCURVE",
"497.45 461.6 OFFCURVE",
"510.05 461.6 CURVE SMOOTH",
"545.3 461.6 OFFCURVE",
"552.85 484.75 OFFCURVE",
"552.85 507.05 CURVE SMOOTH",
"552.85 598.55 OFFCURVE",
"465.05 695.2 OFFCURVE",
"320.45 695.2 CURVE SMOOTH",
"179.4 695.2 OFFCURVE",
"56.8 585.3 OFFCURVE",
"56.8 338.05 CURVE SMOOTH",
"56.8 157.55 OFFCURVE",
"126.55 -12.15 OFFCURVE",
"308.2 -12.15 CURVE SMOOTH",
"405.95 -12.15 OFFCURVE",
"491.05 30.25 OFFCURVE",
"544.3 84.4 CURVE",
"538.25 102.5 OFFCURVE",
"521.2 122.9 OFFCURVE",
"502.5 134.45 CURVE",
"438.5 78.75 OFFCURVE",
"377.85 55 OFFCURVE",
"319.25 55 CURVE SMOOTH",
"206.7 55 OFFCURVE",
"137.8 160.05 OFFCURVE",
"137.8 338 CURVE SMOOTH",
"137.8 529.7 OFFCURVE",
"203.9 630.6 OFFCURVE",
"320.15 630.6 CURVE SMOOTH",
"438.45 630.6 OFFCURVE",
"477.55 538.45 OFFCURVE",
"475.55 466.8 CURVE"
);
}
);
width = 600.5;
},
{
anchors = (
{
name = bottom_U;
position = "{312.377, -20}";
},
{
name = top_U;
position = "{315.282, 733}";
}
);
layerId = "9ED2045D-B62B-46E9-A722-9499BEB4CDB9";
paths = (
{
closed = 1;
nodes = (
"504.984 485.626 OFFCURVE",
"508.36 485.532 OFFCURVE",
"516.737 485.532 CURVE SMOOTH",
"543.188 485.532 OFFCURVE",
"539.828 507.626 OFFCURVE",
"539.828 513.737 CURVE SMOOTH",
"539.828 594.679 OFFCURVE",
"457.659 693.792 OFFCURVE",
"317.282 693.792 CURVE SMOOTH",
"183.623 693.792 OFFCURVE",
"65.247 583.188 OFFCURVE",
"65.247 337.698 CURVE SMOOTH",
"65.247 153.679 OFFCURVE",
"136.756 -11.094 OFFCURVE",
"306.792 -11.094 CURVE SMOOTH",
"399.263 -11.094 OFFCURVE",
"476.62 28.49 OFFCURVE",
"528.111 81.584 CURVE",
"522.413 91.942 OFFCURVE",
"512.753 102.487 OFFCURVE",
"498.981 110.166 CURVE",
"427.942 45.315 OFFCURVE",
"364.828 26.844 OFFCURVE",
"310.451 26.844 CURVE SMOOTH",
"187.695 26.844 OFFCURVE",
"111.052 145.62 OFFCURVE",
"111.052 338 CURVE SMOOTH",
"111.052 545.889 OFFCURVE",
"190.526 654.532 OFFCURVE",
"319.094 654.532 CURVE SMOOTH",
"449.36 654.532 OFFCURVE",
"494.795 556.399 OFFCURVE",
"492.795 489.324 CURVE"
);
}
);
width = 601;
}
);
leftKerningGroup = C;
rightKerningGroup = C;
unicode = 0043;
},
{
glyphname = D;
lastChange = "2018-10-19 19:05:17 +0000";
layers = (
{
anchors = (
{
name = bottom_U;
position = "{322, -20}";
},
{
name = top_U;
position = "{322, 732}";
}
);
layerId = UUID1;
paths = (
{
closed = 1;
nodes = (
"635 458 OFFCURVE",
"617 565 OFFCURVE",
"522 639 CURVE SMOOTH",
"476 675 OFFCURVE",
"393 689 OFFCURVE",
"337 689 CURVE",
"250 689 OFFCURVE",
"167 688 OFFCURVE",
"81 685 CURVE",
"74 678 LINE",
"74 5 LINE",
"81 -2 LINE",
"168 -4 OFFCURVE",
"250 -6 OFFCURVE",
"337 -6 CURVE",
"393 -6 OFFCURVE",
"476 8 OFFCURVE",
"522 44 CURVE SMOOTH",
"618 118 OFFCURVE",
"635 225 OFFCURVE",
"635 342 CURVE SMOOTH"
);
},
{
closed = 1;
nodes = (
"463 243 OFFCURVE",
"447 124 OFFCURVE",
"337 124 CURVE SMOOTH",
"304 124 OFFCURVE",
"275 124 OFFCURVE",
"241 123 CURVE",
"241 560 LINE",
"275 559 OFFCURVE",
"304 559 OFFCURVE",
"337 559 CURVE SMOOTH",
"447 559 OFFCURVE",
"463 441 OFFCURVE",
"463 342 CURVE"
);
}
);
width = 670;
},
{
anchors = (
{
name = bottom_U;
position = "{311.55, -20}";
},
{
name = top_U;
position = "{302.05, 732}";
}
);
layerId = "59A137EB-1A44-4616-9625-4B79FA594CBD";
paths = (
{
closed = 1;
nodes = (
"578.95 457.05 OFFCURVE",
"562.85 561.2 OFFCURVE",
"476.4 635.2 CURVE SMOOTH",
"434.2 671.2 OFFCURVE",
"358.8 686.15 OFFCURVE",
"307.55 686.15 CURVE",
"229.1 686.15 OFFCURVE",
"191.7 686.1 OFFCURVE",
"104.75 683.1 CURVE",
"98.7 677.05 LINE",
"98.7 5.95 LINE",
"104.75 -0.1 LINE",
"191.75 -2.1 OFFCURVE",
"229.1 -4.1 OFFCURVE",
"307.55 -4.1 CURVE",
"358.8 -4.1 OFFCURVE",
"434.2 10.85 OFFCURVE",
"476.4 46.85 CURVE SMOOTH",
"563.85 120.85 OFFCURVE",
"578.95 224.05 OFFCURVE",
"578.95 341.05 CURVE SMOOTH"
);
},
{
closed = 1;
nodes = (
"498.15 212.6 OFFCURVE",
"473.6 60.35 OFFCURVE",
"306.6 60.35 CURVE SMOOTH",
"260.3 60.35 OFFCURVE",
"226.55 61.3 OFFCURVE",
"175.45 61.25 CURVE",
"175.45 622.7 LINE",
"226.55 622.65 OFFCURVE",
"260.3 621.7 OFFCURVE",
"306.6 621.7 CURVE SMOOTH",
"473.6 621.7 OFFCURVE",
"498.15 470.45 OFFCURVE",
"498.15 341.05 CURVE"
);
}
);
width = 637.7;
},
{
anchors = (
{
name = bottom_U;
position = "{309, -20}";
},
{
name = top_U;
position = "{296, 732}";
}
);
layerId = "9ED2045D-B62B-46E9-A722-9499BEB4CDB9";
paths = (
{
closed = 1;
nodes = (
"559 457 OFFCURVE",
"544 560 OFFCURVE",
"461 634 CURVE SMOOTH",
"420 670 OFFCURVE",
"347 685 OFFCURVE",
"298 685 CURVE",
"222 685 OFFCURVE",
"202 685 OFFCURVE",
"115 682 CURVE",
"109 677 LINE",
"109 6 LINE",
"115 1 LINE",
"202 -1 OFFCURVE",
"222 -3 OFFCURVE",
"298 -3 CURVE",
"347 -3 OFFCURVE",
"420 12 OFFCURVE",
"461 48 CURVE SMOOTH",
"545 122 OFFCURVE",
"559 224 OFFCURVE",
"559 341 CURVE SMOOTH"
);
},
{
closed = 1;
nodes = (
"512 201 OFFCURVE",
"484 37 OFFCURVE",
"296 37 CURVE SMOOTH",
"245 37 OFFCURVE",
"210 38 OFFCURVE",
"152 38 CURVE",
"152 646 LINE",
"210 646 OFFCURVE",
"245 645 OFFCURVE",
"296 645 CURVE SMOOTH",
"484 645 OFFCURVE",
"512 481 OFFCURVE",
"512 341 CURVE"
);
}
);
width = 638;
}
);
rightKerningGroup = D;
unicode = 0044;
},
{
glyphname = E;
lastChange = "2018-10-19 19:05:17 +0000";
layers = (
{
anchors = (
{
name = bottom_U;
position = "{302, -20}";
},
{
name = top_U;
position = "{299, 732}";
}
);
layerId = UUID1;
paths = (
{
closed = 1;
nodes = (
"73 94 LINE",
"73 34 OFFCURVE",
"109 -3 OFFCURVE",
"169 -3 CURVE SMOOTH",
"238 -3 LINE",
"238 136 LINE SMOOTH",
"238 164 OFFCURVE",
"239 184 OFFCURVE",
"239 211 CURVE SMOOTH",
"239 470 LINE",
"239 497 OFFCURVE",
"238 517 OFFCURVE",
"238 545 CURVE SMOOTH",
"238 683 LINE",
"80 683 LINE",
"73 676 LINE"
);
},
{
closed = 1;
nodes = (
"307 411 LINE SMOOTH",
"282 411 OFFCURVE",
"213 410 OFFCURVE",
"181 409 CURVE",
"181 277 LINE",
"213 276 OFFCURVE",
"282 275 OFFCURVE",
"307 275 CURVE SMOOTH",
"455 275 LINE",
"462 296 OFFCURVE",
"465 324 OFFCURVE",
"465 343 CURVE SMOOTH",
"465 361 OFFCURVE",
"462 391 OFFCURVE",
"455 411 CURVE"
);
},
{
closed = 1;
nodes = (
"181 683 LINE",
"181 545 LINE",
"213 544 OFFCURVE",
"282 543 OFFCURVE",
"307 543 CURVE SMOOTH",
"507 543 LINE",
"516 568 OFFCURVE",
"521 598 OFFCURVE",
"521 617 CURVE SMOOTH",
"521 636 OFFCURVE",
"520 658 OFFCURVE",
"515 683 CURVE"
);
},
{
closed = 1;
nodes = (
"313 137 LINE",
"263 137 OFFCURVE",
"226 134 OFFCURVE",
"181 132 CURVE",
"181 -3 LINE",
"431 -3 LINE SMOOTH",
"492 -3 OFFCURVE",
"529 25 OFFCURVE",
"538 78 CURVE SMOOTH",
"541 98 OFFCURVE",
"541 123 OFFCURVE",
"541 137 CURVE"
);
}
);
width = 574;
},
{
anchors = (
{
name = bottom_U;
position = "{302, -20}";
},
{
name = top_U;
position = "{299, 732}";
}
);
layerId = "59A137EB-1A44-4616-9625-4B79FA594CBD";
paths = (
{
closed = 1;
nodes = (
"98.65 50.3 LINE",
"98.65 18.8 OFFCURVE",
"115.65 -0.15 OFFCURVE",
"142.4 -0.15 CURVE SMOOTH",
"172.45 -0.15 LINE",
"172.45 63.8 LINE SMOOTH",
"172.45 78.5 OFFCURVE",
"173.45 89 OFFCURVE",
"173.45 102.7 CURVE SMOOTH",
"173.45 555.5 LINE",
"173.45 582.5 OFFCURVE",
"172.45 592.05 OFFCURVE",
"172.45 620.05 CURVE SMOOTH",
"172.45 683 LINE",
"104.7 683 LINE",
"98.65 676.95 LINE"
);
},
{
closed = 1;
nodes = (
"232.9 378.7 LINE SMOOTH",
"210.75 378.7 OFFCURVE",
"175.95 377.7 OFFCURVE",
"146.8 377.65 CURVE",
"146.8 314.05 LINE",
"175.95 314 OFFCURVE",
"210.75 313 OFFCURVE",
"232.9 313 CURVE SMOOTH",
"439.8 313 LINE",
"442.05 324.5 OFFCURVE",
"443.15 337.3 OFFCURVE",
"443.15 345.85 CURVE SMOOTH",
"443.15 354.35 OFFCURVE",
"442.05 367.25 OFFCURVE",
"439.8 378.7 CURVE"
);
},
{
closed = 1;
nodes = (
"146.8 683 LINE",
"146.8 618.15 LINE",
"175.95 617.15 OFFCURVE",
"210.75 617.1 OFFCURVE",
"232.9 617.1 CURVE SMOOTH",
"488 617.1 LINE",
"492.25 628.8 OFFCURVE",
"493.45 643.6 OFFCURVE",
"493.45 652.15 CURVE SMOOTH",
"493.45 660.7 OFFCURVE",
"493.4 671.3 OFFCURVE",
"491.25 683 CURVE"
);
},
{
closed = 1;
nodes = (
"234.15 66.7 LINE",
"197.45 66.7 OFFCURVE",
"172.8 64.65 OFFCURVE",
"146.8 62.65 CURVE",
"146.8 -0.15 LINE",
"456.65 -0.15 LINE SMOOTH",
"483.45 -0.15 OFFCURVE",
"501.45 10.75 OFFCURVE",
"505.7 35.25 CURVE SMOOTH",
"507.75 45.75 OFFCURVE",
"507.75 60.3 OFFCURVE",
"507.75 66.7 CURVE"
);
}
);
width = 562.6;
},
{
anchors = (
{
name = bottom_U;
position = "{302, -20}";
},
{
name = top_U;
position = "{299, 732}";
}
);
layerId = "9ED2045D-B62B-46E9-A722-9499BEB4CDB9";
paths = (
{
closed = 1;
nodes = (
"108.153 34.111 LINE",
"108.153 13.169 OFFCURVE",
"118.114 0.906 OFFCURVE",
"132.546 0.906 CURVE SMOOTH",
"148.166 0.906 LINE",
"148.166 37.052 LINE SMOOTH",
"148.166 46.825 OFFCURVE",
"149.166 53.806 OFFCURVE",
"149.166 62.578 CURVE SMOOTH",
"149.166 587.175 LINE",
"149.166 614.175 OFFCURVE",
"148.166 619.854 OFFCURVE",
"148.166 647.854 CURVE SMOOTH",
"148.166 683 LINE",
"113.851 683 LINE",
"108.153 677.302 LINE"
);
},
{
closed = 1;
nodes = (
"205.448 366.734 LINE SMOOTH",
"184.354 366.734 OFFCURVE",
"162.224 365.734 OFFCURVE",
"134.13 366.036 CURVE",
"134.13 327.776 LINE",
"162.224 328.078 OFFCURVE",
"184.354 327.078 OFFCURVE",
"205.448 327.078 CURVE SMOOTH",
"434.169 327.078 LINE",
"434.659 335.058 OFFCURVE",
"435.055 342.227 OFFCURVE",
"435.055 346.906 CURVE SMOOTH",
"435.055 351.886 OFFCURVE",
"434.659 358.451 OFFCURVE",
"434.169 366.734 CURVE"
);
},
{
closed = 1;
nodes = (
"134.13 683 LINE",
"134.13 645.25 LINE",
"162.224 644.25 OFFCURVE",
"184.354 644.552 OFFCURVE",
"205.448 644.552 CURVE SMOOTH",
"480.961 644.552 LINE",
"483.451 651.324 OFFCURVE",
"483.244 660.493 OFFCURVE",
"483.244 665.172 CURVE SMOOTH",
"483.244 669.851 OFFCURVE",
"483.546 676.227 OFFCURVE",
"482.451 683 CURVE"
);
},
{
closed = 1;
nodes = (
"204.939 40.656 LINE",
"173.166 40.656 OFFCURVE",
"153.091 38.958 OFFCURVE",
"134.13 36.958 CURVE",
"134.13 0.906 LINE",
"466.152 0.906 LINE SMOOTH",
"480.283 0.906 OFFCURVE",
"491.244 5.471 OFFCURVE",
"493.734 19.413 CURVE SMOOTH",
"495.432 26.393 OFFCURVE",
"495.432 37.072 OFFCURVE",
"495.432 40.656 CURVE"
);
}
);
width = 563;
}
);
rightKerningGroup = E;
unicode = 0045;
},
{
glyphname = F;
lastChange = "2018-10-19 19:05:17 +0000";
layers = (
{
anchors = (
{
name = bottom_U;
position = "{160, -20}";
},
{
name = top_U;
position = "{295, 732}";
}
);
layerId = UUID1;
paths = (
{
closed = 1;
nodes = (
"242 468 LINE SMOOTH",
"242 521 OFFCURVE",
"241 580 OFFCURVE",
"241 636 CURVE SMOOTH",
"241 683 LINE",
"81 683 LINE",
"74 677 LINE",
"74 0 LINE",
"103 -5 OFFCURVE",
"137 -6 OFFCURVE",
"160 -6 CURVE SMOOTH",
"183 -6 OFFCURVE",
"213 -5 OFFCURVE",
"242 0 CURVE"
);
},
{
closed = 1;
nodes = (
"172 683 LINE",
"172 542 LINE",
"217 542 OFFCURVE",
"260 541 OFFCURVE",
"309 541 CURVE SMOOTH",
"431 541 LINE SMOOTH",
"491 541 OFFCURVE",
"520 564 OFFCURVE",
"520 619 CURVE SMOOTH",
"520 638 OFFCURVE",
"518 665 OFFCURVE",
"513 683 CURVE"
);
},
{
closed = 1;
nodes = (
"258 408 LINE SMOOTH",
"229 408 OFFCURVE",
"197 407 OFFCURVE",
"178 406 CURVE",
"178 273 LINE",
"197 272 OFFCURVE",
"229 271 OFFCURVE",
"258 271 CURVE SMOOTH",
"451 271 LINE",
"457 291 OFFCURVE",
"460 321 OFFCURVE",
"460 340 CURVE SMOOTH",
"460 358 OFFCURVE",
"457 389 OFFCURVE",
"451 408 CURVE"
);
}
);
width = 537;
},
{
anchors = (
{
name = bottom_U;
position = "{136.25, -20}";
},
{
name = top_U;
position = "{298.8, 732}";
}
);
layerId = "59A137EB-1A44-4616-9625-4B79FA594CBD";
paths = (
{
closed = 1;
nodes = (
"175.5 478.45 LINE SMOOTH",
"175.5 527.65 OFFCURVE",
"174.5 578.1 OFFCURVE",
"174.5 627.45 CURVE SMOOTH",
"174.5 683 LINE",
"104.75 683 LINE",
"98.7 677 LINE",
"98.7 0 LINE",
"108.7 -2.15 OFFCURVE",
"122.75 -3.15 OFFCURVE",
"136.25 -3.15 CURVE SMOOTH",
"150.7 -3.15 OFFCURVE",
"164.55 -2.15 OFFCURVE",
"175.5 0 CURVE"
);
},
{
closed = 1;
nodes = (
"146.35 683 LINE",
"146.35 619.9 LINE",
"180.9 617.05 OFFCURVE",
"225.8 616.05 OFFCURVE",
"283.35 616.05 CURVE SMOOTH",
"442.4 616.05 LINE SMOOTH",
"473.9 616.05 OFFCURVE",
"488.65 626.7 OFFCURVE",
"488.65 651.3 CURVE SMOOTH",
"488.65 661.75 OFFCURVE",
"486.65 673.55 OFFCURVE",
"483.55 683 CURVE"
);
},
{
closed = 1;
nodes = (
"230.45 378.55 LINE SMOOTH",
"208.1 378.55 OFFCURVE",
"175.15 377.55 OFFCURVE",
"146.65 377.5 CURVE",
"146.65 313.85 LINE",
"175.15 313.8 OFFCURVE",
"208.1 312.8 OFFCURVE",
"230.45 312.8 CURVE SMOOTH",
"434.85 312.8 LINE",
"437.05 324.25 OFFCURVE",
"438.15 337.15 OFFCURVE",
"438.15 345.7 CURVE SMOOTH",
"438.15 354.2 OFFCURVE",
"437.05 367.15 OFFCURVE",
"434.85 378.55 CURVE"
);
}
);
width = 514.2;
},
{
anchors = (
{
name = bottom_U;
position = "{128, -20}";
},
{
name = top_U;
position = "{301, 732}";
}
);
layerId = "9ED2045D-B62B-46E9-A722-9499BEB4CDB9";
paths = (
{
closed = 1;
nodes = (
"152 482 LINE SMOOTH",
"152 530 OFFCURVE",
"151 577 OFFCURVE",
"151 624 CURVE SMOOTH",
"151 683 LINE",
"115 683 LINE",
"109 677 LINE",
"109 0 LINE",
"112 -1 OFFCURVE",
"118 -2 OFFCURVE",
"128 -2 CURVE SMOOTH",
"140 -2 OFFCURVE",
"148 -1 OFFCURVE",
"152 0 CURVE"
);
},
{
closed = 1;
nodes = (
"138 683 LINE",
"138 649 LINE",
"169 645 OFFCURVE",
"214 644 OFFCURVE",
"275 644 CURVE SMOOTH",
"448 644 LINE SMOOTH",
"469 644 OFFCURVE",
"478 650 OFFCURVE",
"478 663 CURVE SMOOTH",
"478 671 OFFCURVE",
"476 677 OFFCURVE",
"474 683 CURVE"
);
},
{
closed = 1;
nodes = (
"221 368 LINE SMOOTH",
"201 368 OFFCURVE",
"168 367 OFFCURVE",
"136 367 CURVE",
"136 329 LINE",
"168 329 OFFCURVE",
"201 328 OFFCURVE",
"221 328 CURVE SMOOTH",
"430 328 LINE",
"431 337 OFFCURVE",
"431 343 OFFCURVE",
"431 348 CURVE SMOOTH",
"431 353 OFFCURVE",
"431 359 OFFCURVE",
"430 368 CURVE"
);
}
);
width = 514;
}
);
unicode = 0046;
},
{
glyphname = G;
lastChange = "2018-10-19 19:35:14 +0000";
layers = (
{
anchors = (
{
name = bottom_U;
position = "{345, -20}";
},
{
name = top_U;
position = "{351, 732}";
}
);
layerId = UUID1;
paths = (
{
closed = 1;
nodes = (
"535 669 OFFCURVE",
"449 698 OFFCURVE",
"351 698 CURVE SMOOTH",
"192 698 OFFCURVE",
"34 578 OFFCURVE",
"34 337 CURVE SMOOTH",
"34 117 OFFCURVE",
"135 -15 OFFCURVE",
"339 -15 CURVE SMOOTH",
"452 -15 OFFCURVE",
"548 7 OFFCURVE",
"606 26 CURVE",
"518 140 LINE",
"484 131 OFFCURVE",
"432 116 OFFCURVE",
"368 116 CURVE SMOOTH",
"264 116 OFFCURVE",
"205 183 OFFCURVE",
"205 336 CURVE SMOOTH",
"205 491 OFFCURVE",
"264 560 OFFCURVE",
"364 560 CURVE SMOOTH",
"419 560 OFFCURVE",
"481 539 OFFCURVE",
"530 507 CURVE",
"564 529 OFFCURVE",
"601 580 OFFCURVE",
"604 627 CURVE"
);
},
{
closed = 1;
nodes = (
"449 24 LINE",
"487 25 OFFCURVE",
"576 24 OFFCURVE",
"606 26 CURVE",
"606 289 LINE",
"464 336 LINE",
"451 289 OFFCURVE",
"449 230 OFFCURVE",
"449 183 CURVE"
);
},
{
closed = 1;
nodes = (
"339 392 LINE",
"332 372 OFFCURVE",
"327 345 OFFCURVE",
"327 323 CURVE SMOOTH",
"327 271 OFFCURVE",
"352 253 OFFCURVE",
"407 253 CURVE SMOOTH",
"446 253 OFFCURVE",
"543 254 OFFCURVE",
"606 255 CURVE",
"606 289 LINE SMOOTH",
"606 349 OFFCURVE",
"579 394 OFFCURVE",
"496 393 CURVE SMOOTH"
);
}
);
width = 656;
},
{
anchors = (
{
name = bottom_U;
position = "{335.5, -20}";
},
{
name = top_U;
position = "{341.5, 732}";
}
);
layerId = "59A137EB-1A44-4616-9625-4B79FA594CBD";
paths = (
{
closed = 1;
nodes = (
"510.3 667.1 OFFCURVE",
"422.4 695.15 OFFCURVE",
"341.5 695.15 CURVE SMOOTH",
"201.5 695.15 OFFCURVE",
"56.8 597 OFFCURVE",
"56.8 337 CURVE SMOOTH",
"56.8 165.45 OFFCURVE",
"121.7 -12.15 OFFCURVE",
"329.5 -12.15 CURVE SMOOTH",
"421.6 -12.15 OFFCURVE",
"506.2 7 OFFCURVE",
"567.05 31.7 CURVE",
"528.45 93.45 LINE",
"495.4 77.8 OFFCURVE",
"432.95 55.2 OFFCURVE",
"343.3 55.2 CURVE SMOOTH",
"207 55.2 OFFCURVE",
"137.55 150.7 OFFCURVE",
"137.55 336 CURVE SMOOTH",
"137.55 553.7 OFFCURVE",
"232.65 626.5 OFFCURVE",
"336.45 626.5 CURVE SMOOTH",
"410.45 626.5 OFFCURVE",
"475.3 600.75 OFFCURVE",
"525.25 561.15 CURVE",
"541.2 571.75 OFFCURVE",
"560.15 594.25 OFFCURVE",
"566 620.35 CURVE"
);
},
{
closed = 1;
nodes = (
"491.75 29.7 LINE",
"529.75 30.7 OFFCURVE",
"538 29.7 OFFCURVE",
"567.05 31.7 CURVE",
"567.05 290.9 LINE",
"499.15 315.1 LINE",
"493.75 291.85 OFFCURVE",
"491.75 260.4 OFFCURVE",
"491.75 214.35 CURVE"
);
},
{
closed = 1;
nodes = (
"355.15 343.55 LINE",
"351.95 334 OFFCURVE",
"348.85 319.35 OFFCURVE",
"348.85 310.65 CURVE SMOOTH",
"348.85 286.2 OFFCURVE",
"360.55 274.85 OFFCURVE",
"384.2 274.85 CURVE SMOOTH",
"434.6 274.85 OFFCURVE",
"509.75 275.85 OFFCURVE",
"567.05 276.85 CURVE",
"567.05 290.9 LINE SMOOTH",
"567.05 327.15 OFFCURVE",
"551.45 343.65 OFFCURVE",
"507.4 343.6 CURVE SMOOTH"
);
}
);
width = 637;
},
{
anchors = (
{
name = bottom_U;
position = "{331.981, -20}";
},
{
name = top_U;
position = "{337.981, 732}";
}
);
layerId = "9ED2045D-B62B-46E9-A722-9499BEB4CDB9";
paths = (
{
closed = 1;
nodes = (
"501 666 OFFCURVE",
"413 694 OFFCURVE",
"338 694 CURVE SMOOTH",
"205 694 OFFCURVE",
"65 604 OFFCURVE",
"65 337 CURVE SMOOTH",
"65 183 OFFCURVE",
"117 -11 OFFCURVE",
"326 -11 CURVE SMOOTH",
"410 -11 OFFCURVE",
"491 7 OFFCURVE",
"553 34 CURVE",
"532 76 LINE",
"500 58 OFFCURVE",
"433 33 OFFCURVE",
"334 33 CURVE SMOOTH",
"186 33 OFFCURVE",
"113 139 OFFCURVE",
"113 336 CURVE SMOOTH",
"113 577 OFFCURVE",
"221 651 OFFCURVE",
"326 651 CURVE SMOOTH",
"407 651 OFFCURVE",
"473 624 OFFCURVE",
"523 581 CURVE",
"533 588 OFFCURVE",
"545 600 OFFCURVE",
"552 618 CURVE"
);
},
{
closed = 1;
nodes = (
"508 32 LINE",
"522 32 OFFCURVE",
"538 32 OFFCURVE",
"553 34 CURVE",
"553 292 LINE",
"512 307 LINE",
"510 293 OFFCURVE",
"508 272 OFFCURVE",
"508 226 CURVE"
);
},
{
closed = 1;
nodes = (
"360 325 LINE",
"358 319 OFFCURVE",
"357 310 OFFCURVE",
"357 306 CURVE SMOOTH",
"357 292 OFFCURVE",
"364 283 OFFCURVE",
"376 283 CURVE SMOOTH",
"430 283 OFFCURVE",
"497 284 OFFCURVE",
"553 285 CURVE",
"553 292 LINE SMOOTH",
"553 319 OFFCURVE",
"541 325 OFFCURVE",
"512 325 CURVE SMOOTH"
);
}
);
width = 637;
}
);
leftKerningGroup = C;
rightKerningGroup = G;
unicode = 0047;
},
{
glyphname = H;
lastChange = "2018-10-19 19:05:17 +0000";
layers = (
{
anchors = (
{
name = bottom_U;
position = "{344, -20}";
},
{
name = top_U;
position = "{344, 733}";
}
);
layerId = UUID1;
paths = (
{
closed = 1;
nodes = (
"398 282 LINE",
"413 282 OFFCURVE",
"432 283 OFFCURVE",
"447 283 CURVE SMOOTH",
"480 283 OFFCURVE",
"515 282 OFFCURVE",
"548 282 CURVE",
"548 422 LINE",
"515 422 OFFCURVE",
"480 421 OFFCURVE",
"447 421 CURVE SMOOTH",
"432 421 OFFCURVE",
"413 422 OFFCURVE",
"398 422 CURVE SMOOTH",
"290 422 LINE SMOOTH",
"275 422 OFFCURVE",
"256 421 OFFCURVE",
"241 421 CURVE SMOOTH",
"208 421 OFFCURVE",
"173 422 OFFCURVE",
"140 422 CURVE",
"140 282 LINE",
"173 282 OFFCURVE",
"208 283 OFFCURVE",
"241 283 CURVE SMOOTH",
"256 283 OFFCURVE",
"275 282 OFFCURVE",
"290 282 CURVE SMOOTH"
);
},
{
closed = 1;
nodes = (
"242 209 LINE SMOOTH",
"242 237 OFFCURVE",
"241 256 OFFCURVE",
"241 283 CURVE SMOOTH",
"241 421 LINE SMOOTH",
"241 448 OFFCURVE",
"242 467 OFFCURVE",
"242 495 CURVE SMOOTH",
"242 683 LINE",
"214 688 OFFCURVE",
"180 689 OFFCURVE",
"158 689 CURVE SMOOTH",
"138 689 OFFCURVE",
"101 688 OFFCURVE",
"74 683 CURVE",
"74 0 LINE",
"101 -5 OFFCURVE",
"138 -6 OFFCURVE",
"158 -6 CURVE SMOOTH",
"180 -6 OFFCURVE",
"214 -5 OFFCURVE",
"242 0 CURVE"
);
},
{
closed = 1;
nodes = (
"446 0 LINE",
"475 -5 OFFCURVE",
"509 -6 OFFCURVE",
"532 -6 CURVE SMOOTH",
"555 -6 OFFCURVE",
"585 -5 OFFCURVE",
"614 0 CURVE",
"614 683 LINE",
"587 688 OFFCURVE",
"550 689 OFFCURVE",
"530 689 CURVE SMOOTH",
"508 689 OFFCURVE",
"474 688 OFFCURVE",
"446 683 CURVE",
"446 495 LINE SMOOTH",
"446 467 OFFCURVE",
"447 448 OFFCURVE",
"447 421 CURVE SMOOTH",
"447 283 LINE SMOOTH",
"447 256 OFFCURVE",
"446 237 OFFCURVE",
"446 209 CURVE SMOOTH"
);
}
);
width = 688;
},
{
anchors = (
{
name = bottom_U;
position = "{333.55, -20}";
},
{
name = top_U;
position = "{333.55, 732.05}";
}
);
layerId = "59A137EB-1A44-4616-9625-4B79FA594CBD";
paths = (
{
closed = 1;
nodes = (
"433.15 319.05 LINE",
"439.6 319.05 OFFCURVE",
"486.15 320.05 OFFCURVE",
"493.55 320.05 CURVE SMOOTH",
"508.5 320.05 OFFCURVE",
"523.55 319.05 OFFCURVE",
"538.5 319.05 CURVE",
"538.5 386.85 LINE",
"523.55 386.85 OFFCURVE",
"508.5 385.85 OFFCURVE",
"493.55 385.85 CURVE SMOOTH",
"486.15 385.85 OFFCURVE",
"439.6 386.85 OFFCURVE",
"433.15 386.85 CURVE SMOOTH",
"234.9 386.85 LINE SMOOTH",
"228.45 386.85 OFFCURVE",
"181.9 385.85 OFFCURVE",
"174.5 385.85 CURVE SMOOTH",
"159.55 385.85 OFFCURVE",
"144.5 386.85 OFFCURVE",
"129.55 386.85 CURVE",
"129.55 319.05 LINE",
"144.5 319.05 OFFCURVE",
"159.55 320.05 OFFCURVE",
"174.5 320.05 CURVE SMOOTH",
"181.9 320.05 OFFCURVE",
"228.45 319.05 OFFCURVE",
"234.9 319.05 CURVE SMOOTH"
);
},
{
closed = 1;
nodes = (
"175.5 246.05 LINE SMOOTH",
"175.5 274.05 OFFCURVE",
"174.5 293.05 OFFCURVE",
"174.5 320.05 CURVE SMOOTH",
"174.5 385.85 LINE SMOOTH",
"174.5 412.85 OFFCURVE",
"175.5 431.85 OFFCURVE",
"175.5 459.85 CURVE SMOOTH",
"175.5 683 LINE",
"164.6 685.15 OFFCURVE",
"150.55 686.15 OFFCURVE",
"136.15 686.15 CURVE SMOOTH",
"122.8 686.15 OFFCURVE",
"108.6 685.15 OFFCURVE",
"98.7 683 CURVE",
"98.7 0 LINE",
"108.6 -2.15 OFFCURVE",
"122.8 -3.15 OFFCURVE",
"136.15 -3.15 CURVE SMOOTH",
"150.55 -3.15 OFFCURVE",
"164.6 -2.15 OFFCURVE",
"175.5 0 CURVE"
);
},
{
closed = 1;
nodes = (
"492.55 0 LINE",
"502.55 -2.15 OFFCURVE",
"516.6 -3.15 OFFCURVE",
"530.1 -3.15 CURVE SMOOTH",
"544.55 -3.15 OFFCURVE",
"558.4 -2.15 OFFCURVE",
"569.35 0 CURVE",
"569.35 683 LINE",
"558.5 685.15 OFFCURVE",
"544.3 686.15 OFFCURVE",
"530 686.15 CURVE SMOOTH",
"516.55 686.15 OFFCURVE",
"502.5 685.15 OFFCURVE",
"492.55 683 CURVE",
"492.55 459.85 LINE SMOOTH",
"492.55 431.85 OFFCURVE",
"493.55 412.85 OFFCURVE",
"493.55 385.85 CURVE SMOOTH",
"493.55 320.05 LINE SMOOTH",
"493.55 293.05 OFFCURVE",
"492.55 274.05 OFFCURVE",
"492.55 246.05 CURVE SMOOTH"
);
}
);
width = 668.05;
},
{
anchors = (
{
name = bottom_U;
position = "{329.679, -20}";
},
{
name = top_U;
position = "{329.679, 731.698}";
}
);
layerId = "9ED2045D-B62B-46E9-A722-9499BEB4CDB9";
paths = (
{
closed = 1;
nodes = (
"446.172 332.776 LINE",
"449.454 332.776 OFFCURVE",
"506.211 333.776 OFFCURVE",
"510.795 333.776 CURVE SMOOTH",
"519.058 333.776 OFFCURVE",
"526.717 332.776 OFFCURVE",
"534.981 332.776 CURVE",
"534.981 373.828 LINE",
"526.717 373.828 OFFCURVE",
"519.058 372.828 OFFCURVE",
"510.795 372.828 CURVE SMOOTH",
"506.211 372.828 OFFCURVE",
"449.454 373.828 OFFCURVE",
"446.172 373.828 CURVE SMOOTH",
"214.487 373.828 LINE SMOOTH",
"211.205 373.828 OFFCURVE",
"154.448 372.828 OFFCURVE",
"149.864 372.828 CURVE SMOOTH",
"141.601 372.828 OFFCURVE",
"133.942 373.828 OFFCURVE",
"125.679 373.828 CURVE",
"125.679 332.776 LINE",
"133.942 332.776 OFFCURVE",
"141.601 333.776 OFFCURVE",
"149.864 333.776 CURVE SMOOTH",
"154.448 333.776 OFFCURVE",
"211.205 332.776 OFFCURVE",
"214.487 332.776 CURVE SMOOTH"
);
},
{
closed = 1;
nodes = (
"150.864 259.776 LINE SMOOTH",
"150.864 287.776 OFFCURVE",
"149.864 306.776 OFFCURVE",
"149.864 333.776 CURVE SMOOTH",
"149.864 372.828 LINE SMOOTH",
"149.864 399.828 OFFCURVE",
"150.864 418.828 OFFCURVE",
"150.864 446.828 CURVE SMOOTH",
"150.864 683 LINE",
"146.299 684.094 OFFCURVE",
"139.64 685.094 OFFCURVE",
"128.055 685.094 CURVE SMOOTH",
"117.169 685.094 OFFCURVE",
"111.416 684.094 OFFCURVE",
"107.851 683 CURVE",
"107.851 0 LINE",
"111.416 -1.094 OFFCURVE",
"117.169 -2.094 OFFCURVE",
"128.055 -2.094 CURVE SMOOTH",
"139.64 -2.094 OFFCURVE",
"146.299 -1.094 OFFCURVE",
"150.864 0 CURVE"
);
},
{
closed = 1;
nodes = (
"509.795 0 LINE",
"512.756 -1.094 OFFCURVE",
"519.416 -2.094 OFFCURVE",
"529.396 -2.094 CURVE SMOOTH",
"540.679 -2.094 OFFCURVE",
"548.546 -1.094 OFFCURVE",
"552.809 0 CURVE",
"552.809 683 LINE",
"547.942 684.094 OFFCURVE",
"542.188 685.094 OFFCURVE",
"530 685.094 CURVE SMOOTH",
"519.717 685.094 OFFCURVE",
"513.058 684.094 OFFCURVE",
"509.795 683 CURVE",
"509.795 446.828 LINE SMOOTH",
"509.795 418.828 OFFCURVE",
"510.795 399.828 OFFCURVE",
"510.795 372.828 CURVE SMOOTH",
"510.795 333.776 LINE SMOOTH",
"510.795 306.776 OFFCURVE",
"509.795 287.776 OFFCURVE",
"509.795 259.776 CURVE SMOOTH"
);
}
);
width = 668;
}
);
unicode = 0048;
},
{
glyphname = I;
lastChange = "2018-10-19 19:05:17 +0000";
layers = (
{
anchors = (
{
name = bottom_U;
position = "{160, -20}";
},
{
name = top_U;
position = "{160, 733}";
}
);
layerId = UUID1;
paths = (
{
closed = 1;
nodes = (
"76 0 LINE",
"103 -5 OFFCURVE",
"140 -6 OFFCURVE",
"160 -6 CURVE SMOOTH",
"182 -6 OFFCURVE",
"216 -5 OFFCURVE",
"244 0 CURVE",
"244 683 LINE",
"216 688 OFFCURVE",
"182 689 OFFCURVE",
"160 689 CURVE SMOOTH",
"140 689 OFFCURVE",
"103 688 OFFCURVE",
"76 683 CURVE"
);
}
);
width = 320;
},
{
anchors = (
{
name = bottom_U;
position = "{140.05, -20}";
},
{
name = top_U;
position = "{141, 732.05}";
}
);
layerId = "59A137EB-1A44-4616-9625-4B79FA594CBD";
paths = (
{
closed = 1;
nodes = (
"102.6 0 LINE",
"112.5 -2.15 OFFCURVE",
"126.7 -3.15 OFFCURVE",
"140.05 -3.15 CURVE SMOOTH",
"154.45 -3.15 OFFCURVE",
"168.5 -2.15 OFFCURVE",
"179.4 0 CURVE",
"179.4 683 LINE",
"168.5 685.15 OFFCURVE",
"154.45 686.15 OFFCURVE",
"140.05 686.15 CURVE SMOOTH",
"126.7 686.15 OFFCURVE",
"112.5 685.15 OFFCURVE",
"102.6 683 CURVE"
);
}
);
width = 282;
},
{
anchors = (
{
name = bottom_U;
position = "{137, -20}";
},
{
name = top_U;
position = "{138, 732}";
}
);
layerId = "9ED2045D-B62B-46E9-A722-9499BEB4CDB9";
paths = (
{
closed = 1;
nodes = (
"116 0 LINE",
"120 -1 OFFCURVE",
"126 -2 OFFCURVE",
"137 -2 CURVE SMOOTH",
"148 -2 OFFCURVE",
"155 -1 OFFCURVE",
"159 0 CURVE",
"159 683 LINE",
"155 684 OFFCURVE",
"148 685 OFFCURVE",
"137 685 CURVE SMOOTH",
"126 685 OFFCURVE",
"120 684 OFFCURVE",
"116 683 CURVE"
);
}
);
width = 282;
}
);
unicode = 0049;
},
{
glyphname = J;
lastChange = "2018-10-19 19:05:17 +0000";
layers = (
{
anchors = (
{
name = bottom_U;
position = "{217, -20}";
},
{
name = top_U;
position = "{326, 732}";
}
);
layerId = UUID1;
paths = (
{
closed = 1;
nodes = (
"37 124 OFFCURVE",
"16 76 OFFCURVE",
"10 34 CURVE",
"58 4 OFFCURVE",
"121 -10 OFFCURVE",
"174 -10 CURVE SMOOTH",
"364 -10 OFFCURVE",
"410 105 OFFCURVE",
"410 264 CURVE SMOOTH",
"410 683 LINE",
"382 688 OFFCURVE",
"348 689 OFFCURVE",
"326 689 CURVE SMOOTH",
"306 689 OFFCURVE",
"269 688 OFFCURVE",
"242 683 CURVE",
"242 249 LINE",
"242 174 OFFCURVE",
"226 128 OFFCURVE",
"155 128 CURVE SMOOTH",
"124 128 OFFCURVE",
"95 141 OFFCURVE",
"67 158 CURVE"
);
}
);
width = 474;
},
{
anchors = (
{
name = bottom_U;
position = "{192.3, -20}";
},
{
name = top_U;
position = "{313.65, 732}";
}
);
layerId = "59A137EB-1A44-4616-9625-4B79FA594CBD";
paths = (
{
closed = 1;
nodes = (
"25.6 73.65 OFFCURVE",
"15.05 54.15 OFFCURVE",
"10 31.15 CURVE",
"51.35 5.9 OFFCURVE",
"110.55 -10 OFFCURVE",
"161.65 -10 CURVE SMOOTH",
"326.95 -10 OFFCURVE",
"351.1 101.2 OFFCURVE",
"351.1 241.2 CURVE SMOOTH",
"351.1 683 LINE",
"341.15 685.15 OFFCURVE",
"327.1 686.15 OFFCURVE",
"313.65 686.15 CURVE SMOOTH",
"299.35 686.15 OFFCURVE",
"285.15 685.15 OFFCURVE",
"274.3 683 CURVE",
"274.3 226.2 LINE",
"274.3 103.7 OFFCURVE",
"245 55.8 OFFCURVE",
"157.85 55.8 CURVE SMOOTH",
"118.3 55.8 OFFCURVE",
"72.2 70.7 OFFCURVE",
"41.35 89.6 CURVE"
);
}
);
width = 436;
},
{
anchors = (
{
name = bottom_U;
position = "{183.149, -20}";
},
{
name = top_U;
position = "{309.075, 732}";
}
);
layerId = "9ED2045D-B62B-46E9-A722-9499BEB4CDB9";
paths = (
{
closed = 1;
nodes = (
"21.377 54.997 OFFCURVE",
"14.698 46.055 OFFCURVE",
"10 30.094 CURVE",
"48.886 6.604 OFFCURVE",
"106.679 -10 OFFCURVE",
"157.075 -10 CURVE SMOOTH",
"313.224 -10 OFFCURVE",
"329.279 99.792 OFFCURVE",
"329.279 232.753 CURVE SMOOTH",
"329.279 683 LINE",
"326.016 684.094 OFFCURVE",
"319.357 685.094 OFFCURVE",
"309.075 685.094 CURVE SMOOTH",
"296.886 685.094 OFFCURVE",
"291.133 684.094 OFFCURVE",
"286.266 683 CURVE",
"286.266 217.753 LINE",
"286.266 77.656 OFFCURVE",
"252.039 29.052 OFFCURVE",
"158.906 29.052 CURVE SMOOTH",
"116.188 29.052 OFFCURVE",
"63.753 44.656 OFFCURVE",
"31.848 64.26 CURVE"
);
}
);
width = 436;
}
);
leftKerningGroup = J;
rightKerningGroup = U;
unicode = 004A;
},
{
glyphname = K;
lastChange = "2018-10-19 19:05:17 +0000";
layers = (
{
anchors = (
{
name = bottom_U;
position = "{331, -20}";
},
{
name = top_U;
position = "{327, 732}";
}
);
layerId = UUID1;
paths = (
{
closed = 1;
nodes = (
"74 0 LINE",
"101 -5 OFFCURVE",
"138 -6 OFFCURVE",
"158 -6 CURVE SMOOTH",
"180 -6 OFFCURVE",
"214 -5 OFFCURVE",
"242 0 CURVE",
"242 683 LINE",
"214 688 OFFCURVE",
"180 689 OFFCURVE",
"158 689 CURVE SMOOTH",
"138 689 OFFCURVE",
"101 688 OFFCURVE",
"74 683 CURVE"
);
},
{
closed = 1;
nodes = (
"584 73 OFFCURVE",
"578 102 OFFCURVE",
"566 138 CURVE SMOOTH",
"527 259 LINE SMOOTH",
"506 323 OFFCURVE",
"474 377 OFFCURVE",
"360 377 CURVE SMOOTH",
"157 377 LINE",
"157 275 LINE",
"206 280 OFFCURVE",
"251 284 OFFCURVE",
"282 284 CURVE SMOOTH",
"328 284 OFFCURVE",
"353 260 OFFCURVE",
"372 199 CURVE SMOOTH",
"407 86 LINE SMOOTH",
"427 22 OFFCURVE",
"448 -9 OFFCURVE",
"508 -9 CURVE SMOOTH",
"553 -9 OFFCURVE",
"597 9 OFFCURVE",
"619 41 CURVE"
);
},
{
closed = 1;
nodes = (
"309 458 LINE",
"295 430 OFFCURVE",
"289 423 OFFCURVE",
"263 423 CURVE SMOOTH",
"157 421 LINE",
"157 327 LINE",
"279 327 LINE SMOOTH",
"382 327 OFFCURVE",
"438 372 OFFCURVE",
"477 447 CURVE SMOOTH",
"594 673 LINE",
"585 684 LINE",
"552 687 OFFCURVE",
"511 689 OFFCURVE",
"484 689 CURVE SMOOTH",
"436 689 OFFCURVE",
"419 671 OFFCURVE",
"399 632 CURVE SMOOTH"
);
}
);
width = 624;
},
{
anchors = (
{
name = bottom_U;
position = "{304.4, -20}";
},
{
name = top_U;
position = "{301.35, 732}";
}
);
layerId = "59A137EB-1A44-4616-9625-4B79FA594CBD";
paths = (
{
closed = 1;
nodes = (
"98.7 0 LINE",
"108.6 -2.15 OFFCURVE",
"122.8 -3.15 OFFCURVE",
"136.15 -3.15 CURVE SMOOTH",
"150.55 -3.15 OFFCURVE",
"164.6 -2.15 OFFCURVE",
"175.5 0 CURVE",
"175.5 683 LINE",
"164.6 685.15 OFFCURVE",
"150.55 686.15 OFFCURVE",
"136.15 686.15 CURVE SMOOTH",
"122.8 686.15 OFFCURVE",
"108.6 685.15 OFFCURVE",
"98.7 683 CURVE"
);
},
{
closed = 1;
nodes = (
"546 33.1 OFFCURVE",
"533.35 49.75 OFFCURVE",
"520.4 81.95 CURVE SMOOTH",
"458.6 238.1 LINE SMOOTH",
"422.4 328.7 OFFCURVE",
"388.5 369.4 OFFCURVE",
"291.6 369.4 CURVE SMOOTH",
"135.15 369.4 LINE",
"135.15 314.9 LINE",
"201.25 318 OFFCURVE",
"240.55 318.2 OFFCURVE",
"256.35 318.2 CURVE SMOOTH",
"322.3 318.2 OFFCURVE",
"356.8 290.4 OFFCURVE",
"389.1 207.55 CURVE SMOOTH",
"452.6 45.15 LINE SMOOTH",
"465 12.5 OFFCURVE",
"474.6 -5.2 OFFCURVE",
"508 -5.2 CURVE SMOOTH",
"525.45 -5.2 OFFCURVE",
"550.45 4.25 OFFCURVE",
"561.05 21.05 CURVE"
);
},
{
closed = 1;
nodes = (
"282.4 410.5 LINE",
"272.2 393.9 OFFCURVE",
"265.25 385.95 OFFCURVE",
"247.8 385.95 CURVE SMOOTH",
"135.15 383 LINE",
"135.15 337.45 LINE",
"251.45 337.45 LINE SMOOTH",
"301.25 337.45 OFFCURVE",
"337.3 363.45 OFFCURVE",
"362.05 403.3 CURVE SMOOTH",
"530.35 674.9 LINE",
"524.2 683.05 LINE",
"509.25 684.15 OFFCURVE",
"496.75 685.2 OFFCURVE",
"483.05 685.2 CURVE SMOOTH",
"453.1 685.2 OFFCURVE",
"443.7 671.95 OFFCURVE",
"429.4 648.15 CURVE SMOOTH"
);
}
);
width = 583.15;
},
{
anchors = (
{
name = bottom_U;
position = "{297, -20}";
},
{
name = top_U;
position = "{294, 732}";
}
);
layerId = "9ED2045D-B62B-46E9-A722-9499BEB4CDB9";
paths = (
{
closed = 1;
nodes = (
"110 0 LINE",
"113 -1 OFFCURVE",
"119 -2 OFFCURVE",
"130 -2 CURVE SMOOTH",
"142 -2 OFFCURVE",
"148 -1 OFFCURVE",
"153 0 CURVE",
"153 683 LINE",
"148 684 OFFCURVE",
"142 685 OFFCURVE",
"130 685 CURVE SMOOTH",
"119 685 OFFCURVE",
"113 684 OFFCURVE",
"110 683 CURVE"
);
},
{
closed = 1;
nodes = (
"534 18 OFFCURVE",
"519 30 OFFCURVE",
"506 61 CURVE SMOOTH",
"435 230 LINE SMOOTH",
"393 331 OFFCURVE",
"359 367 OFFCURVE",
"268 367 CURVE SMOOTH",
"129 367 LINE",
"129 330 LINE",
"201 332 OFFCURVE",
"239 331 OFFCURVE",
"249 331 CURVE SMOOTH",
"322 331 OFFCURVE",
"360 302 OFFCURVE",
"397 211 CURVE SMOOTH",
"471 30 LINE SMOOTH",
"481 9 OFFCURVE",
"486 -4 OFFCURVE",
"510 -4 CURVE SMOOTH",
"517 -4 OFFCURVE",
"535 2 OFFCURVE",
"542 14 CURVE"
);
},
{
closed = 1;
nodes = (
"275 393 LINE",
"266 381 OFFCURVE",
"258 372 OFFCURVE",
"244 372 CURVE SMOOTH",
"129 369 LINE",
"129 341 LINE",
"243 341 LINE SMOOTH",
"273 341 OFFCURVE",
"302 360 OFFCURVE",
"321 387 CURVE SMOOTH",
"509 676 LINE",
"504 683 LINE",
"495 683 OFFCURVE",
"493 684 OFFCURVE",
"485 684 CURVE SMOOTH",
"461 684 OFFCURVE",
"455 672 OFFCURVE",
"443 654 CURVE SMOOTH"
);
}
);
width = 583;
}
);
rightKerningGroup = K;
unicode = 004B;
},
{
glyphname = L;
lastChange = "2018-10-19 19:05:17 +0000";
layers = (
{
anchors = (
{
name = bottom_U;
position = "{285, -20}";
},
{
name = top_U;
position = "{156, 727}";
}
);
layerId = UUID1;
paths = (
{
closed = 1;
nodes = (
"241 584 LINE",
"241 659 OFFCURVE",
"205 690 OFFCURVE",
"141 690 CURVE SMOOTH",
"80 690 LINE",
"73 683 LINE",
"73 94 LINE SMOOTH",
"73 34 OFFCURVE",
"110 -3 OFFCURVE",
"170 -3 CURVE SMOOTH",
"241 -3 LINE"
);
},
{
closed = 1;
nodes = (
"335 141 LINE",
"262 141 OFFCURVE",
"171 134 OFFCURVE",
"80 118 CURVE",
"170 -3 LINE",
"391 -3 LINE SMOOTH",
"452 -3 OFFCURVE",
"492 26 OFFCURVE",
"501 79 CURVE SMOOTH",
"504 99 OFFCURVE",
"505 121 OFFCURVE",
"505 141 CURVE"
);
}
);
width = 524;
},
{
anchors = (
{
name = bottom_U;
position = "{288.8, -20}";
},
{
name = top_U;
position = "{136.05, 731.75}";
}
);
layerId = "59A137EB-1A44-4616-9625-4B79FA594CBD";
paths = (
{
closed = 1;
nodes = (
"175.45 636.25 LINE",
"175.45 669.45 OFFCURVE",
"168.9 686.2 OFFCURVE",
"135.3 686.2 CURVE SMOOTH",
"104.7 686.2 LINE",
"98.65 680.15 LINE",
"98.65 51.25 LINE SMOOTH",
"98.65 16.9 OFFCURVE",
"118.55 -0.15 OFFCURVE",
"143.4 -0.15 CURVE SMOOTH",
"175.45 -0.15 LINE"
);
},
{
closed = 1;
nodes = (
"261.85 67.85 LINE",
"215.45 67.85 OFFCURVE",
"152.95 64.65 OFFCURVE",
"105.65 57.2 CURVE",
"143.4 -0.15 LINE",
"423.3 -0.15 LINE SMOOTH",
"450.1 -0.15 OFFCURVE",
"468.25 10.8 OFFCURVE",
"472.5 35.3 CURVE SMOOTH",
"474.55 45.8 OFFCURVE",
"474.6 61.15 OFFCURVE",
"474.6 67.85 CURVE"
);
}
);
width = 505.95;
},
{
anchors = (
{
name = bottom_U;
position = "{291, -20}";
},
{
name = top_U;
position = "{130, 734}";
}
);
layerId = "9ED2045D-B62B-46E9-A722-9499BEB4CDB9";
paths = (
{
closed = 1;
nodes = (
"152 656 LINE",
"152 673 OFFCURVE",
"157 685 OFFCURVE",
"134 685 CURVE SMOOTH",
"115 685 LINE",
"109 679 LINE",
"109 35 LINE SMOOTH",
"109 11 OFFCURVE",
"123 1 OFFCURVE",
"135 1 CURVE SMOOTH",
"152 1 LINE"
);
},
{
closed = 1;
nodes = (
"236 41 LINE",
"199 41 OFFCURVE",
"147 39 OFFCURVE",
"116 35 CURVE",
"135 1 LINE",
"436 1 LINE SMOOTH",
"450 1 OFFCURVE",
"460 5 OFFCURVE",
"463 19 CURVE SMOOTH",
"465 26 OFFCURVE",
"464 39 OFFCURVE",
"464 41 CURVE"
);
}
);
width = 506;
}
);
rightKerningGroup = L;
unicode = 004C;
},
{
glyphname = M;
lastChange = "2018-10-19 19:05:17 +0000";
layers = (
{
anchors = (
{
name = bottom_U;
position = "{419, -20}";
},
{
name = top_U;
position = "{419, 732}";
}
);
layerId = UUID1;
paths = (
{
closed = 1;
nodes = (
"52 2 LINE",
"76 -4 OFFCURVE",
"110 -6 OFFCURVE",
"137 -6 CURVE SMOOTH",
"162 -6 OFFCURVE",
"186 -5 OFFCURVE",
"210 -1 CURVE",
"224 265 LINE SMOOTH",
"228 338 OFFCURVE",
"232 433 OFFCURVE",
"232 499 CURVE",
"239 499 LINE",
"332 100 LINE",
"357 96 OFFCURVE",
"397 94 OFFCURVE",
"418 94 CURVE SMOOTH",
"441 94 OFFCURVE",
"480 96 OFFCURVE",
"505 100 CURVE",
"598 499 LINE",
"605 499 LINE",
"605 433 OFFCURVE",
"609 338 OFFCURVE",
"613 265 CURVE SMOOTH",
"627 -1 LINE",
"651 -5 OFFCURVE",
"675 -6 OFFCURVE",
"700 -6 CURVE SMOOTH",
"727 -6 OFFCURVE",
"761 -4 OFFCURVE",
"785 2 CURVE",
"732 682 LINE",
"697 688 OFFCURVE",
"650 690 OFFCURVE",
"619 690 CURVE SMOOTH",
"588 690 OFFCURVE",
"548 688 OFFCURVE",
"513 682 CURVE",
"459 447 LINE SMOOTH",
"454 424 OFFCURVE",
"431 316 OFFCURVE",
"422 262 CURVE",
"415 262 LINE",
"406 316 OFFCURVE",
"383 424 OFFCURVE",
"378 447 CURVE SMOOTH",
"324 682 LINE",
"289 688 OFFCURVE",
"249 690 OFFCURVE",
"218 690 CURVE SMOOTH",
"187 690 OFFCURVE",
"140 688 OFFCURVE",
"105 682 CURVE"
);
}
);
width = 837;
},
{
anchors = (
{
name = bottom_U;
position = "{396.2, -20}";
},
{
name = top_U;
position = "{396.2, 732}";
}
);
layerId = "59A137EB-1A44-4616-9625-4B79FA594CBD";
paths = (
{
closed = 1;
nodes = (
"84.3 1.05 LINE",
"94.05 -2.1 OFFCURVE",
"109.05 -4.1 OFFCURVE",
"121.8 -4.1 CURVE SMOOTH",
"134.45 -4.1 OFFCURVE",
"147.05 -3.1 OFFCURVE",
"158.7 -1 CURVE",
"186.95 413.2 LINE SMOOTH",
"190 458.65 OFFCURVE",
"192.1 545.1 OFFCURVE",
"194.95 601.6 CURVE",
"200.05 601.6 LINE",
"358.6 106.65 LINE",
"369.35 104.55 OFFCURVE",
"382.75 103.5 OFFCURVE",
"396.15 103.5 CURVE SMOOTH",
"408.7 103.5 OFFCURVE",
"423 104.55 OFFCURVE",
"434.7 106.65 CURVE",
"593.25 601.6 LINE",
"598.35 601.6 LINE",
"600.25 545.1 OFFCURVE",
"603.3 458.65 OFFCURVE",
"606.35 413.2 CURVE SMOOTH",
"634.6 -1 LINE",
"646.25 -3.1 OFFCURVE",
"656.95 -4.1 OFFCURVE",
"669.6 -4.1 CURVE SMOOTH",
"682.35 -4.1 OFFCURVE",
"698.3 -2.1 OFFCURVE",
"709 1.05 CURVE",
"656 682.95 LINE",
"635.25 686.1 OFFCURVE",
"613.9 686.2 OFFCURVE",
"603.8 686.2 CURVE SMOOTH",
"592.75 686.2 OFFCURVE",
"575.55 686.1 OFFCURVE",
"554.8 682.95 CURVE",
"440 332.05 LINE SMOOTH",
"428.35 297.65 OFFCURVE",
"401.55 201.05 OFFCURVE",
"399.2 186 CURVE",
"394.1 186 LINE",
"391.75 201.05 OFFCURVE",
"364.95 297.65 OFFCURVE",
"353.3 332.05 CURVE SMOOTH",
"238.5 682.95 LINE",
"220.6 686.1 OFFCURVE",
"200.55 686.2 OFFCURVE",
"189.5 686.2 CURVE SMOOTH",
"179.4 686.2 OFFCURVE",
"156.15 686.1 OFFCURVE",
"137.3 682.95 CURVE"
);
}
);
width = 793.3;
},
{
anchors = (
{
name = bottom_U;
position = "{389, -20}";
},
{
name = top_U;
position = "{389, 732}";
}
);
layerId = "9ED2045D-B62B-46E9-A722-9499BEB4CDB9";
paths = (
{
closed = 1;
nodes = (
"97 1 LINE",
"102 -1 OFFCURVE",
"110 -3 OFFCURVE",
"117 -3 CURVE SMOOTH",
"125 -3 OFFCURVE",
"134 -2 OFFCURVE",
"141 -1 CURVE",
"174 468 LINE SMOOTH",
"177 503 OFFCURVE",
"178 587 OFFCURVE",
"182 640 CURVE",
"187 640 LINE",
"369 109 LINE",
"375 108 OFFCURVE",
"378 107 OFFCURVE",
"389 107 CURVE SMOOTH",
"398 107 OFFCURVE",
"403 108 OFFCURVE",
"410 109 CURVE",
"592 640 LINE",
"597 640 LINE",
"599 587 OFFCURVE",
"602 503 OFFCURVE",
"605 468 CURVE SMOOTH",
"638 -1 LINE",
"645 -2 OFFCURVE",
"651 -3 OFFCURVE",
"659 -3 CURVE SMOOTH",
"667 -3 OFFCURVE",
"676 -1 OFFCURVE",
"682 1 CURVE",
"629 683 LINE",
"613 685 OFFCURVE",
"602 685 OFFCURVE",
"599 685 CURVE SMOOTH",
"596 685 OFFCURVE",
"587 685 OFFCURVE",
"571 683 CURVE",
"434 289 LINE SMOOTH",
"420 251 OFFCURVE",
"392 158 OFFCURVE",
"392 158 CURVE",
"387 158 LINE",
"387 158 OFFCURVE",
"359 251 OFFCURVE",
"345 289 CURVE SMOOTH",
"208 683 LINE",
"196 685 OFFCURVE",
"184 685 OFFCURVE",
"180 685 CURVE SMOOTH",
"178 685 OFFCURVE",
"163 685 OFFCURVE",
"150 683 CURVE"
);
}
);
width = 793;
}
);
unicode = 004D;
},
{
glyphname = N;
lastChange = "2018-10-19 19:05:17 +0000";
layers = (
{
anchors = (
{
name = bottom_U;
position = "{343, -20}";
},
{
name = top_U;
position = "{353, 732}";
}
);
layerId = UUID1;
paths = (
{
closed = 1;
nodes = (
"74 0 LINE",
"100 -5 OFFCURVE",
"134 -6 OFFCURVE",
"154 -6 CURVE SMOOTH",
"175 -6 OFFCURVE",
"203 -5 OFFCURVE",
"230 0 CURVE",
"230 183 LINE SMOOTH",
"230 267 OFFCURVE",
"225 402 OFFCURVE",
"217 489 CURVE",
"228 493 LINE",
"270 683 LINE",
"233 688 OFFCURVE",
"194 689 OFFCURVE",
"173 689 CURVE SMOOTH",
"152 689 OFFCURVE",
"100 686 OFFCURVE",
"74 680 CURVE"
);
},
{
closed = 1;
nodes = (
"426 0 LINE",
"624 23 LINE",
"478 182 LINE",
"464 218 OFFCURVE",
"441 275 OFFCURVE",
"416 335 CURVE SMOOTH",
"270 683 LINE",
"74 660 LINE",
"221 491 LINE",
"234 453 OFFCURVE",
"254 401 OFFCURVE",
"276 349 CURVE SMOOTH"
);
},
{
closed = 1;
nodes = (
"617 690 LINE",
"563 690 LINE SMOOTH",
"499 690 OFFCURVE",
"469 664 OFFCURVE",
"469 589 CURVE SMOOTH",
"469 485 LINE SMOOTH",
"469 416 OFFCURVE",
"473 279 OFFCURVE",
"482 184 CURVE",
"470 180 LINE",
"426 0 LINE",
"463 -5 OFFCURVE",
"502 -6 OFFCURVE",
"523 -6 CURVE SMOOTH",
"544 -6 OFFCURVE",
"597 -3 OFFCURVE",
"624 3 CURVE",
"624 683 LINE"
);
}
);
width = 698;
},
{
anchors = (
{
name = bottom_U;
position = "{332.55, -20}";
},
{
name = top_U;
position = "{337.8, 732}";
}
);
layerId = "59A137EB-1A44-4616-9625-4B79FA594CBD";
paths = (
{
closed = 1;
nodes = (
"98.7 0 LINE",
"111.4 -2.15 OFFCURVE",
"123.55 -3.15 OFFCURVE",
"134.05 -3.15 CURVE SMOOTH",
"144.6 -3.15 OFFCURVE",
"156.45 -2.15 OFFCURVE",
"170.15 0 CURVE",
"170.15 374.9 LINE SMOOTH",
"170.15 444.65 OFFCURVE",
"166.1 529.3 OFFCURVE",
"163.8 590.65 CURVE",
"171 590.85 LINE",
"192.1 683 LINE",
"178.85 685.15 OFFCURVE",
"155.05 686.15 OFFCURVE",
"144.5 686.15 CURVE SMOOTH",
"135.85 686.15 OFFCURVE",
"111.4 685.05 OFFCURVE",
"98.7 682.85 CURVE"
);
},
{
closed = 1;
nodes = (
"478.25 0 LINE",
"572.7 20.15 LINE",
"504.6 88.9 LINE",
"483 132.5 OFFCURVE",
"460.95 180.95 OFFCURVE",
"435 229.55 CURVE SMOOTH",
"192.1 683 LINE",
"98.7 672.35 LINE",
"166.85 590.75 LINE",
"188.4 546.1 OFFCURVE",
"209.35 501.7 OFFCURVE",
"235.15 453.5 CURVE SMOOTH"
);
},
{
closed = 1;
nodes = (
"566.65 686.2 LINE",
"541.15 686.2 LINE SMOOTH",
"507.55 686.2 OFFCURVE",
"501.3 669.7 OFFCURVE",
"501.3 636.5 CURVE SMOOTH",
"501.3 316.85 LINE SMOOTH",
"501.3 247.85 OFFCURVE",
"504.35 162.15 OFFCURVE",
"507.65 89 CURVE",
"500.4 88.8 LINE",
"478.25 0 LINE",
"491.5 -2.15 OFFCURVE",
"516.25 -3.15 OFFCURVE",
"525.85 -3.15 CURVE SMOOTH",
"535.45 -3.15 OFFCURVE",
"559.95 -2.05 OFFCURVE",
"572.7 0.15 CURVE",
"572.7 681.1 LINE"
);
}
);
width = 671.4;
},
{
anchors = (
{
name = bottom_U;
position = "{330, -20}";
},
{
name = top_U;
position = "{333, 732}";
}
);
layerId = "9ED2045D-B62B-46E9-A722-9499BEB4CDB9";
paths = (
{
closed = 1;
nodes = (
"109 0 LINE",
"117 -1 OFFCURVE",
"121 -2 OFFCURVE",
"128 -2 CURVE SMOOTH",
"134 -2 OFFCURVE",
"140 -1 OFFCURVE",
"149 0 CURVE",
"149 446 LINE SMOOTH",
"149 510 OFFCURVE",
"145 576 OFFCURVE",
"145 628 CURVE",
"151 627 LINE",
"164 683 LINE",
"160 684 OFFCURVE",
"142 685 OFFCURVE",
"135 685 CURVE SMOOTH",
"131 685 OFFCURVE",
"117 685 OFFCURVE",
"109 684 CURVE"
);
},
{
closed = 1;
nodes = (
"499 0 LINE",
"555 19 LINE",
"515 54 LINE",
"491 101 OFFCURVE",
"469 146 OFFCURVE",
"443 190 CURVE SMOOTH",
"164 683 LINE",
"109 677 LINE",
"148 628 LINE",
"173 581 OFFCURVE",
"194 539 OFFCURVE",
"221 492 CURVE SMOOTH"
);
},
{
closed = 1;
nodes = (
"549 685 LINE",
"534 685 LINE SMOOTH",
"512 685 OFFCURVE",
"514 672 OFFCURVE",
"514 654 CURVE SMOOTH",
"514 255 LINE SMOOTH",
"514 186 OFFCURVE",
"517 119 OFFCURVE",
"518 54 CURVE",
"513 55 LINE",
"499 0 LINE",
"503 -1 OFFCURVE",
"523 -2 OFFCURVE",
"528 -2 CURVE SMOOTH",
"533 -2 OFFCURVE",
"547 -2 OFFCURVE",
"555 -1 CURVE",
"555 680 LINE"
);
}
);
width = 671;
}
);
unicode = 004E;
},
{
glyphname = O;
lastChange = "2018-10-19 19:05:17 +0000";
layers = (
{
anchors = (
{
name = bottom_U;
position = "{334, -20}";
},
{
name = top_U;
position = "{334, 732}";
}
);
layerId = UUID1;
paths = (
{
closed = 1;
nodes = (
"209 445 OFFCURVE",
"222 570 OFFCURVE",
"334 570 CURVE SMOOTH",
"446 570 OFFCURVE",
"459 445 OFFCURVE",
"459 342 CURVE SMOOTH",
"459 239 OFFCURVE",
"446 113 OFFCURVE",
"334 113 CURVE SMOOTH",
"222 113 OFFCURVE",
"209 239 OFFCURVE",
"209 342 CURVE SMOOTH"
);
},
{
closed = 1;
nodes = (
"34 238 OFFCURVE",
"57 118 OFFCURVE",
"141 48 CURVE SMOOTH",
"187 11 OFFCURVE",
"243 -15 OFFCURVE",
"334 -15 CURVE SMOOTH",
"426 -15 OFFCURVE",
"481 11 OFFCURVE",
"527 48 CURVE SMOOTH",
"611 118 OFFCURVE",
"634 238 OFFCURVE",
"634 342 CURVE SMOOTH",
"634 447 OFFCURVE",
"611 565 OFFCURVE",
"527 635 CURVE SMOOTH",
"481 672 OFFCURVE",
"426 698 OFFCURVE",
"334 698 CURVE SMOOTH",
"243 698 OFFCURVE",
"187 672 OFFCURVE",
"141 635 CURVE SMOOTH",
"57 565 OFFCURVE",
"34 447 OFFCURVE",
"34 342 CURVE SMOOTH"
);
}
);
width = 668;
},
{
anchors = (
{
name = bottom_U;
position = "{326.4, -20}";
},
{
name = top_U;
position = "{326.4, 732}";
}
);
layerId = "59A137EB-1A44-4616-9625-4B79FA594CBD";
paths = (
{
closed = 1;
nodes = (
"137.75 471.6 OFFCURVE",
"173.55 630.8 OFFCURVE",
"326.4 630.8 CURVE SMOOTH",
"479.25 630.8 OFFCURVE",
"514.1 471.6 OFFCURVE",
"514.1 342 CURVE SMOOTH",
"514.1 212.4 OFFCURVE",
"479.25 52.2 OFFCURVE",
"326.4 52.2 CURVE SMOOTH",
"173.55 52.2 OFFCURVE",
"137.75 212.4 OFFCURVE",
"137.75 342 CURVE SMOOTH"
);
},
{
closed = 1;
nodes = (
"56.8 230.4 OFFCURVE",
"86.45 114.2 OFFCURVE",
"162.85 46.1 CURVE SMOOTH",
"202.2 11 OFFCURVE",
"251.55 -12.15 OFFCURVE",
"326.4 -12.15 CURVE SMOOTH",
"401.3 -12.15 OFFCURVE",
"450.6 11 OFFCURVE",
"489.95 46.1 CURVE SMOOTH",
"566.35 114.2 OFFCURVE",
"596 230.4 OFFCURVE",
"596 342 CURVE SMOOTH",
"596 451.75 OFFCURVE",
"566.35 568.8 OFFCURVE",
"489.95 636.9 CURVE SMOOTH",
"450.6 672 OFFCURVE",
"401.3 695.15 OFFCURVE",
"326.4 695.15 CURVE SMOOTH",
"251.55 695.15 OFFCURVE",
"202.2 672 OFFCURVE",
"162.85 636.9 CURVE SMOOTH",
"86.45 568.8 OFFCURVE",
"56.8 451.75 OFFCURVE",
"56.8 342 CURVE SMOOTH"
);
}
);
width = 652.8;
},
{
anchors = (
{
name = bottom_U;
position = "{323.584, -20}";
},
{
name = top_U;
position = "{323.584, 732}";
}
);
layerId = "9ED2045D-B62B-46E9-A722-9499BEB4CDB9";
paths = (
{
closed = 1;
nodes = (
"111.354 481.454 OFFCURVE",
"155.601 653.324 OFFCURVE",
"323.584 653.324 CURVE SMOOTH",
"491.568 653.324 OFFCURVE",
"534.513 481.454 OFFCURVE",
"534.513 342 CURVE SMOOTH",
"534.513 202.546 OFFCURVE",
"491.568 29.676 OFFCURVE",
"323.584 29.676 CURVE SMOOTH",
"155.601 29.676 OFFCURVE",
"111.354 202.546 OFFCURVE",
"111.354 342 CURVE SMOOTH"
);
},
{
closed = 1;
nodes = (
"65.247 227.584 OFFCURVE",
"97.36 112.792 OFFCURVE",
"170.945 45.396 CURVE SMOOTH",
"207.831 11 OFFCURVE",
"254.718 -11.094 OFFCURVE",
"323.584 -11.094 CURVE SMOOTH",
"392.149 -11.094 OFFCURVE",
"439.338 11 OFFCURVE",
"476.224 45.396 CURVE SMOOTH",
"549.809 112.792 OFFCURVE",
"581.922 227.584 OFFCURVE",
"581.922 342 CURVE SMOOTH",
"581.922 453.51 OFFCURVE",
"549.809 570.208 OFFCURVE",
"476.224 637.604 CURVE SMOOTH",
"439.338 672 OFFCURVE",
"392.149 694.094 OFFCURVE",
"323.584 694.094 CURVE SMOOTH",
"254.718 694.094 OFFCURVE",
"207.831 672 OFFCURVE",
"170.945 637.604 CURVE SMOOTH",
"97.36 570.208 OFFCURVE",
"65.247 453.51 OFFCURVE",
"65.247 342 CURVE SMOOTH"
);
}
);
width = 653;
}
);
leftKerningGroup = C;
rightKerningGroup = O;
unicode = 004F;
},
{
glyphname = P;
lastChange = "2018-10-19 19:05:17 +0000";
layers = (
{
anchors = (
{
name = bottom_U;
position = "{158, -20}";
},
{
name = top_U;
position = "{301, 732}";
}
);
layerId = UUID1;
paths = (
{
closed = 1;
nodes = (
"564 613 OFFCURVE",
"460 689 OFFCURVE",
"317 689 CURVE SMOOTH",
"240 689 OFFCURVE",
"168 687 OFFCURVE",
"81 685 CURVE",
"74 678 LINE",
"74 0 LINE",
"101 -5 OFFCURVE",
"138 -6 OFFCURVE",
"158 -6 CURVE SMOOTH",
"180 -6 OFFCURVE",
"214 -5 OFFCURVE",
"242 0 CURVE",
"242 562 LINE",
"268 561 OFFCURVE",
"283 561 OFFCURVE",
"302 561 CURVE SMOOTH",
"379 561 OFFCURVE",
"393 494 OFFCURVE",
"393 449 CURVE SMOOTH",
"393 403 OFFCURVE",
"379 337 OFFCURVE",
"302 337 CURVE SMOOTH",
"283 337 OFFCURVE",
"197 334 OFFCURVE",
"171 332 CURVE",
"171 210 LINE",
"317 210 LINE",
"460 210 OFFCURVE",
"564 291 OFFCURVE",
"564 449 CURVE SMOOTH"
);
}
);
width = 592;
},
{
anchors = (
{
name = bottom_U;
position = "{136.15, -20}";
},
{
name = top_U;
position = "{288.65, 732}";
}
);
layerId = "59A137EB-1A44-4616-9625-4B79FA594CBD";
paths = (
{
closed = 1;
nodes = (
"516.5 613.95 OFFCURVE",
"423.9 686.15 OFFCURVE",
"296.1 686.15 CURVE SMOOTH",
"232.4 686.15 OFFCURVE",
"174.65 684.15 OFFCURVE",
"104.75 683.1 CURVE",
"98.7 677.05 LINE",
"98.7 0 LINE",
"108.6 -2.15 OFFCURVE",
"122.8 -3.15 OFFCURVE",
"136.15 -3.15 CURVE SMOOTH",
"150.55 -3.15 OFFCURVE",
"164.6 -2.15 OFFCURVE",
"175.5 0 CURVE",
"175.5 622.8 LINE",
"211.95 621.8 OFFCURVE",
"264.95 621.8 OFFCURVE",
"298.2 621.8 CURVE SMOOTH",
"408.45 621.8 OFFCURVE",
"434.8 540.55 OFFCURVE",
"434.8 471.8 CURVE SMOOTH",
"434.8 404.9 OFFCURVE",
"408.45 320.85 OFFCURVE",
"298.2 320.85 CURVE SMOOTH",
"264.95 320.85 OFFCURVE",
"179.9 320.7 OFFCURVE",
"143.45 319.65 CURVE",
"143.45 256.55 LINE",
"296.1 256.55 LINE",
"425.8 256.55 OFFCURVE",
"516.5 330.9 OFFCURVE",
"516.5 471.8 CURVE SMOOTH"
);
}
);
width = 555.9;
},
{
anchors = (
{
name = bottom_U;
position = "{130, -20}";
},
{
name = top_U;
position = "{286, 732}";
}
);
layerId = "9ED2045D-B62B-46E9-A722-9499BEB4CDB9";
paths = (
{
closed = 1;
nodes = (
"501 614 OFFCURVE",
"413 685 OFFCURVE",
"290 685 CURVE SMOOTH",
"232 685 OFFCURVE",
"179 683 OFFCURVE",
"116 682 CURVE",
"110 677 LINE",
"110 0 LINE",
"113 -1 OFFCURVE",
"119 -2 OFFCURVE",
"130 -2 CURVE SMOOTH",
"142 -2 OFFCURVE",
"148 -1 OFFCURVE",
"153 0 CURVE",
"153 645 LINE",
"193 644 OFFCURVE",
"260 644 OFFCURVE",
"299 644 CURVE SMOOTH",
"421 644 OFFCURVE",
"452 558 OFFCURVE",
"452 480 CURVE SMOOTH",
"452 406 OFFCURVE",
"421 315 OFFCURVE",
"299 315 CURVE SMOOTH",
"260 315 OFFCURVE",
"176 316 OFFCURVE",
"135 315 CURVE",
"135 274 LINE",
"290 274 LINE",
"415 274 OFFCURVE",
"501 346 OFFCURVE",
"501 480 CURVE SMOOTH"
);
}
);
width = 556;
}
);
unicode = 0050;
},
{
glyphname = Q;
lastChange = "2018-10-19 19:05:17 +0000";
layers = (
{
anchors = (
{
name = bottom_U;
position = "{282, -18}";
},
{
name = top_U;
position = "{336, 732}";
}
);
layerId = UUID1;
paths = (
{
closed = 1;
nodes = (
"206 446 OFFCURVE",
"223 570 OFFCURVE",
"336 570 CURVE SMOOTH",
"449 570 OFFCURVE",
"465 446 OFFCURVE",
"465 342 CURVE SMOOTH",
"465 239 OFFCURVE",
"449 113 OFFCURVE",
"336 113 CURVE SMOOTH",
"223 113 OFFCURVE",
"206 239 OFFCURVE",
"206 342 CURVE SMOOTH"
);
},
{
closed = 1;
nodes = (
"34 238 OFFCURVE",
"59 119 OFFCURVE",
"143 48 CURVE SMOOTH",
"189 11 OFFCURVE",
"244 -15 OFFCURVE",
"335 -15 CURVE SMOOTH",
"369 -15 OFFCURVE",
"399 2 OFFCURVE",
"424 22 CURVE SMOOTH",
"476 22 OFFCURVE",
"523 38 OFFCURVE",
"562 84 CURVE SMOOTH",
"623 153 OFFCURVE",
"638 250 OFFCURVE",
"638 341 CURVE SMOOTH",
"638 447 OFFCURVE",
"612 565 OFFCURVE",
"529 635 CURVE SMOOTH",
"484 673 OFFCURVE",
"428 698 OFFCURVE",
"336 698 CURVE SMOOTH",
"245 698 OFFCURVE",
"188 673 OFFCURVE",
"143 635 CURVE SMOOTH",
"59 565 OFFCURVE",
"34 447 OFFCURVE",
"34 342 CURVE SMOOTH"
);
},
{
closed = 1;
nodes = (
"433 -105 LINE",
"461 -130 OFFCURVE",
"495 -147 OFFCURVE",
"544 -147 CURVE SMOOTH",
"600 -147 OFFCURVE",
"648 -101 OFFCURVE",
"649 -28 CURVE",
"607 -28 OFFCURVE",
"574 -18 OFFCURVE",
"523 18 CURVE SMOOTH",
"426 87 LINE",
"276 36 LINE"
);
}
);
width = 672;
},
{
anchors = (
{
name = bottom_U;
position = "{318.1, -19.9}";
},
{
name = top_U;
position = "{320.8, 732}";
}
);
layerId = "59A137EB-1A44-4616-9625-4B79FA594CBD";
paths = (
{
closed = 1;
nodes = (
"137.6 473.55 OFFCURVE",
"167.9 630.8 OFFCURVE",
"320.8 630.8 CURVE SMOOTH",
"473.7 630.8 OFFCURVE",
"503 473.55 OFFCURVE",
"503 342 CURVE SMOOTH",
"503 210.5 OFFCURVE",
"473.7 55.05 OFFCURVE",
"320.8 55.05 CURVE SMOOTH",
"167.9 55.05 OFFCURVE",
"137.6 210.5 OFFCURVE",
"137.6 342 CURVE SMOOTH"
);
},
{
closed = 1;
nodes = (
"56.8 233.25 OFFCURVE",
"81.8 112.35 OFFCURVE",
"158.2 44.2 CURVE SMOOTH",
"197.55 9.1 OFFCURVE",
"251.6 -12.15 OFFCURVE",
"326.45 -12.15 CURVE SMOOTH",
"358.55 -12.15 OFFCURVE",
"367.65 -3.7 OFFCURVE",
"385.05 4.9 CURVE SMOOTH",
"420.9 5.85 OFFCURVE",
"454.6 20.9 OFFCURVE",
"486.95 50.75 CURVE SMOOTH",
"562.2 118.8 OFFCURVE",
"584.8 233.85 OFFCURVE",
"584.8 341.95 CURVE SMOOTH",
"584.8 448.9 OFFCURVE",
"559.75 570.7 OFFCURVE",
"483.4 638.8 CURVE SMOOTH",
"444.1 673.95 OFFCURVE",
"395.7 695.15 OFFCURVE",
"320.8 695.15 CURVE SMOOTH",
"245.95 695.15 OFFCURVE",
"197.5 673.95 OFFCURVE",
"158.2 638.8 CURVE SMOOTH",
"81.8 570.7 OFFCURVE",
"56.8 448.9 OFFCURVE",
"56.8 342 CURVE SMOOTH"
);
},
{
closed = 1;
nodes = (
"462.45 -98.35 LINE",
"480.95 -111 OFFCURVE",
"498.8 -118.5 OFFCURVE",
"523.1 -118.5 CURVE SMOOTH",
"547.75 -118.5 OFFCURVE",
"575.8 -102.9 OFFCURVE",
"578.7 -61.25 CURVE",
"547.15 -60.3 OFFCURVE",
"520.8 -50.3 OFFCURVE",
"451.75 -1 CURVE SMOOTH",
"392.75 41.4 LINE",
"304.5 14.15 LINE"
);
}
);
width = 641.6;
},
{
anchors = (
{
name = bottom_U;
position = "{331.474, -20.604}";
},
{
name = top_U;
position = "{315.169, 732}";
}
);
layerId = "9ED2045D-B62B-46E9-A722-9499BEB4CDB9";
paths = (
{
closed = 1;
nodes = (
"112.26 483.756 OFFCURVE",
"147.487 653.324 OFFCURVE",
"315.169 653.324 CURVE SMOOTH",
"482.851 653.324 OFFCURVE",
"517.078 483.756 OFFCURVE",
"517.078 342 CURVE SMOOTH",
"517.078 199.942 OFFCURVE",
"482.851 33.581 OFFCURVE",
"315.169 33.581 CURVE SMOOTH",
"147.487 33.581 OFFCURVE",
"112.26 199.942 OFFCURVE",
"112.26 342 CURVE SMOOTH"
);
},
{
closed = 1;
nodes = (
"65.247 231.49 OFFCURVE",
"90.247 109.886 OFFCURVE",
"163.831 42.792 CURVE SMOOTH",
"200.717 8.396 OFFCURVE",
"254.416 -11.094 OFFCURVE",
"323.283 -11.094 CURVE SMOOTH",
"354.679 -11.094 OFFCURVE",
"356.036 -5.812 OFFCURVE",
"370.62 -1.435 CURVE SMOOTH",
"400.487 -0.133 OFFCURVE",
"429.26 14.565 OFFCURVE",
"459.146 38.432 CURVE SMOOTH",
"539.676 106.13 OFFCURVE",
"565.091 227.867 OFFCURVE",
"565.091 342.302 CURVE SMOOTH",
"565.091 449.604 OFFCURVE",
"540.393 572.812 OFFCURVE",
"466.507 640.208 CURVE SMOOTH",
"429.318 674.302 OFFCURVE",
"383.734 694.094 OFFCURVE",
"315.169 694.094 CURVE SMOOTH",
"246.302 694.094 OFFCURVE",
"201.019 674.302 OFFCURVE",
"163.831 640.208 CURVE SMOOTH",
"90.247 572.812 OFFCURVE",
"65.247 449.604 OFFCURVE",
"65.247 342 CURVE SMOOTH"
);
},
{
closed = 1;
nodes = (
"473.36 -95.886 LINE",
"488.341 -103.961 OFFCURVE",
"500.208 -107.942 OFFCURVE",
"515.357 -107.942 CURVE SMOOTH",
"528.393 -107.942 OFFCURVE",
"549.052 -103.604 OFFCURVE",
"552.656 -73.568 CURVE",
"524.977 -72.266 OFFCURVE",
"501.091 -62.266 OFFCURVE",
"425.354 -8.039 CURVE SMOOTH",
"380.432 24.507 LINE",
"315.058 6.055 LINE"
);
}
);
width = 642;
}
);
leftKerningGroup = C;
rightKerningGroup = O;
unicode = 0051;
},
{
glyphname = R;
lastChange = "2018-10-19 19:05:17 +0000";
layers = (
{
anchors = (
{
name = bottom_U;
position = "{327, -20}";
},
{
name = top_U;
position = "{305, 732}";
}
);
layerId = UUID1;
paths = (
{
closed = 1;
nodes = (
"570 624 OFFCURVE",
"463 689 OFFCURVE",
"324 689 CURVE SMOOTH",
"247 689 OFFCURVE",
"168 687 OFFCURVE",
"81 685 CURVE",
"74 678 LINE",
"74 0 LINE",
"101 -5 OFFCURVE",
"137 -6 OFFCURVE",
"157 -6 CURVE SMOOTH",
"179 -6 OFFCURVE",
"212 -5 OFFCURVE",
"240 0 CURVE",
"240 564 LINE",
"268 563 OFFCURVE",
"290 563 OFFCURVE",
"309 563 CURVE SMOOTH",
"382 563 OFFCURVE",
"399 521 OFFCURVE",
"399 470 CURVE SMOOTH",
"399 421 OFFCURVE",
"382 377 OFFCURVE",
"309 377 CURVE SMOOTH",
"290 377 OFFCURVE",
"210 374 OFFCURVE",
"172 372 CURVE",
"172 247 LINE",
"276 247 LINE SMOOTH",
"328 247 OFFCURVE",
"347 220 OFFCURVE",
"358 187 CURVE SMOOTH",
"392 87 LINE SMOOTH",
"414 23 OFFCURVE",
"434 -9 OFFCURVE",
"494 -9 CURVE SMOOTH",
"539 -9 OFFCURVE",
"584 12 OFFCURVE",
"605 40 CURVE",
"583 57 OFFCURVE",
"565 84 OFFCURVE",
"555 114 CURVE SMOOTH",
"527 194 LINE SMOOTH",
"512 238 OFFCURVE",
"487 273 OFFCURVE",
"449 287 CURVE",
"504 309 OFFCURVE",
"570 373 OFFCURVE",
"570 470 CURVE SMOOTH"
);
}
);
width = 617;
},
{
anchors = (
{
name = bottom_U;
position = "{304.2, -20}";
},
{
name = top_U;
position = "{295.5, 732}";
}
);
layerId = "59A137EB-1A44-4616-9625-4B79FA594CBD";
paths = (
{
closed = 1;
nodes = (
"524.4 610.7 OFFCURVE",
"445.9 686.15 OFFCURVE",
"306.9 686.15 CURVE SMOOTH",
"243.2 686.15 OFFCURVE",
"174.65 684.15 OFFCURVE",
"104.75 683.1 CURVE",
"98.7 677.05 LINE",
"98.7 0 LINE",
"108.6 -2.15 OFFCURVE",
"122.75 -3.15 OFFCURVE",
"136.1 -3.15 CURVE SMOOTH",
"150.5 -3.15 OFFCURVE",
"164.5 -2.15 OFFCURVE",
"175.4 0 CURVE",
"175.4 622.9 LINE",
"211.95 621.9 OFFCURVE",
"272.9 621.9 OFFCURVE",
"306.15 621.9 CURVE SMOOTH",
"416.2 621.9 OFFCURVE",
"443.65 553.3 OFFCURVE",
"443.65 488.05 CURVE SMOOTH",
"443.65 424.8 OFFCURVE",
"416.2 354.2 OFFCURVE",
"306.15 354.2 CURVE SMOOTH",
"257.7 354.2 OFFCURVE",
"190.05 353.1 OFFCURVE",
"143.5 351.1 CURVE",
"143.5 287.85 LINE",
"278.85 287.85 LINE SMOOTH",
"346.05 287.85 OFFCURVE",
"369.8 248.5 OFFCURVE",
"389.35 196.5 CURVE SMOOTH",
"447.1 44.25 LINE SMOOTH",
"459.6 11.6 OFFCURVE",
"471.05 -6.15 OFFCURVE",
"501.6 -6.15 CURVE SMOOTH",
"519.05 -6.15 OFFCURVE",
"544.1 1.55 OFFCURVE",
"554.65 19.1 CURVE",
"531.7 37.05 OFFCURVE",
"522.25 65 OFFCURVE",
"512.25 90.25 CURVE SMOOTH",
"460.5 225.35 LINE SMOOTH",
"446.45 261.75 OFFCURVE",
"423.35 295.8 OFFCURVE",
"392.95 306 CURVE",
"473.6 329.9 OFFCURVE",
"524.4 397.7 OFFCURVE",
"524.4 488.05 CURVE SMOOTH"
);
}
);
width = 592.3;
},
{
anchors = (
{
name = bottom_U;
position = "{297, -20}";
},
{
name = top_U;
position = "{293, 732}";
}
);
layerId = "9ED2045D-B62B-46E9-A722-9499BEB4CDB9";
paths = (
{
closed = 1;
nodes = (
"509 606 OFFCURVE",
"441 685 OFFCURVE",
"302 685 CURVE SMOOTH",
"243 685 OFFCURVE",
"178 683 OFFCURVE",
"115 682 CURVE",
"109 677 LINE",
"109 0 LINE",
"112 -1 OFFCURVE",
"118 -2 OFFCURVE",
"129 -2 CURVE SMOOTH",
"141 -2 OFFCURVE",
"148 -1 OFFCURVE",
"152 0 CURVE",
"152 645 LINE",
"192 644 OFFCURVE",
"268 644 OFFCURVE",
"306 644 CURVE SMOOTH",
"430 644 OFFCURVE",
"461 565 OFFCURVE",
"461 495 CURVE SMOOTH",
"461 426 OFFCURVE",
"430 346 OFFCURVE",
"306 346 CURVE SMOOTH",
"247 346 OFFCURVE",
"184 345 OFFCURVE",
"134 343 CURVE",
"134 303 LINE",
"281 303 LINE SMOOTH",
"354 303 OFFCURVE",
"379 259 OFFCURVE",
"402 200 CURVE SMOOTH",
"469 28 LINE SMOOTH",
"477 7 OFFCURVE",
"486 -5 OFFCURVE",
"505 -5 CURVE SMOOTH",
"513 -5 OFFCURVE",
"530 -2 OFFCURVE",
"537 11 CURVE",
"514 30 OFFCURVE",
"507 58 OFFCURVE",
"497 81 CURVE SMOOTH",
"437 237 LINE SMOOTH",
"423 271 OFFCURVE",
"401 304 OFFCURVE",
"373 313 CURVE",
"463 338 OFFCURVE",
"509 407 OFFCURVE",
"509 495 CURVE SMOOTH"
);
}
);
width = 592;
}
);
rightKerningGroup = R;
unicode = 0052;
},
{
glyphname = S;
lastChange = "2018-10-19 19:05:17 +0000";
layers = (
{
anchors = (
{
name = bottom_U;
position = "{270, -20}";
},
{
name = top_U;
position = "{285, 732}";
}
);
layerId = UUID1;
paths = (
{
closed = 1;
nodes = (
"88 11 OFFCURVE",
"187 -15 OFFCURVE",
"268 -15 CURVE SMOOTH",
"444 -15 OFFCURVE",
"533 79 OFFCURVE",
"533 201 CURVE SMOOTH",
"533 287 OFFCURVE",
"480 358 OFFCURVE",
"382 400 CURVE SMOOTH",
"261 451 LINE SMOOTH",
"218 469 OFFCURVE",
"206 487 OFFCURVE",
"206 510 CURVE SMOOTH",
"206 533 OFFCURVE",
"225 564 OFFCURVE",
"280 564 CURVE SMOOTH",
"334 564 OFFCURVE",
"411 539 OFFCURVE",
"462 515 CURVE",
"494 545 OFFCURVE",
"515 592 OFFCURVE",
"518 640 CURVE",
"466 667 OFFCURVE",
"376 698 OFFCURVE",
"280 698 CURVE SMOOTH",
"144 698 OFFCURVE",
"34 614 OFFCURVE",
"34 487 CURVE SMOOTH",
"34 390 OFFCURVE",
"96 337 OFFCURVE",
"178 301 CURVE SMOOTH",
"296 251 LINE SMOOTH",
"351 227 OFFCURVE",
"355 199 OFFCURVE",
"355 181 CURVE SMOOTH",
"355 152 OFFCURVE",
"335 119 OFFCURVE",
"280 119 CURVE SMOOTH",
"208 119 OFFCURVE",
"133 151 OFFCURVE",
"77 184 CURVE",
"45 156 OFFCURVE",
"17 106 OFFCURVE",
"13 59 CURVE"
);
}
);
width = 557;
},
{
anchors = (
{
name = bottom_U;
position = "{272.85, -20}";
},
{
name = top_U;
position = "{287.85, 732}";
}
);
layerId = "59A137EB-1A44-4616-9625-4B79FA594CBD";
paths = (
{
closed = 1;
nodes = (
"101.3 17.65 OFFCURVE",
"187 -12.15 OFFCURVE",
"270.85 -12.15 CURVE SMOOTH",
"430.7 -12.15 OFFCURVE",
"506.4 69.5 OFFCURVE",
"506.4 181.05 CURVE SMOOTH",
"506.4 272.75 OFFCURVE",
"436.3 327.6 OFFCURVE",
"357.3 362 CURVE SMOOTH",
"243.9 411.1 LINE SMOOTH",
"191.4 433.85 OFFCURVE",
"147.1 462.3 OFFCURVE",
"147.1 516.65 CURVE SMOOTH",
"147.1 583.35 OFFCURVE",
"205.05 629.55 OFFCURVE",
"288.55 629.55 CURVE SMOOTH",
"338.75 629.55 OFFCURVE",
"401.5 610.25 OFFCURVE",
"454.4 583.4 CURVE",
"472.15 598.2 OFFCURVE",
"484.6 624.3 OFFCURVE",
"484.75 646.65 CURVE",
"432.75 671.75 OFFCURVE",
"362.7 695.15 OFFCURVE",
"285.7 695.15 CURVE SMOOTH",
"152.55 695.15 OFFCURVE",
"69.15 610.2 OFFCURVE",
"69.15 509.8 CURVE SMOOTH",
"69.15 429.9 OFFCURVE",
"118.8 378.8 OFFCURVE",
"203.65 341.85 CURVE SMOOTH",
"320.7 290.9 LINE SMOOTH",
"380.45 265 OFFCURVE",
"428.15 225.6 OFFCURVE",
"427.2 164.85 CURVE SMOOTH",
"426.25 96.9 OFFCURVE",
"367.3 55.35 OFFCURVE",
"274.3 55.35 CURVE SMOOTH",
"207.05 55.35 OFFCURVE",
"133 83.55 OFFCURVE",
"74.15 124.15 CURVE",
"57.35 111.35 OFFCURVE",
"40.75 86.05 OFFCURVE",
"38.65 62.8 CURVE"
);
}
);
width = 555.1;
},
{
anchors = (
{
name = bottom_U;
position = "{273.906, -20}";
},
{
name = top_U;
position = "{288.906, 732}";
}
);
layerId = "9ED2045D-B62B-46E9-A722-9499BEB4CDB9";
paths = (
{
closed = 1;
nodes = (
"106.227 20.114 OFFCURVE",
"187 -11.094 OFFCURVE",
"271.906 -11.094 CURVE SMOOTH",
"425.773 -11.094 OFFCURVE",
"496.546 65.981 OFFCURVE",
"496.546 173.659 CURVE SMOOTH",
"496.546 267.471 OFFCURVE",
"420.111 316.338 OFFCURVE",
"348.149 347.922 CURVE SMOOTH",
"237.565 396.318 LINE SMOOTH",
"181.546 420.828 OFFCURVE",
"125.279 453.149 OFFCURVE",
"125.279 519.114 CURVE SMOOTH",
"125.279 602.003 OFFCURVE",
"197.659 653.834 OFFCURVE",
"291.717 653.834 CURVE SMOOTH",
"340.51 653.834 OFFCURVE",
"397.981 636.646 OFFCURVE",
"451.584 608.74 CURVE",
"464.055 617.909 OFFCURVE",
"473.338 636.266 OFFCURVE",
"472.432 649.114 CURVE",
"420.432 673.51 OFFCURVE",
"357.773 694.094 OFFCURVE",
"287.812 694.094 CURVE SMOOTH",
"155.717 694.094 OFFCURVE",
"82.172 608.792 OFFCURVE",
"82.172 518.247 CURVE SMOOTH",
"82.172 444.682 OFFCURVE",
"127.247 394.286 OFFCURVE",
"213.153 356.984 CURVE SMOOTH",
"329.851 305.682 LINE SMOOTH",
"391.36 279.078 OFFCURVE",
"455.25 235.454 OFFCURVE",
"453.948 158.867 CURVE SMOOTH",
"452.646 76.487 OFFCURVE",
"379.266 31.77 OFFCURVE",
"272.188 31.77 CURVE SMOOTH",
"206.698 31.77 OFFCURVE",
"133 58.562 OFFCURVE",
"73.094 101.977 CURVE",
"61.925 94.809 OFFCURVE",
"49.549 78.659 OFFCURVE",
"48.152 64.208 CURVE"
);
}
);
width = 555;
}
);
leftKerningGroup = S;
rightKerningGroup = S;
unicode = 0053;
},
{
glyphname = T;
lastChange = "2018-10-19 19:05:17 +0000";
layers = (
{
anchors = (
{
name = bottom_U;
position = "{257, -20}";
},
{
name = top_U;
position = "{257, 732}";
}
);
layerId = UUID1;
paths = (
{
closed = 1;
nodes = (
"109 544 LINE SMOOTH",
"124 544 OFFCURVE",
"158 545 OFFCURVE",
"173 545 CURVE SMOOTH",
"341 545 LINE SMOOTH",
"356 545 OFFCURVE",
"390 544 OFFCURVE",
"405 544 CURVE SMOOTH",
"429 544 LINE SMOOTH",
"489 544 OFFCURVE",
"516 564 OFFCURVE",
"516 619 CURVE SMOOTH",
"516 640 OFFCURVE",
"513 666 OFFCURVE",
"508 683 CURVE",
"8 683 LINE",
"3 658 OFFCURVE",
"2 632 OFFCURVE",
"2 613 CURVE SMOOTH",
"2 594 OFFCURVE",
"3 569 OFFCURVE",
"8 544 CURVE"
);
},
{
closed = 1;
nodes = (
"173 0 LINE",
"202 -5 OFFCURVE",
"234 -6 OFFCURVE",
"257 -6 CURVE SMOOTH",
"280 -6 OFFCURVE",
"312 -5 OFFCURVE",
"341 0 CURVE",
"341 471 LINE SMOOTH",
"341 498 OFFCURVE",
"340 517 OFFCURVE",
"340 545 CURVE SMOOTH",
"340 614 LINE",
"174 614 LINE",
"174 545 LINE SMOOTH",
"174 517 OFFCURVE",
"173 498 OFFCURVE",
"173 471 CURVE SMOOTH"
);
}
);
width = 512;
},
{
anchors = (
{
name = bottom_U;
position = "{241.8, -20}";
},
{
name = top_U;
position = "{240.85, 732}";
}
);
layerId = "59A137EB-1A44-4616-9625-4B79FA594CBD";
paths = (
{
closed = 1;
nodes = (
"148.9 617.15 LINE SMOOTH",
"162 617.15 OFFCURVE",
"190.3 618.15 OFFCURVE",
"203.4 618.15 CURVE SMOOTH",
"280.2 618.15 LINE SMOOTH",
"293.3 618.15 OFFCURVE",
"322.55 617.15 OFFCURVE",
"334.7 617.15 CURVE SMOOTH",
"420.45 617.15 LINE SMOOTH",
"451.95 617.15 OFFCURVE",
"466.6 626.7 OFFCURVE",
"466.6 651.3 CURVE SMOOTH",
"466.6 661.85 OFFCURVE",
"464.55 673.6 OFFCURVE",
"461.45 683 CURVE",
"21.3 683 LINE",
"19.15 671.3 OFFCURVE",
"18.15 660.5 OFFCURVE",
"18.15 650.05 CURVE SMOOTH",
"18.15 639.6 OFFCURVE",
"19.15 627.9 OFFCURVE",
"21.3 617.15 CURVE"
);
},
{
closed = 1;
nodes = (
"203.4 0 LINE",
"214.35 -2.15 OFFCURVE",
"229.25 -3.15 OFFCURVE",
"241.8 -3.15 CURVE SMOOTH",
"254.35 -3.15 OFFCURVE",
"269.25 -2.15 OFFCURVE",
"280.2 0 CURVE",
"280.2 544.15 LINE SMOOTH",
"280.2 571.15 OFFCURVE",
"280.15 590.15 OFFCURVE",
"280.15 618.15 CURVE SMOOTH",
"280.15 650.1 LINE",
"203.45 650.1 LINE",
"203.45 618.15 LINE SMOOTH",
"203.45 590.15 OFFCURVE",
"203.4 571.15 OFFCURVE",
"203.4 544.15 CURVE SMOOTH"
);
}
);
width = 482.55;
},
{
anchors = (
{
name = bottom_U;
position = "{236.169, -20}";
},
{
name = top_U;
position = "{234.867, 732}";
}
);
layerId = "9ED2045D-B62B-46E9-A722-9499BEB4CDB9";
paths = (
{
closed = 1;
nodes = (
"163.682 644.25 LINE SMOOTH",
"176.078 644.25 OFFCURVE",
"202.266 645.25 OFFCURVE",
"214.662 645.25 CURVE SMOOTH",
"257.676 645.25 LINE SMOOTH",
"270.072 645.25 OFFCURVE",
"297.562 644.25 OFFCURVE",
"308.656 644.25 CURVE SMOOTH",
"417.283 644.25 LINE SMOOTH",
"438.224 644.25 OFFCURVE",
"448.299 649.928 OFFCURVE",
"448.299 663.266 CURVE SMOOTH",
"448.299 669.945 OFFCURVE",
"446.601 676.416 OFFCURVE",
"444.205 683 CURVE",
"26.227 683 LINE",
"25.133 676.227 OFFCURVE",
"24.133 671.058 OFFCURVE",
"24.133 663.776 CURVE SMOOTH",
"24.133 656.493 OFFCURVE",
"25.133 649.721 OFFCURVE",
"26.227 644.25 CURVE"
);
},
{
closed = 1;
nodes = (
"214.662 0 LINE",
"218.925 -1.094 OFFCURVE",
"227.49 -2.094 OFFCURVE",
"236.169 -2.094 CURVE SMOOTH",
"244.848 -2.094 OFFCURVE",
"253.412 -1.094 OFFCURVE",
"257.676 0 CURVE",
"257.676 571.25 LINE SMOOTH",
"257.676 598.25 OFFCURVE",
"257.978 617.25 OFFCURVE",
"257.978 645.25 CURVE SMOOTH",
"257.978 663.474 LINE",
"214.36 663.474 LINE",
"214.36 645.25 LINE SMOOTH",
"214.36 617.25 OFFCURVE",
"214.662 598.25 OFFCURVE",
"214.662 571.25 CURVE SMOOTH"
);
}
);
width = 483;
}
);
leftKerningGroup = T;
rightKerningGroup = T;
unicode = 0054;
},
{
glyphname = U;
lastChange = "2018-10-19 19:05:17 +0000";
layers = (
{
anchors = (
{
name = bottom_U;
position = "{337, -20}";
},
{
name = top_U;
position = "{334, 732}";
}
);
layerId = UUID1;
paths = (
{
closed = 1;
nodes = (
"610 683 LINE",
"583 688 OFFCURVE",
"544 689 OFFCURVE",
"524 689 CURVE SMOOTH",
"502 689 OFFCURVE",
"470 688 OFFCURVE",
"442 683 CURVE",
"442 252 LINE",
"442 163 OFFCURVE",
"415 118 OFFCURVE",
"337 118 CURVE",
"259 118 OFFCURVE",
"232 163 OFFCURVE",
"232 252 CURVE SMOOTH",
"232 584 LINE SMOOTH",
"232 659 OFFCURVE",
"196 690 OFFCURVE",
"132 690 CURVE SMOOTH",
"71 690 LINE",
"64 683 LINE",
"64 254 LINE SMOOTH",
"64 84 OFFCURVE",
"161 -15 OFFCURVE",
"337 -15 CURVE",
"513 -15 OFFCURVE",
"610 84 OFFCURVE",
"610 254 CURVE"
);
}
);
width = 674;
},
{
anchors = (
{
name = bottom_U;
position = "{333.2, -20}";
},
{
name = top_U;
position = "{333.05, 732}";
}
);
layerId = "59A137EB-1A44-4616-9625-4B79FA594CBD";
paths = (
{
closed = 1;
nodes = (
"575.8 683 LINE",
"564.95 685.15 OFFCURVE",
"550.65 686.15 OFFCURVE",
"536.35 686.15 CURVE SMOOTH",
"522.9 686.15 OFFCURVE",
"508.95 685.15 OFFCURVE",
"499 683 CURVE",
"499 233.95 LINE",
"499 114.55 OFFCURVE",
"437.8 51.5 OFFCURVE",
"333.2 51.5 CURVE",
"228.6 51.5 OFFCURVE",
"167.4 114.55 OFFCURVE",
"167.4 233.95 CURVE SMOOTH",
"167.4 636.25 LINE SMOOTH",
"167.4 669.45 OFFCURVE",
"160.85 686.2 OFFCURVE",
"127.25 686.2 CURVE SMOOTH",
"96.65 686.2 LINE",
"90.6 680.15 LINE",
"90.6 233.1 LINE SMOOTH",
"90.6 69.75 OFFCURVE",
"191.4 -12.15 OFFCURVE",
"332.25 -12.15 CURVE",
"475 -12.15 OFFCURVE",
"575.8 69.75 OFFCURVE",
"575.8 233.1 CURVE"
);
}
);
width = 666.4;
},
{
anchors = (
{
name = bottom_U;
position = "{331.792, -20}";
},
{
name = top_U;
position = "{332.698, 732}";
}
);
layerId = "9ED2045D-B62B-46E9-A722-9499BEB4CDB9";
paths = (
{
closed = 1;
nodes = (
"563.13 683 LINE",
"558.263 684.094 OFFCURVE",
"553.114 685.094 OFFCURVE",
"540.925 685.094 CURVE SMOOTH",
"530.643 685.094 OFFCURVE",
"523.38 684.094 OFFCURVE",
"520.117 683 CURVE",
"520.117 227.263 LINE",
"520.117 96.601 OFFCURVE",
"446.247 26.864 OFFCURVE",
"331.792 26.864 CURVE",
"217.338 26.864 OFFCURVE",
"143.468 96.601 OFFCURVE",
"143.468 227.263 CURVE SMOOTH",
"143.468 655.607 LINE SMOOTH",
"143.468 673.321 OFFCURVE",
"147.828 684.792 OFFCURVE",
"125.49 684.792 CURVE SMOOTH",
"106.152 684.792 LINE",
"100.454 679.094 LINE",
"100.454 225.357 LINE SMOOTH",
"100.454 64.471 OFFCURVE",
"202.662 -11.094 OFFCURVE",
"330.49 -11.094 CURVE",
"460.922 -11.094 OFFCURVE",
"563.13 64.471 OFFCURVE",
"563.13 225.357 CURVE"
);
}
);
width = 666;
}
);
leftKerningGroup = U;
rightKerningGroup = U;
unicode = 0055;
},
{
glyphname = V;
lastChange = "2018-10-19 19:05:17 +0000";
layers = (
{
anchors = (
{
name = bottom_U;
position = "{304, -20}";
},
{
name = top_U;
position = "{307, 732}";
}
);
layerId = UUID1;
paths = (
{
closed = 1;
nodes = (
"319 139 LINE",
"313 139 OFFCURVE",
"310 141 OFFCURVE",
"308 152 CURVE SMOOTH",
"299 211 OFFCURVE",
"287 275 OFFCURVE",
"271 335 CURVE SMOOTH",
"198 609 LINE SMOOTH",
"183 666 OFFCURVE",
"158 692 OFFCURVE",
"108 692 CURVE SMOOTH",
"71 692 OFFCURVE",
"37 681 OFFCURVE",
"7 668 CURVE",
"171 69 LINE SMOOTH",
"189 5 OFFCURVE",
"228 -6 OFFCURVE",
"284 -6 CURVE SMOOTH",
"327 -6 OFFCURVE",
"379 -4 OFFCURVE",
"418 0 CURVE",
"604 669 LINE",
"597 678 LINE",
"574 686 OFFCURVE",
"540 689 OFFCURVE",
"520 689 CURVE SMOOTH",
"498 689 OFFCURVE",
"472 689 OFFCURVE",
"447 683 CURVE"
);
}
);
width = 611;
},
{
anchors = (
{
name = bottom_U;
position = "{280.25, -20}";
},
{
name = top_U;
position = "{285.15, 732}";
}
);
layerId = "59A137EB-1A44-4616-9625-4B79FA594CBD";
paths = (
{
closed = 1;
nodes = (
"290.5 74.4 LINE",
"286.4 74.4 OFFCURVE",
"284.35 75.45 OFFCURVE",
"282.35 82.65 CURVE SMOOTH",
"268.6 132.15 OFFCURVE",
"249 205.65 OFFCURVE",
"235.85 249.5 CURVE SMOOTH",
"117.25 651.75 LINE SMOOTH",
"108.9 681.2 OFFCURVE",
"94.35 689.15 OFFCURVE",
"74.75 689.15 CURVE SMOOTH",
"58.65 689.15 OFFCURVE",
"41.75 683.85 OFFCURVE",
"26.95 676.55 CURVE",
"220.4 35.75 LINE SMOOTH",
"230.8 0.25 OFFCURVE",
"249.85 -4.1 OFFCURVE",
"274.5 -4.1 CURVE SMOOTH",
"294.7 -4.1 OFFCURVE",
"311.55 -3.05 OFFCURVE",
"331.55 -0.95 CURVE",
"535.6 675.65 LINE",
"532.4 681.8 LINE",
"523.65 684.1 OFFCURVE",
"510.55 686.15 OFFCURVE",
"497.2 686.15 CURVE SMOOTH",
"483.75 686.15 OFFCURVE",
"472.95 685.2 OFFCURVE",
"464.1 683 CURVE"
);
}
);
width = 556.85;
},
{
anchors = (
{
name = bottom_U;
position = "{272, -20}";
},
{
name = top_U;
position = "{278, 732}";
}
);
layerId = "9ED2045D-B62B-46E9-A722-9499BEB4CDB9";
paths = (
{
closed = 1;
nodes = (
"281 50 LINE",
"278 50 OFFCURVE",
"276 51 OFFCURVE",
"274 57 CURVE SMOOTH",
"258 103 OFFCURVE",
"236 180 OFFCURVE",
"224 218 CURVE SMOOTH",
"88 668 LINE SMOOTH",
"82 687 OFFCURVE",
"72 688 OFFCURVE",
"63 688 CURVE SMOOTH",
"55 688 OFFCURVE",
"45 685 OFFCURVE",
"35 680 CURVE",
"240 23 LINE SMOOTH",
"247 -2 OFFCURVE",
"259 -3 OFFCURVE",
"272 -3 CURVE SMOOTH",
"284 -3 OFFCURVE",
"288 -3 OFFCURVE",
"301 -1 CURVE",
"511 678 LINE",
"509 683 LINE",
"506 683 OFFCURVE",
"501 685 OFFCURVE",
"490 685 CURVE SMOOTH",
"479 685 OFFCURVE",
"474 684 OFFCURVE",
"471 683 CURVE"
);
}
);
width = 557;
}
);
unicode = 0056;
},
{
glyphname = W;
lastChange = "2018-10-19 19:05:17 +0000";
layers = (
{
anchors = (
{
name = bottom_U;
position = "{456, -20}";
},
{
name = top_U;
position = "{456, 732}";
}
);
layerId = UUID1;
paths = (
{
closed = 1;
nodes = (
"130 69 LINE",
"143 2 OFFCURVE",
"182 -6 OFFCURVE",
"236 -6 CURVE SMOOTH",
"282 -6 OFFCURVE",
"336 -3 OFFCURVE",
"376 1 CURVE",
"419 278 LINE SMOOTH",
"432 359 OFFCURVE",
"444 448 OFFCURVE",
"450 508 CURVE",
"458 508 LINE",
"462 448 OFFCURVE",
"473 358 OFFCURVE",
"485 278 CURVE SMOOTH",
"517 69 LINE SMOOTH",
"527 2 OFFCURVE",
"569 -6 OFFCURVE",
"619 -6 CURVE SMOOTH",
"663 -6 OFFCURVE",
"723 -3 OFFCURVE",
"761 1 CURVE",
"892 668 LINE",
"884 678 LINE",
"862 685 OFFCURVE",
"831 689 OFFCURVE",
"805 689 CURVE SMOOTH",
"782 689 OFFCURVE",
"755 688 OFFCURVE",
"730 683 CURVE",
"676 355 LINE SMOOTH",
"664 285 OFFCURVE",
"652 194 OFFCURVE",
"647 140 CURVE",
"641 140 OFFCURVE",
"638 140 OFFCURVE",
"636 154 CURVE SMOOTH",
"563 670 LINE",
"531 676 OFFCURVE",
"490 678 OFFCURVE",
"456 678 CURVE SMOOTH",
"423 678 OFFCURVE",
"382 676 OFFCURVE",
"349 670 CURVE",
"270 140 LINE",
"263 140 OFFCURVE",
"261 141 OFFCURVE",
"260 154 CURVE SMOOTH",
"256 202 OFFCURVE",
"244 286 OFFCURVE",
"233 353 CURVE SMOOTH",
"194 600 LINE SMOOTH",
"183 672 OFFCURVE",
"160 692 OFFCURVE",
"101 692 CURVE SMOOTH",
"71 692 OFFCURVE",
"37 683 OFFCURVE",
"13 673 CURVE"
);
}
);
width = 911;
},
{
anchors = (
{
name = bottom_U;
position = "{414.2, -20}";
},
{
name = top_U;
position = "{414.2, 732}";
}
);
layerId = "59A137EB-1A44-4616-9625-4B79FA594CBD";
paths = (
{
closed = 1;
nodes = (
"168 37.65 LINE",
"175.3 2 OFFCURVE",
"198.15 -4.1 OFFCURVE",
"221.75 -4.1 CURVE SMOOTH",
"240.2 -4.1 OFFCURVE",
"270.45 -3 OFFCURVE",
"289.55 0.05 CURVE",
"360.1 333.1 LINE SMOOTH",
"373.1 393.2 OFFCURVE",
"391.75 489.8 OFFCURVE",
"410.1 587.8 CURVE",
"416.2 587.8 LINE",
"433.5 489.8 OFFCURVE",
"452.1 391.25 OFFCURVE",
"463.15 333.1 CURVE SMOOTH",
"518.9 36.7 LINE SMOOTH",
"525.1 2 OFFCURVE",
"543.35 -4.1 OFFCURVE",
"566.75 -4.1 CURVE SMOOTH",
"586.05 -4.1 OFFCURVE",
"619.45 -3 OFFCURVE",
"639.4 1 CURVE",
"788.45 676.55 LINE",
"784.25 681.8 LINE",
"772.7 685 OFFCURVE",
"758.8 686.15 OFFCURVE",
"747.05 686.15 CURVE SMOOTH",
"735.45 686.15 OFFCURVE",
"721.75 685.15 OFFCURVE",
"711.95 683 CURVE",
"623.75 264.75 LINE SMOOTH",
"614.6 220.4 OFFCURVE",
"595.95 127.5 OFFCURVE",
"585.25 63.05 CURVE",
"580.2 63.05 OFFCURVE",
"579.1 64 OFFCURVE",
"577.1 73.25 CURVE SMOOTH",
"464.2 668.1 LINE",
"453.1 670.3 OFFCURVE",
"428.25 671.35 OFFCURVE",
"414.2 671.35 CURVE SMOOTH",
"401.15 671.35 OFFCURVE",
"378.2 670.3 OFFCURVE",
"363.25 668.1 CURVE",
"239.6 63.05 LINE",
"234.5 63.05 OFFCURVE",
"233.45 63.1 OFFCURVE",
"231.5 73.25 CURVE SMOOTH",
"222.75 121.25 OFFCURVE",
"205.05 220.45 OFFCURVE",
"196.9 264.65 CURVE SMOOTH",
"122.75 648.45 LINE SMOOTH",
"117.45 677.7 OFFCURVE",
"106.8 689.15 OFFCURVE",
"82.95 689.15 CURVE SMOOTH",
"69.1 689.15 OFFCURVE",
"56 687.75 OFFCURVE",
"38.65 679.65 CURVE"
);
}
);
width = 820.75;
},
{
anchors = (
{
name = bottom_U;
position = "{400, -20}";
},
{
name = top_U;
position = "{400, 732}";
}
);
layerId = "9ED2045D-B62B-46E9-A722-9499BEB4CDB9";
paths = (
{
closed = 1;
nodes = (
"183 26 LINE",
"188 2 OFFCURVE",
"205 -3 OFFCURVE",
"217 -3 CURVE SMOOTH",
"226 -3 OFFCURVE",
"247 -3 OFFCURVE",
"259 0 CURVE",
"339 354 LINE SMOOTH",
"352 406 OFFCURVE",
"373 505 OFFCURVE",
"396 617 CURVE",
"402 617 LINE",
"424 505 OFFCURVE",
"445 404 OFFCURVE",
"456 354 CURVE SMOOTH",
"521 25 LINE SMOOTH",
"525 2 OFFCURVE",
"535 -3 OFFCURVE",
"548 -3 CURVE SMOOTH",
"559 -3 OFFCURVE",
"582 -3 OFFCURVE",
"595 1 CURVE",
"751 680 LINE",
"748 683 LINE",
"741 685 OFFCURVE",
"733 685 OFFCURVE",
"727 685 CURVE SMOOTH",
"719 685 OFFCURVE",
"710 684 OFFCURVE",
"706 683 CURVE",
"605 231 LINE SMOOTH",
"597 196 OFFCURVE",
"576 103 OFFCURVE",
"563 35 CURVE",
"559 35 OFFCURVE",
"558 36 OFFCURVE",
"556 43 CURVE SMOOTH",
"429 667 LINE",
"425 668 OFFCURVE",
"406 669 OFFCURVE",
"400 669 CURVE SMOOTH",
"394 669 OFFCURVE",
"378 668 OFFCURVE",
"370 667 CURVE",
"229 35 LINE",
"225 35 OFFCURVE",
"224 34 OFFCURVE",
"222 43 CURVE SMOOTH",
"211 91 OFFCURVE",
"192 196 OFFCURVE",
"185 232 CURVE SMOOTH",
"97 666 LINE SMOOTH",
"94 680 OFFCURVE",
"88 688 OFFCURVE",
"77 688 CURVE SMOOTH",
"69 688 OFFCURVE",
"64 690 OFFCURVE",
"49 682 CURVE"
);
}
);
width = 821;
}
);
leftKerningGroup = W;
rightKerningGroup = W;
unicode = 0057;
},
{
glyphname = X;
lastChange = "2018-10-19 19:05:17 +0000";
layers = (
{
anchors = (
{
name = bottom_U;
position = "{305, -20}";
},
{
name = top_U;
position = "{314, 732}";
}
);
layerId = UUID1;
paths = (
{
closed = 1;
nodes = (
"396 56 LINE",
"428 6 OFFCURVE",
"456 -10 OFFCURVE",
"504 -10 CURVE SMOOTH",
"539 -10 OFFCURVE",
"580 4 OFFCURVE",
"613 26 CURVE",
"237 628 LINE SMOOTH",
"206 677 OFFCURVE",
"179 693 OFFCURVE",
"131 693 CURVE SMOOTH",
"96 693 OFFCURVE",
"55 679 OFFCURVE",
"22 657 CURVE"
);
},
{
closed = 1;
nodes = (
"309 475 LINE",
"241 399 LINE",
"7 17 LINE",
"11 8 LINE",
"35 0 OFFCURVE",
"69 -6 OFFCURVE",
"101 -6 CURVE SMOOTH",
"130 -6 OFFCURVE",
"153 -4 OFFCURVE",
"171 0 CURVE",
"311 237 LINE",
"379 314 LINE",
"593 667 LINE",
"589 675 LINE",
"567 683 OFFCURVE",
"533 689 OFFCURVE",
"501 689 CURVE SMOOTH",
"472 689 OFFCURVE",
"449 687 OFFCURVE",
"431 683 CURVE"
);
}
);
width = 620;
},
{
anchors = (
{
name = bottom_U;
position = "{285.05, -20}";
},
{
name = top_U;
position = "{291.2, 732}";
}
);
layerId = "59A137EB-1A44-4616-9625-4B79FA594CBD";
paths = (
{
closed = 1;
nodes = (
"448.25 25.6 LINE",
"463.15 2.2 OFFCURVE",
"479.75 -6.2 OFFCURVE",
"496.4 -6.2 CURVE SMOOTH",
"512.4 -6.2 OFFCURVE",
"531.55 -0.75 OFFCURVE",
"548.4 11.75 CURVE",
"151.5 657.45 LINE SMOOTH",
"136.65 680.8 OFFCURVE",
"120.1 689.2 OFFCURVE",
"103.45 689.2 CURVE SMOOTH",
"87.45 689.2 OFFCURVE",
"68.3 683.75 OFFCURVE",
"51.45 671.25 CURVE"
);
},
{
closed = 1;
nodes = (
"284.3 409.45 LINE",
"252.4 376.2 LINE",
"23.15 9.4 LINE",
"26.2 3.25 LINE",
"34.05 -0.95 OFFCURVE",
"50 -4.1 OFFCURVE",
"65.85 -4.1 CURVE SMOOTH",
"76.8 -4.1 OFFCURVE",
"94.1 -2.1 OFFCURVE",
"99.75 0 CURVE",
"291.05 313.95 LINE",
"322.95 346.3 LINE",
"526.5 673.65 LINE",
"523.45 679.75 LINE",
"515.7 683.95 OFFCURVE",
"499.75 687.1 OFFCURVE",
"483.9 687.1 CURVE SMOOTH",
"472.95 687.1 OFFCURVE",
"457.55 685.1 OFFCURVE",
"451.9 683 CURVE"
);
}
);
width = 571.55;
},
{
anchors = (
{
name = bottom_U;
position = "{277.659, -20}";
},
{
name = top_U;
position = "{282.753, 732}";
}
);
layerId = "9ED2045D-B62B-46E9-A722-9499BEB4CDB9";
paths = (
{
closed = 1;
nodes = (
"467.607 14.338 LINE",
"476.172 0.792 OFFCURVE",
"488.549 -4.792 OFFCURVE",
"493.584 -4.792 CURVE SMOOTH",
"502.546 -4.792 OFFCURVE",
"513.601 -2.51 OFFCURVE",
"524.468 6.471 CURVE",
"119.825 668.36 LINE SMOOTH",
"110.958 682.208 OFFCURVE",
"98.279 687.792 OFFCURVE",
"93.244 687.792 CURVE SMOOTH",
"84.282 687.792 OFFCURVE",
"73.227 685.51 OFFCURVE",
"62.36 676.529 CURVE"
);
},
{
closed = 1;
nodes = (
"275.149 385.166 LINE",
"256.623 367.753 LINE",
"29.133 6.584 LINE",
"31.831 1.49 LINE",
"33.698 -1.302 OFFCURVE",
"42.961 -3.396 OFFCURVE",
"52.828 -3.396 CURVE SMOOTH",
"57.091 -3.396 OFFCURVE",
"72.279 -1.396 OFFCURVE",
"73.354 0 CURVE",
"283.659 342.457 LINE",
"302.185 358.266 LINE",
"501.864 676.114 LINE",
"499.166 681.51 LINE",
"496.695 684.302 OFFCURVE",
"487.432 686.396 OFFCURVE",
"477.565 686.396 CURVE SMOOTH",
"473.302 686.396 OFFCURVE",
"460.717 684.396 OFFCURVE",
"459.643 683 CURVE"
);
}
);
width = 572;
}
);
unicode = 0058;
},
{
glyphname = Y;
lastChange = "2018-10-19 19:05:17 +0000";
layers = (
{
anchors = (
{
name = bottom_U;
position = "{275, -20}";
},
{
name = top_U;
position = "{277, 732}";
}
);
layerId = UUID1;
paths = (
{
closed = 1;
nodes = (
"190 0 LINE",
"217 -5 OFFCURVE",
"255 -6 OFFCURVE",
"275 -6 CURVE SMOOTH",
"297 -6 OFFCURVE",
"330 -5 OFFCURVE",
"358 0 CURVE",
"358 309 LINE",
"190 309 LINE"
);
},
{
closed = 1;
nodes = (
"331 522 LINE SMOOTH",
"312 474 OFFCURVE",
"294 422 OFFCURVE",
"281 370 CURVE",
"275 370 LINE",
"261 426 OFFCURVE",
"246 473 OFFCURVE",
"229 516 CURVE SMOOTH",
"186 625 LINE SMOOTH",
"167 672 OFFCURVE",
"145 691 OFFCURVE",
"98 691 CURVE SMOOTH",
"62 691 OFFCURVE",
"24 679 OFFCURVE",
"-4 663 CURVE",
"200 190 LINE",
"350 190 LINE",
"552 668 LINE",
"545 677 LINE",
"523 685 OFFCURVE",
"491 689 OFFCURVE",
"463 689 CURVE SMOOTH",
"441 689 OFFCURVE",
"418 688 OFFCURVE",
"395 683 CURVE"
);
}
);
width = 548;
},
{
anchors = (
{
name = bottom_U;
position = "{240.8, -20}";
},
{
name = top_U;
position = "{244.7, 732}";
}
);
layerId = "59A137EB-1A44-4616-9625-4B79FA594CBD";
paths = (
{
closed = 1;
nodes = (
"203.3 0 LINE",
"213.2 -2.15 OFFCURVE",
"227.45 -3.15 OFFCURVE",
"240.8 -3.15 CURVE SMOOTH",
"255.2 -3.15 OFFCURVE",
"269.2 -2.15 OFFCURVE",
"280.1 0 CURVE",
"280.1 271 LINE",
"203.3 271 LINE"
);
},
{
closed = 1;
nodes = (
"290.15 421.3 LINE SMOOTH",
"282.55 401.8 OFFCURVE",
"258.85 340.3 OFFCURVE",
"248.7 306.35 CURVE",
"243.65 306.35 LINE",
"233.45 339.55 OFFCURVE",
"216.55 389.4 OFFCURVE",
"203.35 421 CURVE SMOOTH",
"107.15 653.5 LINE SMOOTH",
"97.65 677.7 OFFCURVE",
"86.1 690.05 OFFCURVE",
"64.75 690.05 CURVE SMOOTH",
"51.55 690.05 OFFCURVE",
"36.35 686.6 OFFCURVE",
"15 674.4 CURVE",
"213.3 201.4 LINE",
"271.15 201.4 LINE",
"468.4 675.6 LINE",
"465.2 681.75 LINE",
"453.65 685 OFFCURVE",
"441.6 687.1 OFFCURVE",
"427.85 687.1 CURVE SMOOTH",
"417.25 687.1 OFFCURVE",
"404.7 686.1 OFFCURVE",
"394.05 683 CURVE"
);
}
);
width = 481.5;
},
{
anchors = (
{
name = bottom_U;
position = "{228.13, -20}";
},
{
name = top_U;
position = "{232.734, 732}";
}
);
layerId = "9ED2045D-B62B-46E9-A722-9499BEB4CDB9";
paths = (
{
closed = 1;
nodes = (
"208.227 0 LINE",
"211.792 -1.094 OFFCURVE",
"217.244 -2.094 OFFCURVE",
"228.13 -2.094 CURVE SMOOTH",
"239.714 -2.094 OFFCURVE",
"246.676 -1.094 OFFCURVE",
"251.241 0 CURVE",
"251.241 256.922 LINE",
"208.227 256.922 LINE"
);
},
{
closed = 1;
nodes = (
"275.016 383.994 LINE SMOOTH",
"271.64 375.052 OFFCURVE",
"245.828 310.033 OFFCURVE",
"236.734 282.77 CURVE",
"232.036 282.77 LINE",
"223.244 307.523 OFFCURVE",
"205.64 358.429 OFFCURVE",
"193.847 385.806 CURVE SMOOTH",
"77.939 664.058 LINE SMOOTH",
"71.958 679.812 OFFCURVE",
"64.279 689.698 OFFCURVE",
"52.432 689.698 CURVE SMOOTH",
"47.679 689.698 OFFCURVE",
"40.925 689.416 OFFCURVE",
"22.039 678.623 CURVE",
"218.227 205.623 LINE",
"241.939 205.623 LINE",
"437.429 678.416 LINE",
"435.637 683.51 LINE",
"427.958 685 OFFCURVE",
"423.299 686.396 OFFCURVE",
"414.828 686.396 CURVE SMOOTH",
"408.451 686.396 OFFCURVE",
"399.773 685.396 OFFCURVE",
"393.698 683 CURVE"
);
}
);
width = 482;
}
);
leftKerningGroup = Y;
rightKerningGroup = Y;
unicode = 0059;
},
{
glyphname = Z;
lastChange = "2018-10-19 19:05:17 +0000";
layers = (
{
anchors = (
{
name = bottom_U;
position = "{286, -20}";
},
{
name = top_U;
position = "{289, 732}";
}
);
layerId = UUID1;
paths = (
{
closed = 1;
nodes = (
"56 161 LINE",
"43 143 OFFCURVE",
"36 120 OFFCURVE",
"36 100 CURVE SMOOTH",
"36 86 OFFCURVE",
"38 74 OFFCURVE",
"54 0 CURVE",
"437 0 LINE SMOOTH",
"500 0 OFFCURVE",
"546 28 OFFCURVE",
"546 88 CURVE SMOOTH",
"546 114 OFFCURVE",
"541 143 OFFCURVE",
"535 163 CURVE",
"508 150 OFFCURVE",
"471 139 OFFCURVE",
"423 139 CURVE SMOOTH",
"374 139 LINE SMOOTH",
"330 139 OFFCURVE",
"263 135 OFFCURVE",
"220 132 CURVE",
"217 135 LINE",
"243 161 OFFCURVE",
"276 201 OFFCURVE",
"295 227 CURVE SMOOTH",
"514 523 LINE SMOOTH",
"528 543 OFFCURVE",
"532 562 OFFCURVE",
"532 581 CURVE SMOOTH",
"532 593 OFFCURVE",
"531 604 OFFCURVE",
"509 683 CURVE",
"62 683 LINE",
"55 655 OFFCURVE",
"51 632 OFFCURVE",
"51 603 CURVE SMOOTH",
"51 585 OFFCURVE",
"52 567 OFFCURVE",
"57 547 CURVE",
"198 547 LINE",
"240 547 OFFCURVE",
"303 550 OFFCURVE",
"352 556 CURVE",
"355 553 LINE",
"330 527 OFFCURVE",
"293 482 OFFCURVE",
"274 456 CURVE SMOOTH"
);
}
);
width = 582;
},
{
anchors = (
{
name = bottom_U;
position = "{278.4, -20}";
},
{
name = top_U;
position = "{281.4, 732}";
}
);
layerId = "59A137EB-1A44-4616-9625-4B79FA594CBD";
paths = (
{
closed = 1;
nodes = (
"64.55 89.75 LINE",
"56.3 76.5 OFFCURVE",
"53.1 63 OFFCURVE",
"53.1 51.55 CURVE SMOOTH",
"53.1 42.3 OFFCURVE",
"54.15 33.15 OFFCURVE",
"64.45 0 CURVE",
"442.7 0 LINE SMOOTH",
"484.8 0 OFFCURVE",
"499.45 17.55 OFFCURVE",
"499.45 45.25 CURVE SMOOTH",
"499.45 58.9 OFFCURVE",
"496.35 72.7 OFFCURVE",
"492.25 85.1 CURVE",
"466.2 73.05 OFFCURVE",
"426.35 68.7 OFFCURVE",
"371.7 68.7 CURVE SMOOTH",
"241 68.7 LINE SMOOTH",
"216 68.7 OFFCURVE",
"178.45 67.55 OFFCURVE",
"136.4 63.6 CURVE",
"133.4 66.6 LINE",
"159.4 104 OFFCURVE",
"189.55 145.9 OFFCURVE",
"212.35 181.4 CURVE SMOOTH",
"478.85 595.2 LINE SMOOTH",
"487.15 608.55 OFFCURVE",
"491.15 619.95 OFFCURVE",
"491.15 630.4 CURVE SMOOTH",
"491.15 639.55 OFFCURVE",
"489.2 650.55 OFFCURVE",
"479.55 683 CURVE",
"83.85 683 LINE",
"79.7 669.25 OFFCURVE",
"77.6 655.75 OFFCURVE",
"77.6 641.95 CURVE SMOOTH",
"77.6 633.45 OFFCURVE",
"78.6 624 OFFCURVE",
"80.75 615.4 CURVE",
"251.2 615.4 LINE",
"276.1 615.4 OFFCURVE",
"383.75 617.45 OFFCURVE",
"408.05 622.5 CURVE",
"411.05 619.5 LINE",
"381.3 577.35 OFFCURVE",
"355.7 542.8 OFFCURVE",
"333.85 509.2 CURVE SMOOTH"
);
}
);
width = 552.55;
},
{
anchors = (
{
name = bottom_U;
position = "{275.584, -20}";
},
{
name = top_U;
position = "{278.584, 732}";
}
);
layerId = "9ED2045D-B62B-46E9-A722-9499BEB4CDB9";
paths = (
{
closed = 1;
nodes = (
"67.718 63.354 LINE",
"61.227 51.864 OFFCURVE",
"59.435 41.883 OFFCURVE",
"59.435 33.601 CURVE SMOOTH",
"59.435 26.111 OFFCURVE",
"60.133 18.016 OFFCURVE",
"68.321 0 CURVE",
"444.812 0 LINE SMOOTH",
"479.169 0 OFFCURVE",
"482.205 13.679 OFFCURVE",
"482.205 29.413 CURVE SMOOTH",
"482.205 38.487 OFFCURVE",
"479.809 46.656 OFFCURVE",
"476.413 56.241 CURVE",
"450.714 44.542 OFFCURVE",
"409.809 42.656 OFFCURVE",
"352.695 42.656 CURVE SMOOTH",
"191.728 42.656 LINE SMOOTH",
"173.767 42.656 OFFCURVE",
"147.127 42.562 OFFCURVE",
"105.429 38.26 CURVE",
"102.429 41.26 LINE",
"128.429 82.883 OFFCURVE",
"157.523 125.487 OFFCURVE",
"181.731 164.507 CURVE SMOOTH",
"465.828 621.948 LINE SMOOTH",
"472.016 632.834 OFFCURVE",
"476.016 641.419 OFFCURVE",
"476.016 648.701 CURVE SMOOTH",
"476.016 656.795 OFFCURVE",
"473.714 667.795 OFFCURVE",
"468.64 683 CURVE",
"91.945 683 LINE",
"88.851 674.529 OFFCURVE",
"87.454 664.549 OFFCURVE",
"87.454 656.38 CURVE SMOOTH",
"87.454 651.399 OFFCURVE",
"88.454 645.117 OFFCURVE",
"89.549 640.74 CURVE",
"270.909 640.74 LINE",
"289.474 640.74 OFFCURVE",
"413.665 642.438 OFFCURVE",
"428.815 647.136 CURVE",
"431.815 644.136 LINE",
"400.305 596.003 OFFCURVE",
"378.928 565.324 OFFCURVE",
"356.022 528.909 CURVE SMOOTH"
);
}
);
width = 553;
}
);
leftKerningGroup = Z;
rightKerningGroup = Z;
unicode = 005A;
},
{
glyphname = a;
lastChange = "2018-10-19 19:36:29 +0000";
layers = (
{
anchors = (
{
name = bottom;
position = "{256, -20}";
},
{
name = top;
position = "{251, 542}";
}
);
layerId = UUID1;
paths = (
{
closed = 1;
nodes = (
"28 65 OFFCURVE",
"77 -15 OFFCURVE",
"181 -15 CURVE SMOOTH",
"271 -15 OFFCURVE",
"322 34 OFFCURVE",
"362 81 CURVE",
"339 183 LINE",
"312 135 OFFCURVE",
"269 105 OFFCURVE",
"230 105 CURVE SMOOTH",
"204 105 OFFCURVE",
"187 123 OFFCURVE",
"187 148 CURVE SMOOTH",
"187 183 OFFCURVE",
"203 208 OFFCURVE",
"245 208 CURVE SMOOTH",
"270 208 OFFCURVE",
"316 208 OFFCURVE",
"344 202 CURVE",
"344 305 LINE",
"308 312 OFFCURVE",
"256 312 OFFCURVE",
"227 312 CURVE SMOOTH",
"125 312 OFFCURVE",
"28 258 OFFCURVE",
"28 137 CURVE SMOOTH"
);
},
{
closed = 1;
nodes = (
"468 89 OFFCURVE",
"459 110 OFFCURVE",
"459 138 CURVE SMOOTH",
"459 341 LINE SMOOTH",
"459 469 OFFCURVE",
"365 512 OFFCURVE",
"279 512 CURVE SMOOTH",
"215 512 OFFCURVE",
"116 496 OFFCURVE",
"47 468 CURVE",
"51 428 OFFCURVE",
"63 382 OFFCURVE",
"86 355 CURVE",
"138 370 OFFCURVE",
"190 386 OFFCURVE",
"232 386 CURVE SMOOTH",
"276 386 OFFCURVE",
"295 365 OFFCURVE",
"295 326 CURVE SMOOTH",
"295 114 LINE",
"305 61 OFFCURVE",
"346 -8 OFFCURVE",
"438 -8 CURVE",
"458 8 OFFCURVE",
"481 47 OFFCURVE",
"487 76 CURVE"
);
}
);
width = 514;
},
{
anchors = (
{
name = bottom;
position = "{246.5, -20}";
},
{
name = top;
position = "{241.5, 542}";
}
);
layerId = "59A137EB-1A44-4616-9625-4B79FA594CBD";
paths = (
{
closed = 1;
nodes = (
"51 62 OFFCURVE",
"98 -12 OFFCURVE",
"195 -12 CURVE SMOOTH",
"281 -12 OFFCURVE",
"347 54 OFFCURVE",
"381 94 CURVE",
"368 162 LINE",
"326 88 OFFCURVE",
"259 51 OFFCURVE",
"205 51 CURVE SMOOTH",
"154 51 OFFCURVE",
"126 90 OFFCURVE",
"126 139 CURVE SMOOTH",
"126 202 OFFCURVE",
"170 238 OFFCURVE",
"239 238 CURVE SMOOTH",
"284 238 OFFCURVE",
"334 236 OFFCURVE",
"373 227 CURVE",
"373 279 LINE",
"331 290 OFFCURVE",
"280 294 OFFCURVE",
"238 294 CURVE SMOOTH",
"127 294 OFFCURVE",
"51 244 OFFCURVE",
"51 133 CURVE SMOOTH"
);
},
{
closed = 1;
nodes = (
"423 55 OFFCURVE",
"420 86 OFFCURVE",
"420 129 CURVE SMOOTH",
"420 334 LINE SMOOTH",
"420 442 OFFCURVE",
"369 501 OFFCURVE",
"265 501 CURVE SMOOTH",
"195 501 OFFCURVE",
"119 476 OFFCURVE",
"69 454 CURVE",
"69 434 OFFCURVE",
"81 408 OFFCURVE",
"95 396 CURVE",
"148 419 OFFCURVE",
"203 437 OFFCURVE",
"258 437 CURVE SMOOTH",
"313 437 OFFCURVE",
"348 410 OFFCURVE",
"348 336 CURVE SMOOTH",
"348 104 LINE",
"348 52 OFFCURVE",
"365 11 OFFCURVE",
"414 -7 CURVE",
"430 0 OFFCURVE",
"443 18 OFFCURVE",
"448 31 CURVE"
);
}
);
width = 503.55;
},
{
anchors = (
{
name = bottom;
position = "{246.5, -20}";
},
{
name = top;
position = "{241.5, 542}";
}
);
layerId = "9ED2045D-B62B-46E9-A722-9499BEB4CDB9";
paths = (
{
closed = 1;
nodes = (
"69 62 OFFCURVE",
"113 -12 OFFCURVE",
"210 -12 CURVE SMOOTH",
"296 -12 OFFCURVE",
"359 47 OFFCURVE",
"390 108 CURVE",
"383 162 LINE",
"349 81 OFFCURVE",
"283 31 OFFCURVE",
"213 31 CURVE SMOOTH",
"153 31 OFFCURVE",
"115 79 OFFCURVE",
"115 135 CURVE SMOOTH",
"115 207 OFFCURVE",
"164 254 OFFCURVE",
"252 254 CURVE SMOOTH",
"302 254 OFFCURVE",
"359 247 OFFCURVE",
"388 238 CURVE",
"388 279 LINE",
"356 290 OFFCURVE",
"295 294 OFFCURVE",
"253 294 CURVE SMOOTH",
"145 294 OFFCURVE",
"69 234 OFFCURVE",
"69 133 CURVE SMOOTH"
);
},
{
closed = 1;
nodes = (
"430 41 OFFCURVE",
"422 69 OFFCURVE",
"422 129 CURVE SMOOTH",
"422 330 LINE SMOOTH",
"422 433 OFFCURVE",
"372 497 OFFCURVE",
"274 497 CURVE SMOOTH",
"204 497 OFFCURVE",
"134 472 OFFCURVE",
"84 450 CURVE",
"84 430 OFFCURVE",
"90 417 OFFCURVE",
"102 410 CURVE",
"155 433 OFFCURVE",
"218 454 OFFCURVE",
"273 454 CURVE SMOOTH",
"338 454 OFFCURVE",
"378 425 OFFCURVE",
"378 342 CURVE SMOOTH",
"378 104 LINE",
"378 52 OFFCURVE",
"388 11 OFFCURVE",
"429 -7 CURVE",
"445 0 OFFCURVE",
"452 12 OFFCURVE",
"457 25 CURVE"
);
}
);
width = 504;
}
);
leftKerningGroup = a;
rightKerningGroup = a;
unicode = 0061;
},
{
glyphname = b;
lastChange = "2018-10-19 19:05:17 +0000";
layers = (
{
anchors = (
{
name = bottom;
position = "{261, -20}";
},
{
name = top;
position = "{261, 542}";
}
);
layerId = UUID1;
paths = (
{
closed = 1;
nodes = (
"217 638 LINE",
"217 711 OFFCURVE",
"190 736 OFFCURVE",
"126 736 CURVE SMOOTH",
"64 736 LINE",
"57 729 LINE",
"57 25 LINE",
"217 25 LINE"
);
},
{
closed = 1;
nodes = (
"508 403 OFFCURVE",
"449 510 OFFCURVE",
"330 510 CURVE SMOOTH",
"261 510 OFFCURVE",
"213 482 OFFCURVE",
"171 442 CURVE",
"194 319 LINE",
"218 364 OFFCURVE",
"254 380 OFFCURVE",
"280 379 CURVE SMOOTH",
"322 378 OFFCURVE",
"340 341 OFFCURVE",
"340 254 CURVE SMOOTH",
"340 165 OFFCURVE",
"318 108 OFFCURVE",
"258 108 CURVE SMOOTH",
"213 108 OFFCURVE",
"171 121 OFFCURVE",
"134 145 CURVE",
"57 25 LINE",
"110 4 OFFCURVE",
"181 -9 OFFCURVE",
"255 -9 CURVE SMOOTH",
"412 -9 OFFCURVE",
"509 96 OFFCURVE",
"508 257 CURVE SMOOTH"
);
}
);
width = 536;
},
{
anchors = (
{
name = bottom;
position = "{261, -20}";
},
{
name = top;
position = "{261, 542}";
}
);
layerId = "59A137EB-1A44-4616-9625-4B79FA594CBD";
paths = (
{
closed = 1;
nodes = (
"160.95 684.55 LINE",
"160.95 717.65 OFFCURVE",
"154.85 735.05 OFFCURVE",
"121.25 735.05 CURVE SMOOTH",
"94.4 735.05 LINE",
"88.35 729 LINE",
"88.35 25 LINE",
"160.95 25 LINE"
);
},
{
closed = 1;
nodes = (
"472.85 396.35 OFFCURVE",
"414.8 498.6 OFFCURVE",
"302.45 498.6 CURVE SMOOTH",
"218.25 498.6 OFFCURVE",
"156 440.2 OFFCURVE",
"131.1 402.1 CURVE",
"142.7 336.1 LINE",
"171.45 389.65 OFFCURVE",
"231.2 434.15 OFFCURVE",
"291.4 434.1 CURVE SMOOTH",
"347.65 434.05 OFFCURVE",
"397.95 380.9 OFFCURVE",
"397.95 251.15 CURVE SMOOTH",
"397.95 113.7 OFFCURVE",
"335.1 50.05 OFFCURVE",
"261.8 50.05 CURVE SMOOTH",
"208.25 50.05 OFFCURVE",
"170.05 60.2 OFFCURVE",
"126.4 85.15 CURVE",
"88.35 25 LINE",
"145.15 4 OFFCURVE",
"202.85 -7.1 OFFCURVE",
"262.6 -7.1 CURVE SMOOTH",
"368.3 -7.1 OFFCURVE",
"472.9 69.4 OFFCURVE",
"472.85 251.3 CURVE SMOOTH"
);
}
);
width = 523.65;
},
{
anchors = (
{
name = bottom;
position = "{261, -20}";
},
{
name = top;
position = "{261, 542}";
}
);
layerId = "9ED2045D-B62B-46E9-A722-9499BEB4CDB9";
paths = (
{
closed = 1;
nodes = (
"140.185 701.795 LINE",
"140.185 720.114 OFFCURVE",
"141.828 734.698 OFFCURVE",
"119.49 734.698 CURVE SMOOTH",
"105.662 734.698 LINE",
"99.964 729 LINE",
"99.964 25 LINE",
"140.185 25 LINE"
);
},
{
closed = 1;
nodes = (
"459.828 393.886 OFFCURVE",
"402.13 494.377 OFFCURVE",
"292.244 494.377 CURVE SMOOTH",
"202.412 494.377 OFFCURVE",
"134.883 424.714 OFFCURVE",
"116.318 387.318 CURVE",
"123.695 342.435 LINE",
"154.205 399.152 OFFCURVE",
"222.753 454.211 OFFCURVE",
"295.623 454.513 CURVE SMOOTH",
"357.152 454.815 OFFCURVE",
"419.419 395.682 OFFCURVE",
"419.419 250.094 CURVE SMOOTH",
"419.419 94.695 OFFCURVE",
"341.435 28.581 OFFCURVE",
"263.208 28.581 CURVE SMOOTH",
"206.49 28.581 OFFCURVE",
"169.698 37.676 OFFCURVE",
"123.584 62.978 CURVE",
"99.964 25 LINE",
"158.172 4 OFFCURVE",
"210.945 -6.396 OFFCURVE",
"265.416 -6.396 CURVE SMOOTH",
"352.111 -6.396 OFFCURVE",
"459.526 59.546 OFFCURVE",
"459.828 249.188 CURVE SMOOTH"
);
}
);
width = 524;
}
);
unicode = 0062;
},
{
glyphname = c;
lastChange = "2018-10-19 19:05:17 +0000";
layers = (
{
anchors = (
{
name = bottom;
position = "{251, -20}";
},
{
name = top;
position = "{252, 542}";
}
);
layerId = UUID1;
paths = (
{
closed = 1;
nodes = (
"325 270 OFFCURVE",
"343 268 OFFCURVE",
"371 268 CURVE SMOOTH",
"416 268 OFFCURVE",
"451 292 OFFCURVE",
"451 347 CURVE SMOOTH",
"451 450 OFFCURVE",
"365 515 OFFCURVE",
"254 515 CURVE SMOOTH",
"144 515 OFFCURVE",
"28 444 OFFCURVE",
"28 249 CURVE SMOOTH",
"28 86 OFFCURVE",
"107 -15 OFFCURVE",
"251 -15 CURVE SMOOTH",
"325 -15 OFFCURVE",
"403 15 OFFCURVE",
"447 62 CURVE",
"440 94 OFFCURVE",
"412 138 OFFCURVE",
"386 153 CURVE",
"355 131 OFFCURVE",
"316 112 OFFCURVE",
"278 112 CURVE SMOOTH",
"223 112 OFFCURVE",
"195 145 OFFCURVE",
"195 249 CURVE SMOOTH",
"195 351 OFFCURVE",
"207 394 OFFCURVE",
"251 394 CURVE SMOOTH",
"300 394 OFFCURVE",
"305 353 OFFCURVE",
"305 274 CURVE"
);
}
);
width = 475;
},
{
anchors = (
{
name = bottom;
position = "{247.2, -20}";
},
{
name = top;
position = "{251.05, 542}";
}
);
layerId = "59A137EB-1A44-4616-9625-4B79FA594CBD";
paths = (
{
closed = 1;
nodes = (
"366.8 314.65 OFFCURVE",
"376.25 313.6 OFFCURVE",
"387.15 313.6 CURVE SMOOTH",
"419.8 313.6 OFFCURVE",
"426.3 334.75 OFFCURVE",
"426.3 360.3 CURVE SMOOTH",
"426.3 412.95 OFFCURVE",
"380.2 502.65 OFFCURVE",
"253.05 502.65 CURVE SMOOTH",
"149.7 502.65 OFFCURVE",
"51.75 422.15 OFFCURVE",
"51.75 241.4 CURVE SMOOTH",
"51.75 115.45 OFFCURVE",
"104.15 -12.15 OFFCURVE",
"247.2 -12.15 CURVE SMOOTH",
"317.4 -12.15 OFFCURVE",
"374.5 16.9 OFFCURVE",
"420.4 60.1 CURVE",
"416.25 77.85 OFFCURVE",
"399.65 98.1 OFFCURVE",
"385.05 107.4 CURVE",
"348.35 79.7 OFFCURVE",
"306.5 52.15 OFFCURVE",
"257.1 52.15 CURVE SMOOTH",
"177.4 52.15 OFFCURVE",
"129.45 113.65 OFFCURVE",
"129.45 241.4 CURVE SMOOTH",
"129.45 373.8 OFFCURVE",
"178.5 443.4 OFFCURVE",
"251 443.4 CURVE SMOOTH",
"335.15 443.4 OFFCURVE",
"359.15 374.85 OFFCURVE",
"355.35 316.75 CURVE"
);
}
);
width = 469.3;
},
{
anchors = (
{
name = bottom;
position = "{245.792, -20}";
},
{
name = top;
position = "{250.698, 542}";
}
);
layerId = "9ED2045D-B62B-46E9-A722-9499BEB4CDB9";
paths = (
{
closed = 1;
nodes = (
"382.286 331.191 OFFCURVE",
"388.568 330.493 OFFCURVE",
"393.133 330.493 CURVE SMOOTH",
"421.208 330.493 OFFCURVE",
"417.149 350.587 OFFCURVE",
"417.149 365.227 CURVE SMOOTH",
"417.149 399.224 OFFCURVE",
"385.831 498.075 OFFCURVE",
"252.698 498.075 CURVE SMOOTH",
"151.812 498.075 OFFCURVE",
"60.549 414.055 OFFCURVE",
"60.549 238.584 CURVE SMOOTH",
"60.549 126.36 OFFCURVE",
"103.094 -11.094 OFFCURVE",
"245.792 -11.094 CURVE SMOOTH",
"314.584 -11.094 OFFCURVE",
"363.942 17.604 OFFCURVE",
"410.546 59.396 CURVE",
"407.451 71.867 OFFCURVE",
"395.075 83.318 OFFCURVE",
"384.698 90.507 CURVE",
"345.886 60.695 OFFCURVE",
"302.981 29.977 OFFCURVE",
"249.357 29.977 CURVE SMOOTH",
"160.507 29.977 OFFCURVE",
"105.166 102.036 OFFCURVE",
"105.166 238.584 CURVE SMOOTH",
"105.166 382.247 OFFCURVE",
"167.942 461.701 OFFCURVE",
"251 461.701 CURVE SMOOTH",
"348.172 461.701 OFFCURVE",
"379.211 382.945 OFFCURVE",
"374.003 332.587 CURVE"
);
}
);
width = 469;
}
);
leftKerningGroup = c;
rightKerningGroup = c;
unicode = 0063;
},
{
glyphname = d;
lastChange = "2018-10-19 19:05:17 +0000";
layers = (
{
anchors = (
{
name = bottom;
position = "{264, -20}";
},
{
name = top;
position = "{262, 542}";
}
);
layerId = UUID1;
paths = (
{
closed = 1;
nodes = (
"481 638 LINE",
"481 711 OFFCURVE",
"456 736 OFFCURVE",
"392 736 CURVE SMOOTH",
"328 736 LINE",
"321 729 LINE",
"321 145 LINE SMOOTH",
"321 59 OFFCURVE",
"369 -8 OFFCURVE",
"460 -8 CURVE",
"480 8 OFFCURVE",
"503 47 OFFCURVE",
"509 76 CURVE",
"493 87 OFFCURVE",
"481 114 OFFCURVE",
"481 145 CURVE SMOOTH"
);
},
{
closed = 1;
nodes = (
"30 92 OFFCURVE",
"88 -15 OFFCURVE",
"211 -15 CURVE SMOOTH",
"310 -15 OFFCURVE",
"391 69 OFFCURVE",
"399 152 CURVE",
"362 242 LINE",
"335 134 OFFCURVE",
"283 116 OFFCURVE",
"254 116 CURVE SMOOTH",
"221 116 OFFCURVE",
"198 154 OFFCURVE",
"198 243 CURVE SMOOTH",
"198 331 OFFCURVE",
"214 389 OFFCURVE",
"261 389 CURVE SMOOTH",
"291 389 OFFCURVE",
"332 364 OFFCURVE",
"371 332 CURVE",
"398 447 LINE",
"354 473 OFFCURVE",
"302 510 OFFCURVE",
"232 510 CURVE SMOOTH",
"120 510 OFFCURVE",
"30 415 OFFCURVE",
"30 244 CURVE SMOOTH"
);
}
);
width = 540;
},
{
anchors = (
{
name = bottom;
position = "{262.1, -20}";
},
{
name = top;
position = "{262, 542}";
}
);
layerId = "59A137EB-1A44-4616-9625-4B79FA594CBD";
paths = (
{
closed = 1;
nodes = (
"435.4 684.55 LINE",
"435.4 717.65 OFFCURVE",
"429.4 735.05 OFFCURVE",
"395.8 735.05 CURVE SMOOTH",
"368.85 735.05 LINE",
"362.8 729 LINE",
"362.8 114.6 LINE SMOOTH",
"362.8 60.9 OFFCURVE",
"376.6 11.95 OFFCURVE",
"429.6 -7.05 CURVE",
"444.85 0.4 OFFCURVE",
"458.35 17.55 OFFCURVE",
"463.4 31.35 CURVE",
"438.85 54.7 OFFCURVE",
"435.4 95.95 OFFCURVE",
"435.4 138.35 CURVE SMOOTH"
);
},
{
closed = 1;
nodes = (
"50.9 90.1 OFFCURVE",
"108.9 -12.15 OFFCURVE",
"218.6 -12.15 CURVE SMOOTH",
"310 -12.15 OFFCURVE",
"377.7 52.85 OFFCURVE",
"401.85 113.05 CURVE",
"388.6 183.1 LINE",
"363.5 101.7 OFFCURVE",
"293.45 52.35 OFFCURVE",
"233.1 52.35 CURVE SMOOTH",
"177.3 52.35 OFFCURVE",
"125.8 105.55 OFFCURVE",
"125.8 239.2 CURVE SMOOTH",
"125.8 377.55 OFFCURVE",
"184.55 434.6 OFFCURVE",
"244.85 434.6 CURVE SMOOTH",
"304.3 434.6 OFFCURVE",
"356.7 396.3 OFFCURVE",
"394.75 367.15 CURVE",
"398.95 432.75 LINE",
"351.15 470.15 OFFCURVE",
"298.2 498.6 OFFCURVE",
"237.7 498.6 CURVE SMOOTH",
"150.4 498.6 OFFCURVE",
"50.9 421.65 OFFCURVE",
"50.9 239.25 CURVE SMOOTH"
);
}
);
width = 524.8;
},
{
anchors = (
{
name = bottom;
position = "{261.396, -20}";
},
{
name = top;
position = "{262, 542}";
}
);
layerId = "9ED2045D-B62B-46E9-A722-9499BEB4CDB9";
paths = (
{
closed = 1;
nodes = (
"418.507 701.795 LINE",
"418.507 720.114 OFFCURVE",
"419.546 734.698 OFFCURVE",
"397.208 734.698 CURVE SMOOTH",
"383.984 734.698 LINE",
"378.286 729 LINE",
"378.286 103.338 LINE SMOOTH",
"378.286 61.604 OFFCURVE",
"379.416 19.341 OFFCURVE",
"418.338 -6.698 CURVE",
"431.828 -2.416 OFFCURVE",
"441.809 6.64 OFFCURVE",
"446.507 14.809 CURVE",
"418.789 42.734 OFFCURVE",
"418.507 89.263 OFFCURVE",
"418.507 135.886 CURVE SMOOTH"
);
},
{
closed = 1;
nodes = (
"58.643 89.396 OFFCURVE",
"116.643 -11.094 OFFCURVE",
"221.416 -11.094 CURVE SMOOTH",
"310 -11.094 OFFCURVE",
"372.773 46.867 OFFCURVE",
"402.906 98.62 CURVE",
"398.454 161.279 LINE",
"374.058 89.734 OFFCURVE",
"297.321 28.77 OFFCURVE",
"225.357 28.77 CURVE SMOOTH",
"161.111 28.77 OFFCURVE",
"99.052 87.601 OFFCURVE",
"99.052 237.792 CURVE SMOOTH",
"99.052 394.795 OFFCURVE",
"173.64 451.493 OFFCURVE",
"238.867 451.493 CURVE SMOOTH",
"309.227 451.493 OFFCURVE",
"365.851 408.266 OFFCURVE",
"403.549 380.172 CURVE",
"399.302 427.471 LINE",
"350.094 469.094 OFFCURVE",
"296.792 494.377 OFFCURVE",
"239.812 494.377 CURVE SMOOTH",
"161.662 494.377 OFFCURVE",
"58.643 424.114 OFFCURVE",
"58.643 237.49 CURVE SMOOTH"
);
}
);
width = 525;
}
);
leftKerningGroup = d;
unicode = 0064;
},
{
glyphname = e;
lastChange = "2018-10-19 19:05:17 +0000";
layers = (
{
anchors = (
{
name = bottom;
position = "{254, -20}";
},
{
name = top;
position = "{255, 542}";
}
);
layerId = UUID1;
paths = (
{
closed = 1;
nodes = (
"450 197 LINE",
"460 231 OFFCURVE",
"464 257 OFFCURVE",
"464 303 CURVE SMOOTH",
"464 424 OFFCURVE",
"386 515 OFFCURVE",
"254 515 CURVE SMOOTH",
"92 515 OFFCURVE",
"28 397 OFFCURVE",
"28 246 CURVE SMOOTH",
"28 114 OFFCURVE",
"75 -15 OFFCURVE",
"253 -15 CURVE SMOOTH",
"324 -15 OFFCURVE",
"400 5 OFFCURVE",
"451 42 CURVE",
"446 74 OFFCURVE",
"432 114 OFFCURVE",
"408 138 CURVE",
"368 122 OFFCURVE",
"324 109 OFFCURVE",
"280 109 CURVE SMOOTH",
"201 109 OFFCURVE",
"192 168 OFFCURVE",
"192 233 CURVE SMOOTH",
"192 282 LINE SMOOTH",
"192 363 OFFCURVE",
"207 399 OFFCURVE",
"253 399 CURVE SMOOTH",
"297 399 OFFCURVE",
"314 363 OFFCURVE",
"314 320 CURVE SMOOTH",
"314 309 LINE",
"133 309 LINE",
"133 197 LINE"
);
}
);
width = 496;
},
{
anchors = (
{
name = bottom;
position = "{253.05, -20}";
},
{
name = top;
position = "{255, 542}";
}
);
layerId = "59A137EB-1A44-4616-9625-4B79FA594CBD";
paths = (
{
closed = 1;
nodes = (
"440.5 222.65 LINE",
"443.85 247.15 OFFCURVE",
"445 263.65 OFFCURVE",
"445 288.75 CURVE SMOOTH",
"445 406.9 OFFCURVE",
"380.3 502.65 OFFCURVE",
"252.1 502.65 CURVE SMOOTH",
"124.3 502.65 OFFCURVE",
"51.75 394.15 OFFCURVE",
"51.75 246 CURVE SMOOTH",
"51.75 109.25 OFFCURVE",
"99.7 -12.15 OFFCURVE",
"249.2 -12.15 CURVE SMOOTH",
"317.35 -12.15 OFFCURVE",
"384.8 11.65 OFFCURVE",
"431.05 43.9 CURVE",
"428.9 59.75 OFFCURVE",
"417.75 82.65 OFFCURVE",
"404.2 95.25 CURVE",
"360.4 70.7 OFFCURVE",
"312.6 52.95 OFFCURVE",
"259.1 52.95 CURVE SMOOTH",
"161.1 52.95 OFFCURVE",
"130.25 130.95 OFFCURVE",
"130.25 239.65 CURVE SMOOTH",
"130.25 263 LINE SMOOTH",
"130.25 372.5 OFFCURVE",
"172.8 445.55 OFFCURVE",
"252.05 445.55 CURVE SMOOTH",
"336.9 445.55 OFFCURVE",
"370.05 376.3 OFFCURVE",
"370.05 293.4 CURVE SMOOTH",
"370.05 279.55 LINE",
"96.9 279.55 LINE",
"96.9 222.65 LINE"
);
}
);
width = 502.65;
},
{
anchors = (
{
name = bottom;
position = "{250, -20}";
},
{
name = top;
position = "{252, 542}";
}
);
layerId = "9ED2045D-B62B-46E9-A722-9499BEB4CDB9";
paths = (
{
closed = 1;
nodes = (
"434 232 LINE",
"435 253 OFFCURVE",
"435 266 OFFCURVE",
"435 284 CURVE SMOOTH",
"435 401 OFFCURVE",
"375 498 OFFCURVE",
"248 498 CURVE SMOOTH",
"134 498 OFFCURVE",
"57 393 OFFCURVE",
"57 246 CURVE SMOOTH",
"57 108 OFFCURVE",
"105 -11 OFFCURVE",
"245 -11 CURVE SMOOTH",
"312 -11 OFFCURVE",
"376 14 OFFCURVE",
"421 45 CURVE",
"420 55 OFFCURVE",
"410 72 OFFCURVE",
"400 79 CURVE",
"355 52 OFFCURVE",
"306 32 OFFCURVE",
"249 32 CURVE SMOOTH",
"143 32 OFFCURVE",
"104 117 OFFCURVE",
"104 242 CURVE SMOOTH",
"104 256 LINE SMOOTH",
"104 376 OFFCURVE",
"157 463 OFFCURVE",
"249 463 CURVE SMOOTH",
"349 463 OFFCURVE",
"388 381 OFFCURVE",
"388 284 CURVE SMOOTH",
"388 269 LINE",
"80 269 LINE",
"80 232 LINE"
);
}
);
width = 503;
}
);
leftKerningGroup = c;
rightKerningGroup = e;
unicode = 0065;
},
{
glyphname = f;
lastChange = "2018-10-19 19:05:17 +0000";
layers = (
{
anchors = (
{
name = bottom;
position = "{165, -20}";
},
{
name = top;
position = "{168, 542}";
}
);
layerId = UUID1;
paths = (
{
closed = 1;
nodes = (
"0 501 LINE",
"-4 483 OFFCURVE",
"-6 462 OFFCURVE",
"-6 444 CURVE SMOOTH",
"-6 426 OFFCURVE",
"-4 403 OFFCURVE",
"0 385 CURVE",
"164 388 LINE",
"364 385 LINE",
"368 403 OFFCURVE",
"370 426 OFFCURVE",
"370 444 CURVE SMOOTH",
"370 462 OFFCURVE",
"368 483 OFFCURVE",
"364 501 CURVE",
"166 499 LINE"
);
},
{
closed = 1;
nodes = (
"86 0 LINE",
"111 -4 OFFCURVE",
"139 -6 OFFCURVE",
"165 -6 CURVE SMOOTH",
"192 -6 OFFCURVE",
"221 -4 OFFCURVE",
"246 0 CURVE",
"246 431 LINE",
"241 467 OFFCURVE",
"230 514 OFFCURVE",
"230 551 CURVE SMOOTH",
"230 595 OFFCURVE",
"254 617 OFFCURVE",
"296 617 CURVE SMOOTH",
"323 617 OFFCURVE",
"353 609 OFFCURVE",
"372 604 CURVE",
"393 626 OFFCURVE",
"408 675 OFFCURVE",
"407 712 CURVE",
"372 725 OFFCURVE",
"315 740 OFFCURVE",
"250 740 CURVE SMOOTH",
"145 740 OFFCURVE",
"73 664 OFFCURVE",
"73 563 CURVE SMOOTH",
"73 517 OFFCURVE",
"82 475 OFFCURVE",
"86 432 CURVE"
);
}
);
width = 361;
},
{
anchors = (
{
name = bottom;
position = "{144.1, -20}";
},
{
name = top;
position = "{160.4, 542}";
}
);
layerId = "59A137EB-1A44-4616-9625-4B79FA594CBD";
paths = (
{
closed = 1;
nodes = (
"21.85 491.5 LINE",
"19.75 481.1 OFFCURVE",
"18.7 473.4 OFFCURVE",
"18.7 463 CURVE SMOOTH",
"18.7 452.6 OFFCURVE",
"19.75 443.85 OFFCURVE",
"21.85 434.4 CURVE",
"143.1 436.45 LINE",
"322.2 434.4 LINE",
"324.3 443.85 OFFCURVE",
"325.35 452.6 OFFCURVE",
"325.35 463 CURVE SMOOTH",
"325.35 473.4 OFFCURVE",
"324.3 481.1 OFFCURVE",
"322.2 491.5 CURVE",
"142.25 489.5 LINE"
);
},
{
closed = 1;
nodes = (
"107.85 0 LINE",
"118.6 -2.1 OFFCURVE",
"132.35 -3.15 OFFCURVE",
"144.1 -3.15 CURVE SMOOTH",
"155.9 -3.15 OFFCURVE",
"169.7 -2.1 OFFCURVE",
"180.45 0 CURVE",
"180.45 455.7 LINE",
"173.55 505 OFFCURVE",
"167.3 549.15 OFFCURVE",
"167.3 589.95 CURVE SMOOTH",
"167.3 649.15 OFFCURVE",
"197 682.55 OFFCURVE",
"245.65 682.55 CURVE SMOOTH",
"274.55 682.55 OFFCURVE",
"307.4 675.5 OFFCURVE",
"336.85 666.7 CURVE",
"348.35 679.2 OFFCURVE",
"354.8 699.7 OFFCURVE",
"354.75 717.7 CURVE",
"326.4 728.8 OFFCURVE",
"277 739.05 OFFCURVE",
"241.45 739.05 CURVE SMOOTH",
"146.9 739.05 OFFCURVE",
"97.7 675.4 OFFCURVE",
"97.7 593.4 CURVE SMOOTH",
"97.7 555 OFFCURVE",
"103.85 507.3 OFFCURVE",
"107.85 457.65 CURVE"
);
}
);
width = 320.15;
},
{
anchors = (
{
name = bottom;
position = "{137, -20}";
},
{
name = top;
position = "{159, 542}";
}
);
layerId = "9ED2045D-B62B-46E9-A722-9499BEB4CDB9";
paths = (
{
closed = 1;
nodes = (
"31 488 LINE",
"30 480 OFFCURVE",
"29 478 OFFCURVE",
"29 470 CURVE SMOOTH",
"29 462 OFFCURVE",
"30 459 OFFCURVE",
"31 453 CURVE",
"136 454 LINE",
"308 453 LINE",
"309 459 OFFCURVE",
"310 462 OFFCURVE",
"310 470 CURVE SMOOTH",
"310 478 OFFCURVE",
"309 480 OFFCURVE",
"308 488 CURVE",
"134 486 LINE"
);
},
{
closed = 1;
nodes = (
"117 0 LINE",
"122 -1 OFFCURVE",
"131 -2 OFFCURVE",
"137 -2 CURVE SMOOTH",
"144 -2 OFFCURVE",
"152 -1 OFFCURVE",
"157 0 CURVE",
"157 465 LINE",
"150 519 OFFCURVE",
"145 562 OFFCURVE",
"145 604 CURVE SMOOTH",
"145 669 OFFCURVE",
"177 707 OFFCURVE",
"228 707 CURVE SMOOTH",
"258 707 OFFCURVE",
"292 700 OFFCURVE",
"325 690 CURVE",
"333 699 OFFCURVE",
"336 709 OFFCURVE",
"336 720 CURVE",
"311 730 OFFCURVE",
"264 739 OFFCURVE",
"239 739 CURVE SMOOTH",
"149 739 OFFCURVE",
"108 680 OFFCURVE",
"108 605 CURVE SMOOTH",
"108 569 OFFCURVE",
"113 519 OFFCURVE",
"117 467 CURVE"
);
}
);
width = 320;
}
);
leftKerningGroup = f;
unicode = 0066;
},
{
glyphname = g;
lastChange = "2018-10-19 19:05:17 +0000";
layers = (
{
anchors = (
{
name = bottom;
position = "{264, -232}";
},
{
name = top;
position = "{274, 542}";
}
);
layerId = UUID1;
paths = (
{
closed = 1;
nodes = (
"506 453 OFFCURVE",
"481 492 OFFCURVE",
"461 508 CURVE",
"370 508 OFFCURVE",
"322 441 OFFCURVE",
"322 355 CURVE",
"322 -4 LINE SMOOTH",
"322 -63 OFFCURVE",
"293 -100 OFFCURVE",
"224 -100 CURVE SMOOTH",
"179 -100 OFFCURVE",
"132 -89 OFFCURVE",
"89 -70 CURVE",
"66 -97 OFFCURVE",
"49 -150 OFFCURVE",
"49 -188 CURVE",
"102 -208 OFFCURVE",
"176 -221 OFFCURVE",
"239 -221 CURVE SMOOTH",
"320 -221 OFFCURVE",
"389 -199 OFFCURVE",
"430 -147 CURVE SMOOTH",
"461 -107 OFFCURVE",
"482 -48 OFFCURVE",
"482 96 CURVE SMOOTH",
"482 355 LINE SMOOTH",
"482 386 OFFCURVE",
"494 413 OFFCURVE",
"510 424 CURVE"
);
},
{
closed = 1;
nodes = (
"30 97 OFFCURVE",
"88 -10 OFFCURVE",
"211 -10 CURVE SMOOTH",
"280 -10 OFFCURVE",
"345 30 OFFCURVE",
"379 88 CURVE",
"356 201 LINE",
"330 147 OFFCURVE",
"291 121 OFFCURVE",
"253 121 CURVE SMOOTH",
"221 121 OFFCURVE",
"198 159 OFFCURVE",
"198 248 CURVE SMOOTH",
"198 337 OFFCURVE",
"214 394 OFFCURVE",
"261 394 CURVE SMOOTH",
"295 394 OFFCURVE",
"342 355 OFFCURVE",
"381 280 CURVE",
"408 413 LINE",
"384 457 OFFCURVE",
"331 515 OFFCURVE",
"232 515 CURVE SMOOTH",
"121 515 OFFCURVE",
"30 420 OFFCURVE",
"30 249 CURVE SMOOTH"
);
}
);
width = 537;
},
{
anchors = (
{
name = bottom;
position = "{255.45, -232}";
},
{
name = top;
position = "{257.85, 542}";
}
);
layerId = "59A137EB-1A44-4616-9625-4B79FA594CBD";
paths = (
{
closed = 1;
nodes = (
"459.45 472.95 OFFCURVE",
"445.85 490.1 OFFCURVE",
"430.6 497.55 CURVE",
"377.6 478.55 OFFCURVE",
"365.7 429.6 OFFCURVE",
"365.7 375.9 CURVE",
"365.7 -0.2 LINE SMOOTH",
"365.7 -84.85 OFFCURVE",
"348.1 -159.85 OFFCURVE",
"230.65 -159.85 CURVE SMOOTH",
"194.2 -159.85 OFFCURVE",
"134.85 -147.9 OFFCURVE",
"93.75 -127.95 CURVE",
"82.15 -141.65 OFFCURVE",
"73.7 -166.15 OFFCURVE",
"72.75 -186.1 CURVE",
"115.3 -204.2 OFFCURVE",
"176.95 -220.05 OFFCURVE",
"238.05 -220.05 CURVE SMOOTH",
"310.5 -220.05 OFFCURVE",
"363.35 -191.4 OFFCURVE",
"391.05 -157.45 CURVE SMOOTH",
"423 -118.4 OFFCURVE",
"436.4 -63.2 OFFCURVE",
"436.4 38.05 CURVE SMOOTH",
"436.4 352.15 LINE SMOOTH",
"436.4 394.55 OFFCURVE",
"439.85 435.8 OFFCURVE",
"464.4 459.15 CURVE"
);
},
{
closed = 1;
nodes = (
"50.9 92.25 OFFCURVE",
"108.9 -8.1 OFFCURVE",
"221.45 -8.1 CURVE SMOOTH",
"305.65 -8.1 OFFCURVE",
"368.75 52.8 OFFCURVE",
"393.25 91.8 CURVE",
"381.65 155.4 LINE",
"352.8 101.4 OFFCURVE",
"292.9 56.4 OFFCURVE",
"232.1 56.4 CURVE SMOOTH",
"174.45 56.4 OFFCURVE",
"125.8 110.55 OFFCURVE",
"125.8 244.2 CURVE SMOOTH",
"125.8 381.65 OFFCURVE",
"182.65 438.65 OFFCURVE",
"246.75 438.65 CURVE SMOOTH",
"304.5 438.65 OFFCURVE",
"363.85 400.6 OFFCURVE",
"397.15 356 CURVE",
"405.15 422.5 LINE",
"366.9 463.65 OFFCURVE",
"318.65 502.65 OFFCURVE",
"236.75 502.65 CURVE SMOOTH",
"150.45 502.65 OFFCURVE",
"50.9 424.75 OFFCURVE",
"50.9 244.25 CURVE SMOOTH"
);
}
);
width = 523.7;
},
{
anchors = (
{
name = bottom;
position = "{252.282, -232}";
},
{
name = top;
position = "{251.867, 542}";
}
);
layerId = "9ED2045D-B62B-46E9-A722-9499BEB4CDB9";
paths = (
{
closed = 1;
nodes = (
"442.205 480.341 OFFCURVE",
"432.828 489.396 OFFCURVE",
"419.338 493.679 CURVE",
"380.416 467.64 OFFCURVE",
"381.889 425.377 OFFCURVE",
"381.889 383.643 CURVE",
"381.889 1.208 LINE SMOOTH",
"381.889 -92.945 OFFCURVE",
"368.513 -182.022 OFFCURVE",
"233.114 -182.022 CURVE SMOOTH",
"199.831 -182.022 OFFCURVE",
"135.906 -169.721 OFFCURVE",
"95.51 -149.419 CURVE",
"88.133 -158.191 OFFCURVE",
"82.851 -172.133 OFFCURVE",
"81.549 -185.396 CURVE",
"120.227 -202.792 OFFCURVE",
"177.302 -219.698 OFFCURVE",
"237.698 -219.698 CURVE SMOOTH",
"306.981 -219.698 OFFCURVE",
"353.847 -188.584 OFFCURVE",
"376.62 -161.321 CURVE SMOOTH",
"408.922 -122.623 OFFCURVE",
"419.507 -68.831 OFFCURVE",
"419.507 16.581 CURVE SMOOTH",
"419.507 351.094 LINE SMOOTH",
"419.507 397.717 OFFCURVE",
"419.789 444.247 OFFCURVE",
"447.507 472.172 CURVE"
);
},
{
closed = 1;
nodes = (
"58.643 90.49 OFFCURVE",
"116.643 -7.396 OFFCURVE",
"225.321 -7.396 CURVE SMOOTH",
"315.152 -7.396 OFFCURVE",
"377.549 61.247 OFFCURVE",
"398.529 93.208 CURVE",
"391.152 138.507 LINE",
"361.247 84.507 OFFCURVE",
"293.604 32.468 OFFCURVE",
"224.357 32.468 CURVE SMOOTH",
"157.205 32.468 OFFCURVE",
"99.052 92.601 OFFCURVE",
"99.052 242.792 CURVE SMOOTH",
"99.052 398.191 OFFCURVE",
"171.036 455.191 OFFCURVE",
"241.471 455.191 CURVE SMOOTH",
"308.019 455.191 OFFCURVE",
"371.945 417.493 OFFCURVE",
"403.133 384.156 CURVE",
"404.094 426.019 LINE",
"360.565 466.114 OFFCURVE",
"314.075 498.075 OFFCURVE",
"238.51 498.075 CURVE SMOOTH",
"161.36 498.075 OFFCURVE",
"58.643 426.51 OFFCURVE",
"58.643 242.49 CURVE SMOOTH"
);
}
);
width = 524;
}
);
leftKerningGroup = d;
unicode = 0067;
},
{
glyphname = h;
lastChange = "2018-10-19 19:05:17 +0000";
layers = (
{
anchors = (
{
name = bottom;
position = "{278, -20}";
},
{
name = top;
position = "{132, 771}";
}
);
layerId = UUID1;
paths = (
{
closed = 1;
nodes = (
"217 638 LINE",
"217 711 OFFCURVE",
"192 736 OFFCURVE",
"128 736 CURVE SMOOTH",
"64 736 LINE",
"57 729 LINE",
"57 0 LINE",
"82 -4 OFFCURVE",
"110 -6 OFFCURVE",
"136 -6 CURVE SMOOTH",
"165 -6 OFFCURVE",
"194 -4 OFFCURVE",
"217 0 CURVE"
);
},
{
closed = 1;
nodes = (
"488 329 LINE",
"488 435 OFFCURVE",
"438 509 OFFCURVE",
"347 509 CURVE SMOOTH",
"276 509 OFFCURVE",
"225 465 OFFCURVE",
"178 420 CURVE",
"178 278 LINE",
"208 341 OFFCURVE",
"256 362 OFFCURVE",
"284 362 CURVE SMOOTH",
"315 362 OFFCURVE",
"324 342 OFFCURVE",
"324 300 CURVE SMOOTH",
"324 93 LINE SMOOTH",
"324 28 OFFCURVE",
"346 -8 OFFCURVE",
"412 -8 CURVE SMOOTH",
"453 -8 OFFCURVE",
"490 7 OFFCURVE",
"514 27 CURVE",
"495 53 OFFCURVE",
"488 88 OFFCURVE",
"488 128 CURVE SMOOTH"
);
}
);
width = 543;
},
{
anchors = (
{
name = bottom;
position = "{275.15, -20}";
},
{
name = top;
position = "{122.5, 781.45}";
}
);
layerId = "59A137EB-1A44-4616-9625-4B79FA594CBD";
paths = (
{
closed = 1;
nodes = (
"160.95 684.55 LINE",
"160.95 717.65 OFFCURVE",
"154.95 735.05 OFFCURVE",
"121.35 735.05 CURVE SMOOTH",
"94.4 735.05 LINE",
"88.35 729 LINE",
"88.35 0 LINE",
"98.15 -2.1 OFFCURVE",
"110 -3.15 OFFCURVE",
"124.6 -3.15 CURVE SMOOTH",
"138.4 -3.15 OFFCURVE",
"151.25 -2.1 OFFCURVE",
"160.95 0 CURVE"
);
},
{
closed = 1;
nodes = (
"461.4 342.3 LINE",
"461.4 427.4 OFFCURVE",
"427.55 498.55 OFFCURVE",
"332.75 498.55 CURVE SMOOTH",
"259.85 498.55 OFFCURVE",
"184.15 459.3 OFFCURVE",
"140.95 404.8 CURVE",
"140.95 326.45 LINE",
"173.8 384.7 OFFCURVE",
"253.15 431.35 OFFCURVE",
"314.4 431.35 CURVE SMOOTH",
"372 431.35 OFFCURVE",
"387.65 398.05 OFFCURVE",
"387.65 319 CURVE SMOOTH",
"387.65 42.65 LINE SMOOTH",
"387.65 9.95 OFFCURVE",
"398.25 -6.1 OFFCURVE",
"426.25 -6.1 CURVE SMOOTH",
"443.5 -6.1 OFFCURVE",
"462.45 0.35 OFFCURVE",
"473.15 9.9 CURVE",
"463.65 32.1 OFFCURVE",
"461.4 62.35 OFFCURVE",
"461.4 94.75 CURVE SMOOTH"
);
}
);
width = 543.95;
},
{
anchors = (
{
name = bottom;
position = "{271, -20}";
},
{
name = top;
position = "{116, 785}";
}
);
layerId = "9ED2045D-B62B-46E9-A722-9499BEB4CDB9";
paths = (
{
closed = 1;
nodes = (
"137 702 LINE",
"137 720 OFFCURVE",
"138 735 OFFCURVE",
"116 735 CURVE SMOOTH",
"102 735 LINE",
"96 729 LINE",
"96 0 LINE",
"101 -1 OFFCURVE",
"107 -2 OFFCURVE",
"118 -2 CURVE SMOOTH",
"126 -2 OFFCURVE",
"132 -1 OFFCURVE",
"137 0 CURVE"
);
},
{
closed = 1;
nodes = (
"449 347 LINE",
"449 425 OFFCURVE",
"421 495 OFFCURVE",
"325 495 CURVE SMOOTH",
"251 495 OFFCURVE",
"166 457 OFFCURVE",
"124 399 CURVE",
"124 345 LINE",
"158 401 OFFCURVE",
"249 457 OFFCURVE",
"322 457 CURVE SMOOTH",
"390 457 OFFCURVE",
"408 419 OFFCURVE",
"408 326 CURVE SMOOTH",
"408 24 LINE SMOOTH",
"408 4 OFFCURVE",
"415 -5 OFFCURVE",
"428 -5 CURVE SMOOTH",
"437 -5 OFFCURVE",
"450 -2 OFFCURVE",
"455 4 CURVE",
"450 25 OFFCURVE",
"449 53 OFFCURVE",
"449 82 CURVE SMOOTH"
);
}
);
width = 544;
}
);
rightKerningGroup = h;
unicode = 0068;
},
{
glyphname = k;
lastChange = "2018-10-19 19:05:17 +0000";
layers = (
{
anchors = (
{
name = bottom;
position = "{274, -20}";
},
{
name = top;
position = "{244, 542}";
}
);
layerId = UUID1;
paths = (
{
closed = 1;
nodes = (
"217 638 LINE",
"217 711 OFFCURVE",
"192 736 OFFCURVE",
"128 736 CURVE SMOOTH",
"64 736 LINE",
"57 729 LINE",
"57 0 LINE",
"81 -4 OFFCURVE",
"109 -6 OFFCURVE",
"136 -6 CURVE SMOOTH",
"164 -6 OFFCURVE",
"194 -4 OFFCURVE",
"217 0 CURVE"
);
},
{
closed = 1;
nodes = (
"449 201 LINE",
"426 270 OFFCURVE",
"367 299 OFFCURVE",
"294 299 CURVE SMOOTH",
"134 299 LINE",
"134 187 LINE",
"175 192 LINE SMOOTH",
"197 195 OFFCURVE",
"216 198 OFFCURVE",
"246 198 CURVE SMOOTH",
"271 198 OFFCURVE",
"287 189 OFFCURVE",
"300 148 CURVE SMOOTH",
"328 63 LINE SMOOTH",
"345 11 OFFCURVE",
"364 -8 OFFCURVE",
"410 -8 CURVE SMOOTH",
"452 -8 OFFCURVE",
"494 14 OFFCURVE",
"520 43 CURVE",
"491 64 OFFCURVE",
"483 94 OFFCURVE",
"472 129 CURVE SMOOTH"
);
},
{
closed = 1;
nodes = (
"494 494 LINE",
"488 502 LINE",
"458 503 OFFCURVE",
"431 504 OFFCURVE",
"396 504 CURVE SMOOTH",
"353 504 OFFCURVE",
"325 484 OFFCURVE",
"306 445 CURVE SMOOTH",
"259 350 LINE SMOOTH",
"251 335 OFFCURVE",
"245 332 OFFCURVE",
"230 332 CURVE SMOOTH",
"154 331 LINE",
"154 256 LINE",
"241 256 LINE SMOOTH",
"332 256 OFFCURVE",
"391 287 OFFCURVE",
"422 348 CURVE SMOOTH"
);
}
);
width = 526;
},
{
anchors = (
{
name = bottom;
position = "{265.45, -20}";
},
{
name = top;
position = "{244, 542}";
}
);
layerId = "59A137EB-1A44-4616-9625-4B79FA594CBD";
paths = (
{
closed = 1;
nodes = (
"160.95 684.55 LINE",
"160.95 717.65 OFFCURVE",
"154.95 735.05 OFFCURVE",
"121.35 735.05 CURVE SMOOTH",
"94.4 735.05 LINE",
"88.35 729 LINE",
"88.35 0 LINE",
"98.1 -2.1 OFFCURVE",
"109.95 -3.15 OFFCURVE",
"124.6 -3.15 CURVE SMOOTH",
"138.35 -3.15 OFFCURVE",
"151.25 -2.1 OFFCURVE",
"160.95 0 CURVE"
);
},
{
closed = 1;
nodes = (
"380.6 179.15 LINE",
"350 247.2 OFFCURVE",
"316.65 274.3 OFFCURVE",
"244.6 274.3 CURVE SMOOTH",
"123.55 274.3 LINE",
"123.55 217.4 LINE",
"156.95 220.5 LINE SMOOTH",
"180.85 222.55 OFFCURVE",
"200.8 223.65 OFFCURVE",
"214.65 223.65 CURVE SMOOTH",
"271 223.65 OFFCURVE",
"289.85 207.05 OFFCURVE",
"315.2 149.9 CURVE SMOOTH",
"361.25 45.9 LINE SMOOTH",
"375.4 13.85 OFFCURVE",
"385.85 -6.1 OFFCURVE",
"418.55 -6.1 CURVE SMOOTH",
"437.75 -6.1 OFFCURVE",
"458.85 4.5 OFFCURVE",
"467.75 16.4 CURVE",
"450.15 28.85 OFFCURVE",
"434.55 56.95 OFFCURVE",
"419.75 91 CURVE SMOOTH"
);
},
{
closed = 1;
nodes = (
"433.2 484.5 LINE",
"427.2 492.5 LINE",
"413.35 493.5 OFFCURVE",
"404.4 493.55 OFFCURVE",
"390.3 493.55 CURVE SMOOTH",
"359.65 493.55 OFFCURVE",
"348.75 480.2 OFFCURVE",
"333.55 457.35 CURVE SMOOTH",
"226.7 298.7 LINE SMOOTH",
"220.6 290.35 OFFCURVE",
"213.65 285.45 OFFCURVE",
"204.35 285.45 CURVE SMOOTH",
"129.3 281.6 LINE",
"129.3 247.45 LINE",
"210.6 247.45 LINE SMOOTH",
"251.25 247.45 OFFCURVE",
"280.8 260.4 OFFCURVE",
"306.1 298.6 CURVE SMOOTH"
);
}
);
width = 489.9;
},
{
anchors = (
{
name = bottom;
position = "{264, -20}";
},
{
name = top;
position = "{246, 542}";
}
);
layerId = "9ED2045D-B62B-46E9-A722-9499BEB4CDB9";
paths = (
{
closed = 1;
nodes = (
"142 702 LINE",
"142 720 OFFCURVE",
"143 735 OFFCURVE",
"121 735 CURVE SMOOTH",
"108 735 LINE",
"102 729 LINE",
"102 0 LINE",
"106 -1 OFFCURVE",
"112 -2 OFFCURVE",
"122 -2 CURVE SMOOTH",
"131 -2 OFFCURVE",
"137 -1 OFFCURVE",
"142 0 CURVE"
);
},
{
closed = 1;
nodes = (
"357 171 LINE",
"324 239 OFFCURVE",
"300 265 OFFCURVE",
"228 265 CURVE SMOOTH",
"122 265 LINE",
"122 229 LINE",
"152 231 LINE SMOOTH",
"177 233 OFFCURVE",
"197 233 OFFCURVE",
"205 233 CURVE SMOOTH",
"273 233 OFFCURVE",
"293 214 OFFCURVE",
"323 151 CURVE SMOOTH",
"376 40 LINE SMOOTH",
"389 15 OFFCURVE",
"396 -5 OFFCURVE",
"424 -5 CURVE SMOOTH",
"434 -5 OFFCURVE",
"448 1 OFFCURVE",
"450 7 CURVE",
"437 16 OFFCURVE",
"419 43 OFFCURVE",
"402 77 CURVE SMOOTH"
);
},
{
closed = 1;
nodes = (
"413 481 LINE",
"407 489 LINE",
"399 490 OFFCURVE",
"397 490 OFFCURVE",
"390 490 CURVE SMOOTH",
"364 490 OFFCURVE",
"360 479 OFFCURVE",
"346 462 CURVE SMOOTH",
"217 280 LINE SMOOTH",
"211 274 OFFCURVE",
"204 268 OFFCURVE",
"197 268 CURVE SMOOTH",
"122 263 LINE",
"122 244 LINE",
"201 244 LINE SMOOTH",
"223 244 OFFCURVE",
"242 251 OFFCURVE",
"265 280 CURVE SMOOTH"
);
}
);
width = 490;
}
);
rightKerningGroup = k;
unicode = 006B;
},
{
glyphname = l;
lastChange = "2018-10-19 19:05:17 +0000";
layers = (
{
anchors = (
{
name = bottom;
position = "{180, -20}";
},
{
name = top;
position = "{132, 771}";
}
);
layerId = UUID1;
paths = (
{
closed = 1;
nodes = (
"260 119 LINE",
"228 119 OFFCURVE",
"216 136 OFFCURVE",
"216 167 CURVE SMOOTH",
"216 638 LINE SMOOTH",
"216 711 OFFCURVE",
"191 736 OFFCURVE",
"127 736 CURVE SMOOTH",
"63 736 LINE",
"56 729 LINE",
"56 139 LINE SMOOTH",
"56 40 OFFCURVE",
"90 -5 OFFCURVE",
"184 -5 CURVE SMOOTH",
"224 -5 OFFCURVE",
"264 0 OFFCURVE",
"295 5 CURVE",
"298 16 OFFCURVE",
"299 30 OFFCURVE",
"299 42 CURVE SMOOTH",
"299 68 OFFCURVE",
"294 96 OFFCURVE",
"286 119 CURVE"
);
}
);
width = 316;
},
{
anchors = (
{
name = bottom;
position = "{164.8, -20}";
},
{
name = top;
position = "{119.65, 781.45}";
}
);
layerId = "59A137EB-1A44-4616-9625-4B79FA594CBD";
paths = (
{
closed = 1;
nodes = (
"196.35 57.25 LINE",
"171.95 57.25 OFFCURVE",
"159 71.4 OFFCURVE",
"159 99.55 CURVE SMOOTH",
"159 684.55 LINE SMOOTH",
"159 717.65 OFFCURVE",
"153 735.05 OFFCURVE",
"119.4 735.05 CURVE SMOOTH",
"92.45 735.05 LINE",
"86.4 729 LINE",
"86.4 79.15 LINE SMOOTH",
"86.4 24.8 OFFCURVE",
"120.4 -4.05 OFFCURVE",
"170.7 -4.05 CURVE SMOOTH",
"191.7 -4.05 OFFCURVE",
"224.1 -0.95 OFFCURVE",
"243.7 2.15 CURVE",
"244.8 6.5 OFFCURVE",
"244.85 11.95 OFFCURVE",
"244.85 17.3 CURVE SMOOTH",
"244.85 31.9 OFFCURVE",
"242.7 46.6 OFFCURVE",
"238.5 57.25 CURVE"
);
}
);
width = 282.75;
},
{
anchors = (
{
name = bottom;
position = "{162, -20}";
},
{
name = top;
position = "{118, 785}";
}
);
layerId = "9ED2045D-B62B-46E9-A722-9499BEB4CDB9";
paths = (
{
closed = 1;
nodes = (
"176 34 LINE",
"154 34 OFFCURVE",
"141 47 OFFCURVE",
"141 75 CURVE SMOOTH",
"141 702 LINE SMOOTH",
"141 720 OFFCURVE",
"142 735 OFFCURVE",
"120 735 CURVE SMOOTH",
"106 735 LINE",
"101 729 LINE",
"101 57 LINE SMOOTH",
"101 19 OFFCURVE",
"135 -4 OFFCURVE",
"169 -4 CURVE SMOOTH",
"183 -4 OFFCURVE",
"212 -1 OFFCURVE",
"228 1 CURVE",
"228 3 OFFCURVE",
"228 5 OFFCURVE",
"228 8 CURVE SMOOTH",
"228 19 OFFCURVE",
"227 28 OFFCURVE",
"224 34 CURVE"
);
}
);
width = 283;
}
);
leftKerningGroup = l;
rightKerningGroup = l;
unicode = 006C;
},
{
glyphname = m;
lastChange = "2018-10-19 19:05:17 +0000";
layers = (
{
anchors = (
{
name = bottom;
position = "{406, -20}";
},
{
name = top;
position = "{397, 542}";
}
);
layerId = UUID1;
paths = (
{
closed = 1;
nodes = (
"64 507 LINE",
"57 500 LINE",
"57 0 LINE",
"81 -4 OFFCURVE",
"112 -6 OFFCURVE",
"139 -6 CURVE SMOOTH",
"167 -6 OFFCURVE",
"198 -4 OFFCURVE",
"221 0 CURVE",
"221 388 LINE SMOOTH",
"221 461 OFFCURVE",
"187 507 OFFCURVE",
"125 507 CURVE SMOOTH"
);
},
{
closed = 1;
nodes = (
"324 0 LINE",
"348 -4 OFFCURVE",
"379 -6 OFFCURVE",
"406 -6 CURVE SMOOTH",
"434 -6 OFFCURVE",
"465 -4 OFFCURVE",
"488 0 CURVE",
"488 351 LINE SMOOTH",
"488 443 OFFCURVE",
"437 509 OFFCURVE",
"350 509 CURVE SMOOTH",
"277 509 OFFCURVE",
"216 451 OFFCURVE",
"168 399 CURVE",
"168 259 LINE",
"184 303 OFFCURVE",
"239 361 OFFCURVE",
"281 362 CURVE SMOOTH",
"300 362 OFFCURVE",
"324 350 OFFCURVE",
"324 299 CURVE"
);
},
{
closed = 1;
nodes = (
"591 93 LINE SMOOTH",
"591 28 OFFCURVE",
"613 -8 OFFCURVE",
"679 -8 CURVE SMOOTH",
"720 -8 OFFCURVE",
"757 7 OFFCURVE",
"781 27 CURVE",
"762 53 OFFCURVE",
"755 88 OFFCURVE",
"755 128 CURVE SMOOTH",
"755 349 LINE SMOOTH",
"755 441 OFFCURVE",
"709 509 OFFCURVE",
"621 509 CURVE SMOOTH",
"550 509 OFFCURVE",
"475 456 OFFCURVE",
"431 402 CURVE",
"431 253 LINE",
"453 302 OFFCURVE",
"508 362 OFFCURVE",
"546 362 CURVE SMOOTH",
"565 362 OFFCURVE",
"591 351 OFFCURVE",
"591 300 CURVE"
);
}
);
width = 810;
},
{
anchors = (
{
name = bottom;
position = "{398.4, -20}";
},
{
name = top;
position = "{395.1, 542}";
}
);
layerId = "59A137EB-1A44-4616-9625-4B79FA594CBD";
paths = (
{
closed = 1;
nodes = (
"94.4 493.7 LINE",
"88.35 486.7 LINE",
"88.35 0 LINE",
"98.1 -2.1 OFFCURVE",
"111.05 -3.15 OFFCURVE",
"125.7 -3.15 CURVE SMOOTH",
"139.45 -3.15 OFFCURVE",
"152.4 -2.1 OFFCURVE",
"162.1 0 CURVE",
"162.1 442.15 LINE SMOOTH",
"162.1 475.25 OFFCURVE",
"155.65 493.7 OFFCURVE",
"122.15 493.7 CURVE SMOOTH"
);
},
{
closed = 1;
nodes = (
"361.05 0 LINE",
"370.8 -2.1 OFFCURVE",
"383.75 -3.15 OFFCURVE",
"398.4 -3.15 CURVE SMOOTH",
"412.15 -3.15 OFFCURVE",
"425.1 -2.1 OFFCURVE",
"434.8 0 CURVE",
"434.8 345.3 LINE SMOOTH",
"434.8 429.7 OFFCURVE",
"396.15 499.5 OFFCURVE",
"309.15 499.5 CURVE SMOOTH",
"244.7 499.5 OFFCURVE",
"177.05 458.6 OFFCURVE",
"135.7 392.35 CURVE",
"135.7 310.3 LINE",
"167.85 383.75 OFFCURVE",
"239.95 432.25 OFFCURVE",
"293.35 432.3 CURVE SMOOTH",
"342.75 432.3 OFFCURVE",
"361.05 399.4 OFFCURVE",
"361.05 319.9 CURVE"
);
},
{
closed = 1;
nodes = (
"634.7 42.65 LINE SMOOTH",
"634.7 9.95 OFFCURVE",
"645.3 -6.1 OFFCURVE",
"673.3 -6.1 CURVE SMOOTH",
"690.55 -6.1 OFFCURVE",
"709.5 0.35 OFFCURVE",
"720.2 9.9 CURVE",
"710.7 32.1 OFFCURVE",
"708.45 62.35 OFFCURVE",
"708.45 94.75 CURVE SMOOTH",
"708.45 345.2 LINE SMOOTH",
"708.45 429.6 OFFCURVE",
"670.05 499.5 OFFCURVE",
"583 499.5 CURVE SMOOTH",
"518.65 499.5 OFFCURVE",
"457.9 462.65 OFFCURVE",
"406.3 408.65 CURVE",
"406.3 310 LINE",
"444.45 388.45 OFFCURVE",
"514.65 432.3 OFFCURVE",
"566.9 432.3 CURVE SMOOTH",
"616.3 432.3 OFFCURVE",
"634.7 400.4 OFFCURVE",
"634.7 320.9 CURVE"
);
}
);
width = 791;
},
{
anchors = (
{
name = bottom;
position = "{395.584, -20}";
},
{
name = top;
position = "{394.396, 542}";
}
);
layerId = "9ED2045D-B62B-46E9-A722-9499BEB4CDB9";
paths = (
{
closed = 1;
nodes = (
"105.662 488.773 LINE",
"99.964 481.773 LINE",
"99.964 0 LINE",
"104.435 -1.396 OFFCURVE",
"110.698 -2.094 OFFCURVE",
"120.773 -2.094 CURVE SMOOTH",
"129.244 -2.094 OFFCURVE",
"135.507 -1.396 OFFCURVE",
"140.279 0 CURVE",
"140.279 462.211 LINE SMOOTH",
"140.279 480.529 OFFCURVE",
"144.036 488.773 OFFCURVE",
"121.094 488.773 CURVE SMOOTH"
);
},
{
closed = 1;
nodes = (
"374.776 0 LINE",
"379.247 -1.396 OFFCURVE",
"385.51 -2.094 OFFCURVE",
"395.584 -2.094 CURVE SMOOTH",
"404.055 -2.094 OFFCURVE",
"410.318 -1.396 OFFCURVE",
"415.091 0 CURVE",
"415.091 343.188 LINE SMOOTH",
"415.091 424.773 OFFCURVE",
"381.016 495.981 OFFCURVE",
"294.016 495.981 CURVE SMOOTH",
"232.734 495.981 OFFCURVE",
"162.62 461.416 OFFCURVE",
"123.734 389.886 CURVE",
"123.734 329.305 LINE",
"161.867 413.665 OFFCURVE",
"240.302 458.646 OFFCURVE",
"297.925 458.344 CURVE SMOOTH",
"358.588 458.344 OFFCURVE",
"374.776 417.701 OFFCURVE",
"374.776 327.643 CURVE"
);
},
{
closed = 1;
nodes = (
"650.889 23.997 LINE SMOOTH",
"650.889 3.263 OFFCURVE",
"657.266 -5.396 OFFCURVE",
"671.188 -5.396 CURVE SMOOTH",
"679.64 -5.396 OFFCURVE",
"691.903 -2.114 OFFCURVE",
"697.676 3.565 CURVE",
"691.695 24.357 OFFCURVE",
"691.205 52.847 OFFCURVE",
"691.205 82.432 CURVE SMOOTH",
"691.205 343.792 LINE SMOOTH",
"691.205 425.377 OFFCURVE",
"655.62 495.981 OFFCURVE",
"568.922 495.981 CURVE SMOOTH",
"507.036 495.981 OFFCURVE",
"451.565 465.114 OFFCURVE",
"397.149 411.114 CURVE",
"397.149 331.117 LINE",
"441.283 420.477 OFFCURVE",
"517.114 458.344 OFFCURVE",
"574.643 458.344 CURVE SMOOTH",
"635.305 458.344 OFFCURVE",
"650.889 418.701 OFFCURVE",
"650.889 328.643 CURVE"
);
}
);
width = 791;
}
);
leftKerningGroup = m;
rightKerningGroup = h;
unicode = 006D;
},
{
glyphname = n;
lastChange = "2018-10-19 19:05:17 +0000";
layers = (
{
anchors = (
{
name = bottom;
position = "{282, -20}";
},
{
name = top;
position = "{281, 542}";
}
);
layerId = UUID1;
paths = (
{
closed = 1;
nodes = (
"64 507 LINE",
"57 500 LINE",
"57 0 LINE",
"81 -4 OFFCURVE",
"112 -6 OFFCURVE",
"139 -6 CURVE SMOOTH",
"167 -6 OFFCURVE",
"198 -4 OFFCURVE",
"221 0 CURVE",
"221 388 LINE SMOOTH",
"221 461 OFFCURVE",
"188 507 OFFCURVE",
"126 507 CURVE SMOOTH"
);
},
{
closed = 1;
nodes = (
"492 329 LINE",
"492 435 OFFCURVE",
"442 509 OFFCURVE",
"351 509 CURVE SMOOTH",
"280 509 OFFCURVE",
"229 465 OFFCURVE",
"182 420 CURVE",
"182 278 LINE",
"212 341 OFFCURVE",
"260 362 OFFCURVE",
"288 362 CURVE SMOOTH",
"319 362 OFFCURVE",
"328 342 OFFCURVE",
"328 300 CURVE SMOOTH",
"328 93 LINE SMOOTH",
"328 28 OFFCURVE",
"350 -8 OFFCURVE",
"416 -8 CURVE SMOOTH",
"457 -8 OFFCURVE",
"494 7 OFFCURVE",
"518 27 CURVE",
"499 53 OFFCURVE",
"492 88 OFFCURVE",
"492 128 CURVE SMOOTH"
);
}
);
width = 547;
},
{
anchors = (
{
name = bottom;
position = "{276.3, -20}";
},
{
name = top;
position = "{277.2, 542}";
}
);
layerId = "59A137EB-1A44-4616-9625-4B79FA594CBD";
paths = (
{
closed = 1;
nodes = (
"94.4 493.7 LINE",
"88.35 487.65 LINE",
"88.35 0 LINE",
"98.1 -2.1 OFFCURVE",
"111.05 -3.15 OFFCURVE",
"125.7 -3.15 CURVE SMOOTH",
"139.45 -3.15 OFFCURVE",
"152.4 -2.1 OFFCURVE",
"162.1 0 CURVE",
"162.1 442.15 LINE SMOOTH",
"162.1 475.25 OFFCURVE",
"155.7 493.7 OFFCURVE",
"122.2 493.7 CURVE SMOOTH"
);
},
{
closed = 1;
nodes = (
"462.55 343.25 LINE",
"462.55 428.35 OFFCURVE",
"428.7 499.5 OFFCURVE",
"333.9 499.5 CURVE SMOOTH",
"261 499.5 OFFCURVE",
"185.3 460.25 OFFCURVE",
"142.1 405.75 CURVE",
"142.1 327.4 LINE",
"174.95 385.65 OFFCURVE",
"254.3 432.3 OFFCURVE",
"315.55 432.3 CURVE SMOOTH",
"373.15 432.3 OFFCURVE",
"388.8 399 OFFCURVE",
"388.8 319.95 CURVE SMOOTH",
"388.8 42.65 LINE SMOOTH",
"388.8 9.95 OFFCURVE",
"399.4 -6.1 OFFCURVE",
"427.4 -6.1 CURVE SMOOTH",
"444.65 -6.1 OFFCURVE",
"463.6 0.35 OFFCURVE",
"474.3 9.9 CURVE",
"464.8 32.1 OFFCURVE",
"462.55 62.35 OFFCURVE",
"462.55 94.75 CURVE SMOOTH"
);
}
);
width = 545.1;
},
{
anchors = (
{
name = bottom;
position = "{274.188, -20}";
},
{
name = top;
position = "{275.792, 542}";
}
);
layerId = "9ED2045D-B62B-46E9-A722-9499BEB4CDB9";
paths = (
{
closed = 1;
nodes = (
"105.662 488.773 LINE",
"99.964 483.075 LINE",
"99.964 0 LINE",
"104.435 -1.396 OFFCURVE",
"110.698 -2.094 OFFCURVE",
"120.773 -2.094 CURVE SMOOTH",
"129.244 -2.094 OFFCURVE",
"135.507 -1.396 OFFCURVE",
"140.279 0 CURVE",
"140.279 462.211 LINE SMOOTH",
"140.279 480.529 OFFCURVE",
"143.734 488.773 OFFCURVE",
"120.792 488.773 CURVE SMOOTH"
);
},
{
closed = 1;
nodes = (
"451.64 348.529 LINE",
"451.64 425.886 OFFCURVE",
"423.773 495.981 OFFCURVE",
"327.565 495.981 CURVE SMOOTH",
"253.961 495.981 OFFCURVE",
"169.111 458.49 OFFCURVE",
"127.318 400.471 CURVE",
"127.318 345.701 LINE",
"161.224 402.191 OFFCURVE",
"252.188 458.344 OFFCURVE",
"325.756 458.344 CURVE SMOOTH",
"393.211 458.344 OFFCURVE",
"411.324 420.117 OFFCURVE",
"411.324 327.341 CURVE SMOOTH",
"411.324 23.997 LINE SMOOTH",
"411.324 3.263 OFFCURVE",
"417.701 -5.396 OFFCURVE",
"431.623 -5.396 CURVE SMOOTH",
"440.075 -5.396 OFFCURVE",
"452.338 -2.114 OFFCURVE",
"458.111 3.565 CURVE",
"452.13 24.357 OFFCURVE",
"451.64 52.847 OFFCURVE",
"451.64 82.432 CURVE SMOOTH"
);
}
);
width = 545;
}
);
leftKerningGroup = m;
rightKerningGroup = h;
unicode = 006E;
},
{
glyphname = o;
lastChange = "2018-10-19 19:05:17 +0000";
layers = (
{
anchors = (
{
name = bottom;
position = "{261, -20}";
},
{
name = top;
position = "{261, 542}";
}
);
layerId = UUID1;
paths = (
{
closed = 1;
nodes = (
"494 338 OFFCURVE",
"475 403 OFFCURVE",
"422 456 CURVE SMOOTH",
"380 497 OFFCURVE",
"324 515 OFFCURVE",
"261 515 CURVE SMOOTH",
"198 515 OFFCURVE",
"142 497 OFFCURVE",
"100 456 CURVE SMOOTH",
"47 403 OFFCURVE",
"28 338 OFFCURVE",
"28 250 CURVE SMOOTH",
"28 162 OFFCURVE",
"47 97 OFFCURVE",
"100 44 CURVE SMOOTH",
"142 3 OFFCURVE",
"198 -15 OFFCURVE",
"261 -15 CURVE SMOOTH",
"324 -15 OFFCURVE",
"380 3 OFFCURVE",
"422 44 CURVE SMOOTH",
"475 97 OFFCURVE",
"494 162 OFFCURVE",
"494 250 CURVE SMOOTH"
);
},
{
closed = 1;
nodes = (
"196 331 OFFCURVE",
"203 393 OFFCURVE",
"261 393 CURVE SMOOTH",
"319 393 OFFCURVE",
"326 331 OFFCURVE",
"326 250 CURVE SMOOTH",
"326 169 OFFCURVE",
"319 107 OFFCURVE",
"261 107 CURVE SMOOTH",
"203 107 OFFCURVE",
"196 169 OFFCURVE",
"196 250 CURVE SMOOTH"
);
}
);
width = 522;
},
{
anchors = (
{
name = bottom;
position = "{259.1, -20}";
},
{
name = top;
position = "{259.1, 542}";
}
);
layerId = "59A137EB-1A44-4616-9625-4B79FA594CBD";
paths = (
{
closed = 1;
nodes = (
"467.4 324.7 OFFCURVE",
"449.35 396.35 OFFCURVE",
"397.3 449.35 CURVE SMOOTH",
"361.95 484.65 OFFCURVE",
"316.4 502.65 OFFCURVE",
"259.1 502.65 CURVE SMOOTH",
"202.75 502.65 OFFCURVE",
"157.2 484.65 OFFCURVE",
"121.85 449.35 CURVE SMOOTH",
"69.8 396.35 OFFCURVE",
"51.75 324.7 OFFCURVE",
"51.75 245.25 CURVE SMOOTH",
"51.75 164.85 OFFCURVE",
"69.8 94.15 OFFCURVE",
"121.85 41.15 CURVE SMOOTH",
"157.2 5.85 OFFCURVE",
"202.75 -12.15 OFFCURVE",
"259.1 -12.15 CURVE SMOOTH",
"316.4 -12.15 OFFCURVE",
"361.95 5.85 OFFCURVE",
"397.3 41.15 CURVE SMOOTH",
"449.35 94.15 OFFCURVE",
"467.4 164.85 OFFCURVE",
"467.4 245.25 CURVE SMOOTH"
);
},
{
closed = 1;
nodes = (
"128.55 343.35 OFFCURVE",
"160.25 445.25 OFFCURVE",
"260.05 445.25 CURVE SMOOTH",
"358.9 445.25 OFFCURVE",
"390.6 343.35 OFFCURVE",
"390.6 245.25 CURVE SMOOTH",
"390.6 146.2 OFFCURVE",
"358.9 46.2 OFFCURVE",
"260.05 46.2 CURVE SMOOTH",
"160.25 46.2 OFFCURVE",
"128.55 146.2 OFFCURVE",
"128.55 245.25 CURVE SMOOTH"
);
}
);
width = 519.15;
},
{
anchors = (
{
name = bottom;
position = "{258.396, -20}";
},
{
name = top;
position = "{258.396, 542}";
}
);
layerId = "9ED2045D-B62B-46E9-A722-9499BEB4CDB9";
paths = (
{
closed = 1;
nodes = (
"457.546 319.773 OFFCURVE",
"439.847 393.886 OFFCURVE",
"388.149 446.886 CURVE SMOOTH",
"355.263 480.075 OFFCURVE",
"313.584 498.075 OFFCURVE",
"258.396 498.075 CURVE SMOOTH",
"204.51 498.075 OFFCURVE",
"162.831 480.075 OFFCURVE",
"129.945 446.886 CURVE SMOOTH",
"78.247 393.886 OFFCURVE",
"60.549 319.773 OFFCURVE",
"60.549 243.49 CURVE SMOOTH",
"60.549 165.906 OFFCURVE",
"78.247 93.094 OFFCURVE",
"129.945 40.094 CURVE SMOOTH",
"162.831 6.906 OFFCURVE",
"204.51 -11.094 OFFCURVE",
"258.396 -11.094 CURVE SMOOTH",
"313.584 -11.094 OFFCURVE",
"355.263 6.906 OFFCURVE",
"388.149 40.094 CURVE SMOOTH",
"439.847 93.094 OFFCURVE",
"457.546 165.906 OFFCURVE",
"457.546 243.49 CURVE SMOOTH"
);
},
{
closed = 1;
nodes = (
"103.562 347.925 OFFCURVE",
"144.413 464.607 OFFCURVE",
"259.698 464.607 CURVE SMOOTH",
"373.682 464.607 OFFCURVE",
"414.532 347.925 OFFCURVE",
"414.532 243.49 CURVE SMOOTH",
"414.532 137.753 OFFCURVE",
"373.682 23.676 OFFCURVE",
"259.698 23.676 CURVE SMOOTH",
"144.413 23.676 OFFCURVE",
"103.562 137.753 OFFCURVE",
"103.562 243.49 CURVE SMOOTH"
);
}
);
width = 519;
}
);
leftKerningGroup = c;
rightKerningGroup = o;
unicode = 006F;
},
{
glyphname = p;
lastChange = "2018-10-19 19:05:17 +0000";
layers = (
{
anchors = (
{
name = bottom;
position = "{262, -20}";
},
{
name = top;
position = "{262, 542}";
}
);
layerId = UUID1;
paths = (
{
closed = 1;
nodes = (
"64 507 LINE",
"57 500 LINE",
"57 -209 LINE",
"64 -216 LINE",
"128 -216 LINE SMOOTH",
"192 -216 OFFCURVE",
"218 -191 OFFCURVE",
"218 -118 CURVE SMOOTH",
"218 368 LINE SMOOTH",
"218 454 OFFCURVE",
"173 507 OFFCURVE",
"107 507 CURVE SMOOTH"
);
},
{
closed = 1;
nodes = (
"509 408 OFFCURVE",
"451 515 OFFCURVE",
"328 515 CURVE SMOOTH",
"229 515 OFFCURVE",
"148 431 OFFCURVE",
"140 348 CURVE",
"177 258 LINE",
"204 366 OFFCURVE",
"256 384 OFFCURVE",
"285 384 CURVE SMOOTH",
"318 384 OFFCURVE",
"341 346 OFFCURVE",
"341 257 CURVE SMOOTH",
"341 169 OFFCURVE",
"325 111 OFFCURVE",
"278 111 CURVE SMOOTH",
"248 111 OFFCURVE",
"207 136 OFFCURVE",
"168 168 CURVE",
"141 53 LINE",
"185 27 OFFCURVE",
"237 -10 OFFCURVE",
"307 -10 CURVE SMOOTH",
"419 -10 OFFCURVE",
"509 85 OFFCURVE",
"509 256 CURVE SMOOTH"
);
}
);
width = 539;
},
{
anchors = (
{
name = bottom;
position = "{262, -20}";
},
{
name = top;
position = "{262, 542}";
}
);
layerId = "59A137EB-1A44-4616-9625-4B79FA594CBD";
paths = (
{
closed = 1;
nodes = (
"94.4 493.7 LINE",
"88.35 487.65 LINE",
"88.35 -209 LINE",
"94.4 -215.05 LINE",
"121.35 -215.05 LINE SMOOTH",
"154.95 -215.05 OFFCURVE",
"161 -197.65 OFFCURVE",
"161 -164.55 CURVE SMOOTH",
"161 441.15 LINE SMOOTH",
"161 474.9 OFFCURVE",
"154 493.7 OFFCURVE",
"120.3 493.7 CURVE SMOOTH"
);
},
{
closed = 1;
nodes = (
"474.8 400.4 OFFCURVE",
"416.8 502.65 OFFCURVE",
"307.1 502.65 CURVE SMOOTH",
"215.7 502.65 OFFCURVE",
"148 437.65 OFFCURVE",
"123.85 377.45 CURVE",
"137.1 307.4 LINE",
"162.2 388.8 OFFCURVE",
"232.25 438.15 OFFCURVE",
"292.6 438.15 CURVE SMOOTH",
"348.4 438.15 OFFCURVE",
"399.9 384.95 OFFCURVE",
"399.9 251.3 CURVE SMOOTH",
"399.9 112.95 OFFCURVE",
"341.15 55.9 OFFCURVE",
"280.85 55.9 CURVE SMOOTH",
"221.4 55.9 OFFCURVE",
"169 94.2 OFFCURVE",
"130.95 123.35 CURVE",
"126.75 57.75 LINE",
"174.55 20.35 OFFCURVE",
"227.5 -8.1 OFFCURVE",
"288 -8.1 CURVE SMOOTH",
"375.3 -8.1 OFFCURVE",
"474.8 68.85 OFFCURVE",
"474.8 251.25 CURVE SMOOTH"
);
}
);
width = 525.7;
},
{
anchors = (
{
name = bottom;
position = "{262, -20}";
},
{
name = top;
position = "{262, 542}";
}
);
layerId = "9ED2045D-B62B-46E9-A722-9499BEB4CDB9";
paths = (
{
closed = 1;
nodes = (
"105.662 488.773 LINE",
"99.964 483.075 LINE",
"99.964 -209 LINE",
"105.662 -214.698 LINE",
"118.886 -214.698 LINE SMOOTH",
"141.224 -214.698 OFFCURVE",
"139.883 -200.114 OFFCURVE",
"139.883 -181.795 CURVE SMOOTH",
"139.883 468.25 LINE SMOOTH",
"139.883 482.643 OFFCURVE",
"146.961 488.773 OFFCURVE",
"125.227 488.773 CURVE SMOOTH"
);
},
{
closed = 1;
nodes = (
"462.13 397.584 OFFCURVE",
"404.13 498.075 OFFCURVE",
"299.357 498.075 CURVE SMOOTH",
"210.773 498.075 OFFCURVE",
"148 440.114 OFFCURVE",
"117.867 388.36 CURVE",
"122.318 325.701 LINE",
"146.714 397.247 OFFCURVE",
"223.451 458.211 OFFCURVE",
"295.416 458.211 CURVE SMOOTH",
"359.662 458.211 OFFCURVE",
"421.721 399.38 OFFCURVE",
"421.721 249.188 CURVE SMOOTH",
"421.721 92.185 OFFCURVE",
"347.133 35.487 OFFCURVE",
"281.906 35.487 CURVE SMOOTH",
"211.546 35.487 OFFCURVE",
"154.922 78.714 OFFCURVE",
"117.224 106.809 CURVE",
"121.471 59.51 LINE",
"170.679 17.886 OFFCURVE",
"223.981 -7.396 OFFCURVE",
"280.961 -7.396 CURVE SMOOTH",
"359.111 -7.396 OFFCURVE",
"462.13 62.867 OFFCURVE",
"462.13 249.49 CURVE SMOOTH"
);
}
);
width = 526;
}
);
leftKerningGroup = m;
unicode = 0070;
},
{
glyphname = q;
lastChange = "2018-10-19 19:05:17 +0000";
layers = (
{
anchors = (
{
name = bottom;
position = "{261, -20}";
},
{
name = top;
position = "{261, 542}";
}
);
layerId = UUID1;
paths = (
{
closed = 1;
nodes = (
"30 97 OFFCURVE",
"88 -10 OFFCURVE",
"211 -10 CURVE SMOOTH",
"280 -10 OFFCURVE",
"345 30 OFFCURVE",
"379 88 CURVE",
"356 201 LINE",
"330 147 OFFCURVE",
"291 121 OFFCURVE",
"253 121 CURVE SMOOTH",
"221 121 OFFCURVE",
"198 159 OFFCURVE",
"198 248 CURVE SMOOTH",
"198 337 OFFCURVE",
"214 394 OFFCURVE",
"261 394 CURVE SMOOTH",
"295 394 OFFCURVE",
"342 355 OFFCURVE",
"381 280 CURVE",
"408 413 LINE",
"384 457 OFFCURVE",
"331 515 OFFCURVE",
"232 515 CURVE SMOOTH",
"121 515 OFFCURVE",
"30 420 OFFCURVE",
"30 249 CURVE SMOOTH"
);
},
{
closed = 1;
nodes = (
"321 -118 LINE",
"321 -191 OFFCURVE",
"346 -216 OFFCURVE",
"410 -216 CURVE SMOOTH",
"474 -216 LINE",
"481 -209 LINE",
"481 355 LINE SMOOTH",
"481 386 OFFCURVE",
"493 413 OFFCURVE",
"509 424 CURVE",
"503 453 OFFCURVE",
"480 492 OFFCURVE",
"460 508 CURVE",
"369 508 OFFCURVE",
"321 441 OFFCURVE",
"321 355 CURVE SMOOTH"
);
}
);
width = 540;
},
{
anchors = (
{
name = bottom;
position = "{261, -20}";
},
{
name = top;
position = "{261, 542}";
}
);
layerId = "59A137EB-1A44-4616-9625-4B79FA594CBD";
paths = (
{
closed = 1;
nodes = (
"50.9 92.25 OFFCURVE",
"108.9 -8.1 OFFCURVE",
"221.45 -8.1 CURVE SMOOTH",
"305.65 -8.1 OFFCURVE",
"368.75 50.9 OFFCURVE",
"393.25 89.9 CURVE",
"381.65 155.4 LINE",
"352.8 101.4 OFFCURVE",
"292.9 56.4 OFFCURVE",
"232.1 56.4 CURVE SMOOTH",
"176.35 56.4 OFFCURVE",
"125.8 110.55 OFFCURVE",
"125.8 244.2 CURVE SMOOTH",
"125.8 381.65 OFFCURVE",
"184.55 438.65 OFFCURVE",
"246.75 438.65 CURVE SMOOTH",
"304.5 438.65 OFFCURVE",
"363.85 400.6 OFFCURVE",
"397.15 356 CURVE",
"405.15 424.4 LINE",
"366.9 465.55 OFFCURVE",
"318.65 502.65 OFFCURVE",
"236.75 502.65 CURVE SMOOTH",
"150.45 502.65 OFFCURVE",
"50.9 424.75 OFFCURVE",
"50.9 244.25 CURVE SMOOTH"
);
},
{
closed = 1;
nodes = (
"363.75 -164.55 LINE",
"363.75 -197.65 OFFCURVE",
"369.75 -215.05 OFFCURVE",
"403.35 -215.05 CURVE SMOOTH",
"430.3 -215.05 LINE",
"436.35 -209 LINE",
"436.35 352.15 LINE SMOOTH",
"436.35 394.55 OFFCURVE",
"439.8 435.8 OFFCURVE",
"464.35 459.15 CURVE",
"459.3 472.95 OFFCURVE",
"445.8 490.1 OFFCURVE",
"430.55 497.55 CURVE",
"377.55 478.55 OFFCURVE",
"363.75 429.6 OFFCURVE",
"363.75 375.9 CURVE SMOOTH"
);
}
);
width = 523.85;
},
{
anchors = (
{
name = bottom;
position = "{261, -20}";
},
{
name = top;
position = "{261, 542}";
}
);
layerId = "9ED2045D-B62B-46E9-A722-9499BEB4CDB9";
paths = (
{
closed = 1;
nodes = (
"58.643 90.49 OFFCURVE",
"116.643 -7.396 OFFCURVE",
"225.321 -7.396 CURVE SMOOTH",
"315.152 -7.396 OFFCURVE",
"377.549 58.643 OFFCURVE",
"398.529 90.604 CURVE",
"391.152 138.507 LINE",
"361.247 84.507 OFFCURVE",
"293.604 32.468 OFFCURVE",
"224.357 32.468 CURVE SMOOTH",
"159.809 32.468 OFFCURVE",
"99.052 92.601 OFFCURVE",
"99.052 242.792 CURVE SMOOTH",
"99.052 398.191 OFFCURVE",
"173.64 455.191 OFFCURVE",
"241.471 455.191 CURVE SMOOTH",
"308.019 455.191 OFFCURVE",
"371.945 417.493 OFFCURVE",
"403.133 384.156 CURVE",
"404.094 428.623 LINE",
"360.565 468.717 OFFCURVE",
"314.075 498.075 OFFCURVE",
"238.51 498.075 CURVE SMOOTH",
"161.36 498.075 OFFCURVE",
"58.643 426.51 OFFCURVE",
"58.643 242.49 CURVE SMOOTH"
);
},
{
closed = 1;
nodes = (
"379.588 -181.795 LINE",
"379.588 -200.114 OFFCURVE",
"378.549 -214.698 OFFCURVE",
"400.886 -214.698 CURVE SMOOTH",
"414.111 -214.698 LINE",
"419.809 -209 LINE",
"419.809 351.094 LINE SMOOTH",
"419.809 397.717 OFFCURVE",
"420.091 444.247 OFFCURVE",
"447.809 472.172 CURVE",
"443.111 480.341 OFFCURVE",
"433.13 489.396 OFFCURVE",
"419.64 493.679 CURVE",
"380.717 467.64 OFFCURVE",
"379.588 425.377 OFFCURVE",
"379.588 383.643 CURVE SMOOTH"
);
}
);
width = 524;
}
);
leftKerningGroup = d;
unicode = 0071;
},
{
glyphname = r;
lastChange = "2018-10-19 19:05:17 +0000";
layers = (
{
anchors = (
{
name = bottom;
position = "{147, -20}";
},
{
name = top;
position = "{210, 542}";
}
);
layerId = UUID1;
paths = (
{
closed = 1;
nodes = (
"381 503 OFFCURVE",
"365 507 OFFCURVE",
"333 507 CURVE SMOOTH",
"215 507 OFFCURVE",
"188 385 OFFCURVE",
"180 273 CURVE",
"198 249 LINE",
"228 321 OFFCURVE",
"257 356 OFFCURVE",
"307 356 CURVE",
"325 354 OFFCURVE",
"342 352 OFFCURVE",
"360 345 CURVE",
"387 391 OFFCURVE",
"401 460 OFFCURVE",
"401 498 CURVE"
);
},
{
closed = 1;
nodes = (
"43 413 OFFCURVE",
"65 380 OFFCURVE",
"65 320 CURVE SMOOTH",
"65 0 LINE",
"89 -4 OFFCURVE",
"120 -6 OFFCURVE",
"147 -6 CURVE SMOOTH",
"175 -6 OFFCURVE",
"206 -4 OFFCURVE",
"229 0 CURVE",
"229 332 LINE",
"219 435 OFFCURVE",
"172 502 OFFCURVE",
"76 508 CURVE",
"56 492 OFFCURVE",
"33 453 OFFCURVE",
"27 424 CURVE"
);
}
);
width = 401;
},
{
anchors = (
{
name = bottom;
position = "{134.65, -20}";
},
{
name = top;
position = "{197.65, 542}";
}
);
layerId = "59A137EB-1A44-4616-9625-4B79FA594CBD";
paths = (
{
closed = 1;
nodes = (
"325.9 496.35 OFFCURVE",
"309.9 497.5 OFFCURVE",
"298.8 497.5 CURVE SMOOTH",
"186.5 497.5 OFFCURVE",
"142.4 388.8 OFFCURVE",
"142 303.4 CURVE",
"155.25 287 LINE",
"168.15 337.15 OFFCURVE",
"203.8 424.4 OFFCURVE",
"292.75 424.4 CURVE",
"304.1 424.3 OFFCURVE",
"316.35 424.2 OFFCURVE",
"327.7 422.9 CURVE",
"340.45 442.3 OFFCURVE",
"344.95 470.45 OFFCURVE",
"344.95 493.25 CURVE"
);
},
{
closed = 1;
nodes = (
"79.1 438.65 OFFCURVE",
"97.3 403.75 OFFCURVE",
"97.3 354.2 CURVE SMOOTH",
"97.3 0 LINE",
"107.05 -2.1 OFFCURVE",
"120 -3.15 OFFCURVE",
"134.65 -3.15 CURVE SMOOTH",
"148.4 -3.15 OFFCURVE",
"161.35 -2.1 OFFCURVE",
"171.05 0 CURVE",
"171.05 361.45 LINE",
"168.65 429.3 OFFCURVE",
"145.4 479.2 OFFCURVE",
"93.1 497.55 CURVE",
"78.8 489.15 OFFCURVE",
"65.3 470.1 OFFCURVE",
"61.2 456.3 CURVE"
);
}
);
width = 352.55;
},
{
anchors = (
{
name = bottom;
position = "{133, -20}";
},
{
name = top;
position = "{196, 542}";
}
);
layerId = "9ED2045D-B62B-46E9-A722-9499BEB4CDB9";
paths = (
{
closed = 1;
nodes = (
"308 494 OFFCURVE",
"292 494 OFFCURVE",
"289 494 CURVE SMOOTH",
"179 494 OFFCURVE",
"129 390 OFFCURVE",
"131 315 CURVE",
"142 301 LINE",
"149 343 OFFCURVE",
"187 450 OFFCURVE",
"290 450 CURVE",
"299 450 OFFCURVE",
"310 451 OFFCURVE",
"319 452 CURVE",
"326 461 OFFCURVE",
"327 474 OFFCURVE",
"327 491 CURVE"
);
},
{
closed = 1;
nodes = (
"95 448 OFFCURVE",
"112 413 OFFCURVE",
"112 367 CURVE SMOOTH",
"112 0 LINE",
"117 -1 OFFCURVE",
"123 -2 OFFCURVE",
"133 -2 CURVE SMOOTH",
"142 -2 OFFCURVE",
"148 -1 OFFCURVE",
"153 0 CURVE",
"153 372 LINE",
"153 427 OFFCURVE",
"139 471 OFFCURVE",
"102 494 CURVE",
"90 488 OFFCURVE",
"80 476 OFFCURVE",
"77 468 CURVE"
);
}
);
width = 353;
}
);
leftKerningGroup = r;
rightKerningGroup = r;
unicode = 0072;
},
{
glyphname = s;
lastChange = "2018-10-19 19:05:17 +0000";
layers = (
{
anchors = (
{
name = bottom;
position = "{221, -20}";
},
{
name = top;
position = "{223, 542}";
}
);
layerId = UUID1;
paths = (
{
closed = 1;
nodes = (
"65 8 OFFCURVE",
"141 -15 OFFCURVE",
"220 -15 CURVE SMOOTH",
"343 -15 OFFCURVE",
"424 49 OFFCURVE",
"424 150 CURVE SMOOTH",
"424 236 OFFCURVE",
"366 285 OFFCURVE",
"290 312 CURVE SMOOTH",
"228 334 LINE SMOOTH",
"203 343 OFFCURVE",
"193 353 OFFCURVE",
"193 369 CURVE SMOOTH",
"193 384 OFFCURVE",
"205 397 OFFCURVE",
"230 397 CURVE SMOOTH",
"277 397 OFFCURVE",
"328 378 OFFCURVE",
"370 359 CURVE",
"396 378 OFFCURVE",
"417 434 OFFCURVE",
"415 472 CURVE",
"371 494 OFFCURVE",
"289 515 OFFCURVE",
"228 515 CURVE SMOOTH",
"108 515 OFFCURVE",
"32 450 OFFCURVE",
"32 347 CURVE SMOOTH",
"32 266 OFFCURVE",
"86 222 OFFCURVE",
"157 196 CURVE SMOOTH",
"212 176 LINE SMOOTH",
"243 165 OFFCURVE",
"255 152 OFFCURVE",
"255 134 CURVE",
"255 116 OFFCURVE",
"237 103 OFFCURVE",
"201 103 CURVE SMOOTH",
"162 103 OFFCURVE",
"107 121 OFFCURVE",
"63 144 CURVE",
"39 119 OFFCURVE",
"19 69 OFFCURVE",
"18 34 CURVE"
);
}
);
width = 444;
},
{
anchors = (
{
name = bottom;
position = "{208.65, -20}";
},
{
name = top;
position = "{218.25, 542}";
}
);
layerId = "59A137EB-1A44-4616-9625-4B79FA594CBD";
paths = (
{
closed = 1;
nodes = (
"78.3 11.8 OFFCURVE",
"136.25 -12.15 OFFCURVE",
"206.7 -12.15 CURVE SMOOTH",
"313.55 -12.15 OFFCURVE",
"390.75 40.45 OFFCURVE",
"390.75 129.1 CURVE SMOOTH",
"390.75 201.8 OFFCURVE",
"341.3 245.1 OFFCURVE",
"267.2 274 CURVE SMOOTH",
"208.05 296.95 LINE SMOOTH",
"158.35 316.4 OFFCURVE",
"133.15 335.9 OFFCURVE",
"133.15 369.95 CURVE SMOOTH",
"133.15 414.4 OFFCURVE",
"169.85 442.6 OFFCURVE",
"222.4 442.6 CURVE SMOOTH",
"273.2 442.6 OFFCURVE",
"321.35 426.45 OFFCURVE",
"352.9 412.2 CURVE",
"367.5 426.45 OFFCURVE",
"376.15 450.15 OFFCURVE",
"376.05 470.1 CURVE",
"335.85 488.3 OFFCURVE",
"273.8 502.65 OFFCURVE",
"224.2 502.65 CURVE SMOOTH",
"132.7 502.65 OFFCURVE",
"56.7 450.95 OFFCURVE",
"56.7 365.05 CURVE SMOOTH",
"56.7 291.65 OFFCURVE",
"116.4 252.4 OFFCURVE",
"184.55 226.4 CURVE SMOOTH",
"241.45 204.5 LINE SMOOTH",
"287.65 186.85 OFFCURVE",
"313.9 156.75 OFFCURVE",
"313.9 123.55 CURVE",
"312.95 78 OFFCURVE",
"271.2 46 OFFCURVE",
"207.65 46 CURVE SMOOTH",
"157.25 46 OFFCURVE",
"107 68.75 OFFCURVE",
"65.85 91.75 CURVE",
"51.35 80.05 OFFCURVE",
"38 55.7 OFFCURVE",
"37 37.8 CURVE"
);
}
);
width = 434.5;
},
{
anchors = (
{
name = bottom;
position = "{204.075, -20}";
},
{
name = top;
position = "{216.49, 542}";
}
);
layerId = "9ED2045D-B62B-46E9-A722-9499BEB4CDB9";
paths = (
{
closed = 1;
nodes = (
"83.227 13.208 OFFCURVE",
"134.49 -11.094 OFFCURVE",
"201.773 -11.094 CURVE SMOOTH",
"302.64 -11.094 OFFCURVE",
"378.432 37.282 OFFCURVE",
"378.432 121.357 CURVE SMOOTH",
"378.432 189.13 OFFCURVE",
"332.149 230.318 OFFCURVE",
"258.753 259.922 CURVE SMOOTH",
"200.659 283.224 LINE SMOOTH",
"141.809 306.546 OFFCURVE",
"110.978 329.565 OFFCURVE",
"110.978 370.302 CURVE SMOOTH",
"110.978 425.662 OFFCURVE",
"156.828 459.493 OFFCURVE",
"219.584 459.493 CURVE SMOOTH",
"271.792 459.493 OFFCURVE",
"318.886 444.399 OFFCURVE",
"346.565 431.909 CURVE",
"356.942 444.399 OFFCURVE",
"361.016 456.133 OFFCURVE",
"361.62 469.396 CURVE",
"322.828 486.188 OFFCURVE",
"268.169 498.075 OFFCURVE",
"222.792 498.075 CURVE SMOOTH",
"141.851 498.075 OFFCURVE",
"65.851 451.302 OFFCURVE",
"65.851 371.737 CURVE SMOOTH",
"65.851 301.152 OFFCURVE",
"127.662 263.662 OFFCURVE",
"194.756 237.662 CURVE SMOOTH",
"252.36 215.058 LINE SMOOTH",
"304.191 194.945 OFFCURVE",
"335.721 158.51 OFFCURVE",
"335.721 119.679 CURVE",
"334.419 63.922 OFFCURVE",
"283.87 24.883 OFFCURVE",
"210.114 24.883 CURVE SMOOTH",
"155.49 24.883 OFFCURVE",
"107 49.393 OFFCURVE",
"66.906 72.393 CURVE",
"55.925 65.62 OFFCURVE",
"45.039 50.773 OFFCURVE",
"44.039 39.208 CURVE"
);
}
);
width = 435;
}
);
leftKerningGroup = s;
rightKerningGroup = s;
unicode = 0073;
},
{
glyphname = t;
lastChange = "2018-10-19 19:05:17 +0000";
layers = (
{
anchors = (
{
name = bottom;
position = "{209, -20}";
},
{
name = top;
position = "{170, 542}";
}
);
layerId = UUID1;
paths = (
{
closed = 1;
nodes = (
"78 139 LINE",
"78 40 OFFCURVE",
"120 -5 OFFCURVE",
"214 -5 CURVE SMOOTH",
"254 -5 OFFCURVE",
"309 0 OFFCURVE",
"346 5 CURVE",
"349 16 OFFCURVE",
"350 30 OFFCURVE",
"350 42 CURVE SMOOTH",
"350 67 OFFCURVE",
"345 96 OFFCURVE",
"337 119 CURVE",
"283 119 LINE SMOOTH",
"251 119 OFFCURVE",
"238 136 OFFCURVE",
"238 167 CURVE SMOOTH",
"238 643 LINE",
"231 650 LINE",
"167 650 LINE SMOOTH",
"103 650 OFFCURVE",
"78 625 OFFCURVE",
"78 552 CURVE SMOOTH"
);
},
{
closed = 1;
nodes = (
"171 498 LINE",
"-1 501 LINE",
"-6 481 OFFCURVE",
"-8 462 OFFCURVE",
"-8 444 CURVE SMOOTH",
"-8 424 OFFCURVE",
"-6 404 OFFCURVE",
"-1 385 CURVE",
"166 388 LINE",
"356 385 LINE",
"361 404 OFFCURVE",
"363 424 OFFCURVE",
"363 444 CURVE SMOOTH",
"363 462 OFFCURVE",
"361 481 OFFCURVE",
"356 501 CURVE"
);
}
);
width = 378;
},
{
anchors = (
{
name = bottom;
position = "{192.85, -20}";
},
{
name = top;
position = "{175.7, 542}";
}
);
layerId = "59A137EB-1A44-4616-9625-4B79FA594CBD";
paths = (
{
closed = 1;
nodes = (
"105.55 79.15 LINE",
"105.55 24.8 OFFCURVE",
"140.9 -4.05 OFFCURVE",
"196.9 -4.05 CURVE SMOOTH",
"235.95 -4.05 OFFCURVE",
"267.2 -1.9 OFFCURVE",
"298.5 2.15 CURVE",
"299.6 6.5 OFFCURVE",
"299.65 11.95 OFFCURVE",
"299.65 17.3 CURVE SMOOTH",
"299.65 31.85 OFFCURVE",
"297.5 46.6 OFFCURVE",
"293.3 57.25 CURVE",
"217.45 57.25 LINE SMOOTH",
"188.3 57.25 OFFCURVE",
"178.15 74.25 OFFCURVE",
"178.15 98.6 CURVE SMOOTH",
"178.15 639.2 LINE",
"172.1 645.25 LINE",
"145.15 645.25 LINE SMOOTH",
"111.55 645.25 OFFCURVE",
"105.55 627.85 OFFCURVE",
"105.55 594.75 CURVE SMOOTH"
);
},
{
closed = 1;
nodes = (
"152.95 489.45 LINE",
"35.1 491.5 LINE",
"32.95 481 OFFCURVE",
"31.9 473.4 OFFCURVE",
"31.9 463 CURVE SMOOTH",
"31.9 452.5 OFFCURVE",
"32.95 443.9 OFFCURVE",
"35.1 434.4 CURVE",
"153.65 436.45 LINE",
"304.7 434.4 LINE",
"306.85 443.9 OFFCURVE",
"307.9 452.5 OFFCURVE",
"307.9 463 CURVE SMOOTH",
"307.9 473.4 OFFCURVE",
"306.85 481 OFFCURVE",
"304.7 491.5 CURVE"
);
}
);
width = 337.15;
},
{
anchors = (
{
name = bottom;
position = "{188, -20}";
},
{
name = top;
position = "{179, 542}";
}
);
layerId = "9ED2045D-B62B-46E9-A722-9499BEB4CDB9";
paths = (
{
closed = 1;
nodes = (
"117 57 LINE",
"117 19 OFFCURVE",
"150 -4 OFFCURVE",
"192 -4 CURVE SMOOTH",
"230 -4 OFFCURVE",
"253 -3 OFFCURVE",
"282 1 CURVE",
"282 3 OFFCURVE",
"282 5 OFFCURVE",
"282 8 CURVE SMOOTH",
"282 19 OFFCURVE",
"281 28 OFFCURVE",
"278 34 CURVE",
"194 34 LINE SMOOTH",
"166 34 OFFCURVE",
"157 51 OFFCURVE",
"157 73 CURVE SMOOTH",
"157 638 LINE",
"151 643 LINE",
"138 643 LINE SMOOTH",
"116 643 OFFCURVE",
"117 629 OFFCURVE",
"117 611 CURVE SMOOTH"
);
},
{
closed = 1;
nodes = (
"147 486 LINE",
"49 488 LINE",
"48 481 OFFCURVE",
"48 478 OFFCURVE",
"48 470 CURVE SMOOTH",
"48 463 OFFCURVE",
"48 459 OFFCURVE",
"49 453 CURVE",
"150 454 LINE",
"287 453 LINE",
"288 459 OFFCURVE",
"288 463 OFFCURVE",
"288 470 CURVE SMOOTH",
"288 478 OFFCURVE",
"288 481 OFFCURVE",
"287 488 CURVE"
);
}
);
width = 337;
}
);
leftKerningGroup = t;
rightKerningGroup = t;
unicode = 0074;
},
{
glyphname = u;
lastChange = "2018-10-19 19:05:17 +0000";
layers = (
{
anchors = (
{
name = bottom;
position = "{270, -20}";
},
{
name = top;
position = "{265, 542}";
}
);
layerId = UUID1;
paths = (
{
closed = 1;
nodes = (
"490 500 LINE",
"466 504 OFFCURVE",
"435 506 OFFCURVE",
"408 506 CURVE SMOOTH",
"380 506 OFFCURVE",
"349 504 OFFCURVE",
"326 500 CURVE",
"326 147 LINE SMOOTH",
"326 61 OFFCURVE",
"377 -8 OFFCURVE",
"469 -8 CURVE",
"489 8 OFFCURVE",
"512 45 OFFCURVE",
"518 74 CURVE",
"502 85 OFFCURVE",
"490 112 OFFCURVE",
"490 143 CURVE SMOOTH"
);
},
{
closed = 1;
nodes = (
"55 171 LINE",
"55 65 OFFCURVE",
"105 -9 OFFCURVE",
"196 -9 CURVE SMOOTH",
"267 -9 OFFCURVE",
"318 35 OFFCURVE",
"365 80 CURVE",
"365 222 LINE",
"335 159 OFFCURVE",
"287 138 OFFCURVE",
"259 138 CURVE SMOOTH",
"228 138 OFFCURVE",
"219 158 OFFCURVE",
"219 200 CURVE SMOOTH",
"219 407 LINE SMOOTH",
"219 472 OFFCURVE",
"197 508 OFFCURVE",
"131 508 CURVE SMOOTH",
"90 508 OFFCURVE",
"53 493 OFFCURVE",
"29 473 CURVE",
"48 447 OFFCURVE",
"55 412 OFFCURVE",
"55 372 CURVE SMOOTH"
);
}
);
width = 549;
},
{
anchors = (
{
name = bottom;
position = "{268.1, -20}";
},
{
name = top;
position = "{268.8, 542}";
}
);
layerId = "59A137EB-1A44-4616-9625-4B79FA594CBD";
paths = (
{
closed = 1;
nodes = (
"456.75 490.5 LINE",
"447 492.6 OFFCURVE",
"434.05 493.65 OFFCURVE",
"419.4 493.65 CURVE SMOOTH",
"405.65 493.65 OFFCURVE",
"392.7 492.6 OFFCURVE",
"383 490.5 CURVE",
"383 114.7 LINE SMOOTH",
"383 61 OFFCURVE",
"397.9 11.95 OFFCURVE",
"450.95 -7.05 CURVE",
"466.2 0.4 OFFCURVE",
"479.7 17.45 OFFCURVE",
"484.75 31.25 CURVE",
"460.2 54.6 OFFCURVE",
"456.75 95.85 OFFCURVE",
"456.75 138.25 CURVE SMOOTH"
);
},
{
closed = 1;
nodes = (
"82.55 147.25 LINE",
"82.55 62.15 OFFCURVE",
"116.4 -9 OFFCURVE",
"211.2 -9 CURVE SMOOTH",
"284.1 -9 OFFCURVE",
"359.8 30.25 OFFCURVE",
"403 84.75 CURVE",
"403 163.1 LINE",
"370.15 104.85 OFFCURVE",
"290.8 58.2 OFFCURVE",
"229.55 58.2 CURVE SMOOTH",
"171.95 58.2 OFFCURVE",
"156.3 91.5 OFFCURVE",
"156.3 170.55 CURVE SMOOTH",
"156.3 447.85 LINE SMOOTH",
"156.3 480.55 OFFCURVE",
"145.7 496.6 OFFCURVE",
"117.7 496.6 CURVE SMOOTH",
"100.45 496.6 OFFCURVE",
"81.5 490.15 OFFCURVE",
"70.8 480.6 CURVE",
"80.3 458.4 OFFCURVE",
"82.55 428.15 OFFCURVE",
"82.55 395.75 CURVE SMOOTH"
);
}
);
width = 546.15;
},
{
anchors = (
{
name = bottom;
position = "{267.396, -20}";
},
{
name = top;
position = "{270.208, 542}";
}
);
layerId = "9ED2045D-B62B-46E9-A722-9499BEB4CDB9";
paths = (
{
closed = 1;
nodes = (
"444.432 486.981 LINE",
"439.961 488.377 OFFCURVE",
"433.698 489.075 OFFCURVE",
"423.623 489.075 CURVE SMOOTH",
"415.152 489.075 OFFCURVE",
"408.889 488.377 OFFCURVE",
"404.117 486.981 CURVE",
"404.117 102.734 LINE SMOOTH",
"404.117 61 OFFCURVE",
"405.643 19.341 OFFCURVE",
"444.263 -6.698 CURVE",
"457.753 -2.416 OFFCURVE",
"467.734 7.244 OFFCURVE",
"472.432 15.412 CURVE",
"444.714 43.338 OFFCURVE",
"444.432 89.867 OFFCURVE",
"444.432 136.49 CURVE SMOOTH"
);
},
{
closed = 1;
nodes = (
"92.756 138.451 LINE",
"92.756 61.094 OFFCURVE",
"120.623 -9 OFFCURVE",
"216.831 -9 CURVE SMOOTH",
"290.435 -9 OFFCURVE",
"375.286 28.49 OFFCURVE",
"417.078 86.51 CURVE",
"417.078 141.279 LINE",
"383.172 84.789 OFFCURVE",
"292.208 28.637 OFFCURVE",
"218.64 28.637 CURVE SMOOTH",
"151.185 28.637 OFFCURVE",
"133.072 66.864 OFFCURVE",
"133.072 159.64 CURVE SMOOTH",
"133.072 462.984 LINE SMOOTH",
"133.072 483.717 OFFCURVE",
"126.695 492.377 OFFCURVE",
"112.773 492.377 CURVE SMOOTH",
"104.321 492.377 OFFCURVE",
"92.058 489.094 OFFCURVE",
"86.286 483.416 CURVE",
"92.266 462.623 OFFCURVE",
"92.756 434.133 OFFCURVE",
"92.756 404.549 CURVE SMOOTH"
);
}
);
width = 546;
}
);
leftKerningGroup = u;
rightKerningGroup = u;
unicode = 0075;
},
{
glyphname = v;
lastChange = "2018-10-19 19:05:17 +0000";
layers = (
{
anchors = (
{
name = bottom;
position = "{244, -20}";
},
{
name = top;
position = "{241, 542}";
}
);
layerId = UUID1;
paths = (
{
closed = 1;
nodes = (
"251 124 LINE",
"245 124 OFFCURVE",
"242 124 OFFCURVE",
"241 132 CURVE SMOOTH",
"236 162 OFFCURVE",
"230 213 OFFCURVE",
"221 250 CURVE SMOOTH",
"179 432 LINE SMOOTH",
"166 489 OFFCURVE",
"136 509 OFFCURVE",
"84 509 CURVE SMOOTH",
"57 509 OFFCURVE",
"22 499 OFFCURVE",
"-6 487 CURVE",
"111 71 LINE SMOOTH",
"129 8 OFFCURVE",
"162 -6 OFFCURVE",
"224 -6 CURVE SMOOTH",
"266 -6 OFFCURVE",
"311 -4 OFFCURVE",
"347 0 CURVE",
"383 116 OFFCURVE",
"444 341 OFFCURVE",
"483 485 CURVE",
"478 492 LINE",
"453 502 OFFCURVE",
"421 505 OFFCURVE",
"393 505 CURVE SMOOTH",
"373 505 OFFCURVE",
"353 503 OFFCURVE",
"334 499 CURVE"
);
}
);
width = 483;
},
{
anchors = (
{
name = bottom;
position = "{223.1, -20}";
},
{
name = top;
position = "{221.05, 542}";
}
);
layerId = "59A137EB-1A44-4616-9625-4B79FA594CBD";
paths = (
{
closed = 1;
nodes = (
"229.15 64.15 LINE",
"223.15 64.15 OFFCURVE",
"222.05 65.1 OFFCURVE",
"220.1 72.15 CURVE SMOOTH",
"212.25 103.1 OFFCURVE",
"191.05 175 OFFCURVE",
"172.55 231 CURVE SMOOTH",
"93.5 469.05 LINE SMOOTH",
"87.15 489.95 OFFCURVE",
"74.25 497.6 OFFCURVE",
"56.45 497.6 CURVE SMOOTH",
"43.7 497.6 OFFCURVE",
"31.5 495.2 OFFCURVE",
"11.1 485.1 CURVE",
"160.4 43.45 LINE SMOOTH",
"174.6 0.4 OFFCURVE",
"185.75 -5.05 OFFCURVE",
"216.4 -5.05 CURVE SMOOTH",
"232.75 -5.05 OFFCURVE",
"252.1 -4 OFFCURVE",
"268.15 0 CURVE",
"306.05 106.5 OFFCURVE",
"381.3 327.7 OFFCURVE",
"431.7 485.95 CURVE",
"429.55 489.15 LINE",
"417.85 492.5 OFFCURVE",
"406.75 494.55 OFFCURVE",
"393 494.55 CURVE SMOOTH",
"384.4 494.55 OFFCURVE",
"374.85 494.45 OFFCURVE",
"363.45 491.4 CURVE"
);
}
);
width = 442.15;
},
{
anchors = (
{
name = bottom;
position = "{215.357, -20}";
},
{
name = top;
position = "{213.659, 542}";
}
);
layerId = "9ED2045D-B62B-46E9-A722-9499BEB4CDB9";
paths = (
{
closed = 1;
nodes = (
"221.055 41.978 LINE",
"215.055 41.978 OFFCURVE",
"214.659 43.279 OFFCURVE",
"212.357 49.978 CURVE SMOOTH",
"203.451 81.279 OFFCURVE",
"176.62 160.922 OFFCURVE",
"154.601 223.961 CURVE SMOOTH",
"61.825 482.776 LINE SMOOTH",
"57.939 490.302 OFFCURVE",
"51.374 493.377 OFFCURVE",
"46.244 493.377 CURVE SMOOTH",
"38.773 493.377 OFFCURVE",
"35.019 493.792 OFFCURVE",
"17.435 484.396 CURVE",
"178.701 33.244 LINE SMOOTH",
"191.493 -2.416 OFFCURVE",
"194.549 -4.698 OFFCURVE",
"213.584 -4.698 CURVE SMOOTH",
"220.432 -4.698 OFFCURVE",
"230.279 -4 OFFCURVE",
"238.939 0 CURVE",
"277.543 102.981 OFFCURVE",
"358.072 322.773 OFFCURVE",
"412.695 486.302 CURVE",
"411.601 488.094 LINE",
"404.828 488.981 OFFCURVE",
"401.471 490.679 OFFCURVE",
"393 490.679 CURVE SMOOTH",
"388.623 490.679 OFFCURVE",
"382.945 491.282 OFFCURVE",
"374.36 488.584 CURVE"
);
}
);
width = 442;
}
);
leftKerningGroup = v;
unicode = 0076;
},
{
glyphname = w;
lastChange = "2018-10-19 19:05:17 +0000";
layers = (
{
anchors = (
{
name = bottom;
position = "{379, -20}";
},
{
name = top;
position = "{379, 542}";
}
);
layerId = UUID1;
paths = (
{
closed = 1;
nodes = (
"98 69 LINE",
"112 8 OFFCURVE",
"141 -6 OFFCURVE",
"203 -6 CURVE SMOOTH",
"242 -6 OFFCURVE",
"292 -4 OFFCURVE",
"326 0 CURVE",
"352 172 LINE SMOOTH",
"359 221 OFFCURVE",
"369 288 OFFCURVE",
"376 356 CURVE",
"382 356 LINE",
"389 287 OFFCURVE",
"399 219 OFFCURVE",
"406 170 CURVE SMOOTH",
"421 67 LINE SMOOTH",
"430 4 OFFCURVE",
"460 -6 OFFCURVE",
"523 -6 CURVE SMOOTH",
"561 -6 OFFCURVE",
"610 -5 OFFCURVE",
"643 0 CURVE",
"759 482 LINE",
"754 492 LINE",
"731 504 OFFCURVE",
"689 506 OFFCURVE",
"667 506 CURVE SMOOTH",
"648 506 OFFCURVE",
"623 504 OFFCURVE",
"605 499 CURVE",
"562 284 LINE SMOOTH",
"550 222 OFFCURVE",
"542 165 OFFCURVE",
"536 121 CURVE",
"530 121 OFFCURVE",
"529 123 OFFCURVE",
"528 129 CURVE SMOOTH",
"475 494 LINE",
"450 500 OFFCURVE",
"399 502 OFFCURVE",
"378 502 CURVE SMOOTH",
"358 502 OFFCURVE",
"310 500 OFFCURVE",
"284 494 CURVE",
"233 121 LINE",
"227 121 OFFCURVE",
"226 123 OFFCURVE",
"225 129 CURVE SMOOTH",
"222 163 OFFCURVE",
"213 219 OFFCURVE",
"200 284 CURVE SMOOTH",
"171 439 LINE SMOOTH",
"162 483 OFFCURVE",
"146 509 OFFCURVE",
"93 509 CURVE SMOOTH",
"64 509 OFFCURVE",
"33 502 OFFCURVE",
"2 490 CURVE"
);
}
);
width = 761;
},
{
anchors = (
{
name = bottom;
position = "{355.25, -20}";
},
{
name = top;
position = "{355.25, 542}";
}
);
layerId = "59A137EB-1A44-4616-9625-4B79FA594CBD";
paths = (
{
closed = 1;
nodes = (
"139.8 43.35 LINE",
"150 1.35 OFFCURVE",
"170.45 -4.1 OFFCURVE",
"192.55 -4.1 CURVE SMOOTH",
"211.6 -4.1 OFFCURVE",
"238.8 -3.05 OFFCURVE",
"255.7 0 CURVE",
"303.55 199.55 LINE SMOOTH",
"316.25 254.25 OFFCURVE",
"336.7 345 OFFCURVE",
"352.25 417.75 CURVE",
"356.35 417.75 LINE",
"372.85 344.95 OFFCURVE",
"390.45 254.15 OFFCURVE",
"402.2 199.45 CURVE SMOOTH",
"437.15 43.25 LINE SMOOTH",
"446.15 1.15 OFFCURVE",
"466.65 -4.1 OFFCURVE",
"494.5 -4.1 CURVE SMOOTH",
"512.55 -4.1 OFFCURVE",
"537.8 -3.1 OFFCURVE",
"551.8 -0.95 CURVE",
"676.35 485.8 LINE",
"674.2 489.15 LINE",
"665.45 492.6 OFFCURVE",
"652.9 494.6 OFFCURVE",
"639.45 494.6 CURVE SMOOTH",
"626.15 494.6 OFFCURVE",
"612.55 493.55 OFFCURVE",
"604.05 491.4 CURVE",
"543.95 235.55 LINE SMOOTH",
"530.05 177.35 OFFCURVE",
"517.3 120.35 OFFCURVE",
"502.75 55.45 CURVE",
"497.7 55.45 OFFCURVE",
"496.7 56.5 OFFCURVE",
"494.75 64.4 CURVE SMOOTH",
"399.95 490.2 LINE",
"390.15 492.4 OFFCURVE",
"367.65 493.45 OFFCURVE",
"355.2 493.45 CURVE SMOOTH",
"343.75 493.45 OFFCURVE",
"320.45 492.4 OFFCURVE",
"309.65 490.2 CURVE",
"209.25 55.45 LINE",
"205.15 55.45 OFFCURVE",
"203.2 56.5 OFFCURVE",
"201.25 64.4 CURVE SMOOTH",
"192.55 104.1 OFFCURVE",
"178.8 174.35 OFFCURVE",
"164.85 235.55 CURVE SMOOTH",
"112.1 468.45 LINE SMOOTH",
"106.9 492.5 OFFCURVE",
"92.8 497.6 OFFCURVE",
"77.8 497.6 CURVE SMOOTH",
"65.9 497.6 OFFCURVE",
"52 495.35 OFFCURVE",
"32.4 486.2 CURVE"
);
}
);
width = 704;
},
{
anchors = (
{
name = bottom;
position = "{347, -20}";
},
{
name = top;
position = "{347, 542}";
}
);
layerId = "9ED2045D-B62B-46E9-A722-9499BEB4CDB9";
paths = (
{
closed = 1;
nodes = (
"156 34 LINE",
"165 -1 OFFCURVE",
"182 -3 OFFCURVE",
"190 -3 CURVE SMOOTH",
"201 -3 OFFCURVE",
"220 -3 OFFCURVE",
"231 0 CURVE",
"287 210 LINE SMOOTH",
"301 267 OFFCURVE",
"326 366 OFFCURVE",
"344 441 CURVE",
"348 441 LINE",
"368 366 OFFCURVE",
"388 267 OFFCURVE",
"402 210 CURVE SMOOTH",
"444 34 LINE SMOOTH",
"453 0 OFFCURVE",
"470 -3 OFFCURVE",
"485 -3 CURVE SMOOTH",
"496 -3 OFFCURVE",
"512 -2 OFFCURVE",
"519 -1 CURVE",
"647 487 LINE",
"646 488 LINE",
"642 488 OFFCURVE",
"641 490 OFFCURVE",
"630 490 CURVE SMOOTH",
"619 490 OFFCURVE",
"610 490 OFFCURVE",
"605 489 CURVE",
"538 218 LINE SMOOTH",
"524 161 OFFCURVE",
"509 104 OFFCURVE",
"491 31 CURVE",
"487 31 OFFCURVE",
"486 32 OFFCURVE",
"483 40 CURVE SMOOTH",
"373 489 LINE",
"369 490 OFFCURVE",
"357 490 OFFCURVE",
"348 490 CURVE SMOOTH",
"339 490 OFFCURVE",
"325 490 OFFCURVE",
"320 489 CURVE",
"201 31 LINE",
"198 31 OFFCURVE",
"196 32 OFFCURVE",
"193 40 CURVE SMOOTH",
"183 82 OFFCURVE",
"167 158 OFFCURVE",
"153 218 CURVE SMOOTH",
"91 479 LINE SMOOTH",
"87 496 OFFCURVE",
"74 493 OFFCURVE",
"73 493 CURVE SMOOTH",
"68 493 OFFCURVE",
"60 493 OFFCURVE",
"45 485 CURVE"
);
}
);
width = 704;
}
);
leftKerningGroup = w;
rightKerningGroup = w;
unicode = 0077;
},
{
glyphname = x;
lastChange = "2018-10-19 19:05:17 +0000";
layers = (
{
anchors = (
{
name = bottom;
position = "{242, -20}";
},
{
name = top;
position = "{245, 542}";
}
);
layerId = UUID1;
paths = (
{
closed = 1;
nodes = (
"291 40 LINE",
"312 7 OFFCURVE",
"336 -9 OFFCURVE",
"377 -9 CURVE SMOOTH",
"414 -9 OFFCURVE",
"456 5 OFFCURVE",
"488 27 CURVE",
"205 459 LINE SMOOTH",
"183 493 OFFCURVE",
"163 510 OFFCURVE",
"122 510 CURVE SMOOTH",
"88 510 OFFCURVE",
"47 500 OFFCURVE",
"11 474 CURVE"
);
},
{
closed = 1;
nodes = (
"222 333 LINE",
"181 297 LINE",
"0 16 LINE",
"5 6 LINE",
"30 -3 OFFCURVE",
"60 -6 OFFCURVE",
"92 -6 CURVE SMOOTH",
"116 -6 OFFCURVE",
"138 -5 OFFCURVE",
"155 0 CURVE",
"264 186 LINE",
"302 223 LINE",
"472 484 LINE",
"468 495 LINE",
"443 502 OFFCURVE",
"417 506 OFFCURVE",
"387 506 CURVE SMOOTH",
"364 506 OFFCURVE",
"341 504 OFFCURVE",
"323 500 CURVE"
);
}
);
width = 484;
},
{
anchors = (
{
name = bottom;
position = "{222.05, -20}";
},
{
name = top;
position = "{224.1, 542}";
}
);
layerId = "59A137EB-1A44-4616-9625-4B79FA594CBD";
paths = (
{
closed = 1;
nodes = (
"337.55 15.3 LINE",
"347.15 1.3 OFFCURVE",
"356.9 -7.1 OFFCURVE",
"375.1 -7.1 CURVE SMOOTH",
"392.15 -7.1 OFFCURVE",
"413.25 2.15 OFFCURVE",
"427.2 10.85 CURVE",
"124.25 476.1 LINE SMOOTH",
"114.6 490.15 OFFCURVE",
"105.05 498.6 OFFCURVE",
"86.85 498.6 CURVE SMOOTH",
"69.95 498.6 OFFCURVE",
"48.9 489.55 OFFCURVE",
"35.7 480.65 CURVE"
);
},
{
closed = 1;
nodes = (
"217.25 300.7 LINE",
"191.45 272.3 LINE",
"21.85 8.4 LINE",
"24.95 2.2 LINE",
"32.85 -2.05 OFFCURVE",
"46.7 -5.05 OFFCURVE",
"60.65 -5.05 CURVE SMOOTH",
"71.35 -5.05 OFFCURVE",
"88.6 -3.1 OFFCURVE",
"94.2 -0.95 CURVE",
"232.65 221.15 LINE",
"255.45 245.8 LINE",
"405.5 482.1 LINE",
"402.45 488.35 LINE",
"395.5 491.55 OFFCURVE",
"381.85 494.6 OFFCURVE",
"366.1 494.6 CURVE SMOOTH",
"355.45 494.6 OFFCURVE",
"340.05 492.6 OFFCURVE",
"334.4 490.5 CURVE"
);
}
);
width = 448.85;
},
{
anchors = (
{
name = bottom;
position = "{214.659, -20}";
},
{
name = top;
position = "{216.357, 542}";
}
);
layerId = "9ED2045D-B62B-46E9-A722-9499BEB4CDB9";
paths = (
{
closed = 1;
nodes = (
"354.795 6.149 LINE",
"360.172 -0.812 OFFCURVE",
"364.643 -6.396 OFFCURVE",
"374.396 -6.396 CURVE SMOOTH",
"384.055 -6.396 OFFCURVE",
"397.412 1.094 OFFCURVE",
"404.676 4.867 CURVE",
"94.335 482.435 LINE SMOOTH",
"89.26 489.094 OFFCURVE",
"83.581 494.377 OFFCURVE",
"73.828 494.377 CURVE SMOOTH",
"63.263 494.377 OFFCURVE",
"49.604 485.679 OFFCURVE",
"44.851 483.114 CURVE"
);
},
{
closed = 1;
nodes = (
"215.49 288.734 LINE",
"195.321 263.149 LINE",
"29.945 5.584 LINE",
"32.341 0.792 LINE",
"33.906 -1.698 OFFCURVE",
"41.773 -4.698 OFFCURVE",
"49.036 -4.698 CURVE SMOOTH",
"54.809 -4.698 OFFCURVE",
"70.299 -2.396 OFFCURVE",
"71.676 -1.302 CURVE",
"221.036 234.172 LINE",
"238.205 254.247 LINE",
"380.864 481.396 LINE",
"378.166 485.886 LINE",
"377.903 487.679 OFFCURVE",
"368.828 490.377 OFFCURVE",
"358.357 490.377 CURVE SMOOTH",
"352.282 490.377 OFFCURVE",
"339.698 488.377 OFFCURVE",
"338.623 486.981 CURVE"
);
}
);
width = 449;
}
);
unicode = 0078;
},
{
glyphname = y;
lastChange = "2018-10-19 19:05:17 +0000";
layers = (
{
anchors = (
{
name = bottom;
position = "{224, -232}";
},
{
name = top;
position = "{249, 542}";
}
);
layerId = UUID1;
paths = (
{
closed = 1;
nodes = (
"497 483 LINE",
"491 494 LINE",
"461 504 OFFCURVE",
"431 506 OFFCURVE",
"403 506 CURVE SMOOTH",
"383 506 OFFCURVE",
"357 504 OFFCURVE",
"339 499 CURVE",
"255 116 LINE",
"250 116 OFFCURVE",
"248 117 OFFCURVE",
"247 123 CURVE SMOOTH",
"243 155 OFFCURVE",
"235 220 OFFCURVE",
"227 252 CURVE SMOOTH",
"183 439 LINE SMOOTH",
"170 493 OFFCURVE",
"144 509 OFFCURVE",
"104 509 CURVE SMOOTH",
"77 509 OFFCURVE",
"36 502 OFFCURVE",
"3 487 CURVE",
"117 57 LINE SMOOTH",
"130 9 OFFCURVE",
"169 -7 OFFCURVE",
"225 -7 CURVE",
"221 -22 LINE SMOOTH",
"207 -69 OFFCURVE",
"174 -97 OFFCURVE",
"126 -97 CURVE SMOOTH",
"92 -97 OFFCURVE",
"56 -88 OFFCURVE",
"34 -81 CURVE",
"12 -106 OFFCURVE",
"-3 -161 OFFCURVE",
"1 -198 CURVE SMOOTH",
"29 -208 OFFCURVE",
"85 -219 OFFCURVE",
"126 -219 CURVE SMOOTH",
"285 -219 OFFCURVE",
"340 -121 OFFCURVE",
"375 13 CURVE SMOOTH"
);
}
);
width = 501;
},
{
anchors = (
{
name = bottom;
position = "{219.25, -232}";
},
{
name = top;
position = "{225.25, 542}";
}
);
layerId = "59A137EB-1A44-4616-9625-4B79FA594CBD";
paths = (
{
closed = 1;
nodes = (
"436.2 485.85 LINE",
"434 489.25 LINE",
"423.95 492.6 OFFCURVE",
"411.05 494.6 OFFCURVE",
"397.3 494.6 CURVE SMOOTH",
"385.85 494.6 OFFCURVE",
"373.15 493.55 OFFCURVE",
"362.75 491.4 CURVE",
"240.75 49.5 LINE",
"235.75 49.5 OFFCURVE",
"232.8 50.5 OFFCURVE",
"230.85 56.5 CURVE SMOOTH",
"219.25 97.05 OFFCURVE",
"201.75 159.2 OFFCURVE",
"185.2 212.1 CURVE SMOOTH",
"106.05 462.75 LINE SMOOTH",
"97.8 490.15 OFFCURVE",
"84.15 497.6 OFFCURVE",
"66.95 497.6 CURVE SMOOTH",
"55.15 497.6 OFFCURVE",
"41.7 493.45 OFFCURVE",
"22.95 485.1 CURVE",
"162.6 44.65 LINE SMOOTH",
"174.65 8.05 OFFCURVE",
"190.85 -2.25 OFFCURVE",
"225 -4.15 CURVE",
"221.95 -14.4 LINE SMOOTH",
"194.65 -104.15 OFFCURVE",
"166.4 -161.6 OFFCURVE",
"89.9 -161.6 CURVE SMOOTH",
"67.3 -161.6 OFFCURVE",
"37.95 -156.4 OFFCURVE",
"24.5 -151.3 CURVE",
"14.85 -163 OFFCURVE",
"6.5 -186.65 OFFCURVE",
"7.65 -204.65 CURVE SMOOTH",
"25.2 -210.85 OFFCURVE",
"62.2 -218.05 OFFCURVE",
"88.95 -218.05 CURVE SMOOTH",
"209 -218.05 OFFCURVE",
"251.65 -143.8 OFFCURVE",
"299 16.8 CURVE SMOOTH"
);
}
);
width = 451.6;
},
{
anchors = (
{
name = bottom;
position = "{217.49, -232}";
},
{
name = top;
position = "{216.451, 542}";
}
);
layerId = "9ED2045D-B62B-46E9-A722-9499BEB4CDB9";
paths = (
{
closed = 1;
nodes = (
"413.676 486.906 LINE",
"412.883 487.49 LINE",
"410.224 488.377 OFFCURVE",
"403.659 490.377 OFFCURVE",
"395.188 490.377 CURVE SMOOTH",
"386.906 490.377 OFFCURVE",
"379.133 489.679 OFFCURVE",
"371.549 488.584 CURVE",
"235.471 24.864 LINE",
"230.471 24.864 OFFCURVE",
"227.169 25.864 OFFCURVE",
"224.867 31.864 CURVE SMOOTH",
"210.451 75.581 OFFCURVE",
"189.432 136.676 OFFCURVE",
"169.714 197.318 CURVE SMOOTH",
"77.542 471.549 LINE SMOOTH",
"71.052 489.094 OFFCURVE",
"61.978 493.377 OFFCURVE",
"53.224 493.377 CURVE SMOOTH",
"47.055 493.377 OFFCURVE",
"43.812 490.282 OFFCURVE",
"30.341 484.396 CURVE",
"179.493 40.075 LINE SMOOTH",
"191.191 7.698 OFFCURVE",
"198.945 -0.49 OFFCURVE",
"225 -3.094 CURVE",
"222.302 -11.584 LINE SMOOTH",
"190.075 -117.172 OFFCURVE",
"163.584 -185.532 OFFCURVE",
"76.526 -185.532 CURVE SMOOTH",
"58.149 -185.532 OFFCURVE",
"31.263 -181.74 OFFCURVE",
"20.981 -177.344 CURVE",
"15.906 -184.117 OFFCURVE",
"10.019 -196.152 OFFCURVE",
"10.114 -207.114 CURVE SMOOTH",
"23.792 -211.906 OFFCURVE",
"53.753 -217.698 OFFCURVE",
"75.224 -217.698 CURVE SMOOTH",
"180.844 -217.698 OFFCURVE",
"218.919 -152.247 OFFCURVE",
"270.844 18.208 CURVE SMOOTH"
);
}
);
width = 452;
}
);
leftKerningGroup = y;
rightKerningGroup = y;
unicode = 0079;
},
{
glyphname = z;
lastChange = "2018-10-19 19:05:17 +0000";
layers = (
{
anchors = (
{
name = bottom;
position = "{225, -20}";
},
{
name = top;
position = "{225, 542}";
}
);
layerId = UUID1;
paths = (
{
closed = 1;
nodes = (
"46 139 LINE",
"29 117 OFFCURVE",
"23 97 OFFCURVE",
"23 79 CURVE SMOOTH",
"23 60 OFFCURVE",
"28 38 OFFCURVE",
"41 0 CURVE",
"343 0 LINE SMOOTH",
"407 0 OFFCURVE",
"429 29 OFFCURVE",
"429 72 CURVE SMOOTH",
"429 94 OFFCURVE",
"424 109 OFFCURVE",
"412 137 CURVE",
"384 123 OFFCURVE",
"349 120 OFFCURVE",
"321 120 CURVE SMOOTH",
"288 120 LINE SMOOTH",
"263 120 OFFCURVE",
"239 118 OFFCURVE",
"211 114 CURVE",
"208 119 LINE",
"234 145 OFFCURVE",
"261 179 OFFCURVE",
"283 208 CURVE SMOOTH",
"400 363 LINE SMOOTH",
"410 377 OFFCURVE",
"415 396 OFFCURVE",
"415 411 CURVE SMOOTH",
"415 434 OFFCURVE",
"407 461 OFFCURVE",
"394 500 CURVE",
"43 500 LINE",
"38 478 OFFCURVE",
"34 454 OFFCURVE",
"34 429 CURVE SMOOTH",
"34 413 OFFCURVE",
"36 395 OFFCURVE",
"40 379 CURVE",
"113 379 LINE",
"149 379 OFFCURVE",
"198 383 OFFCURVE",
"236 387 CURVE",
"239 382 LINE",
"217 358 OFFCURVE",
"182 320 OFFCURVE",
"158 288 CURVE SMOOTH"
);
}
);
width = 450;
},
{
anchors = (
{
name = bottom;
position = "{224.05, -20}";
},
{
name = top;
position = "{224.05, 542}";
}
);
layerId = "59A137EB-1A44-4616-9625-4B79FA594CBD";
paths = (
{
closed = 1;
nodes = (
"53.6 77.25 LINE",
"44.2 63.8 OFFCURVE",
"41.05 54.25 OFFCURVE",
"41.05 45.75 CURVE SMOOTH",
"41.05 34.35 OFFCURVE",
"44.15 25.65 OFFCURVE",
"53.35 0 CURVE",
"349.65 0 LINE SMOOTH",
"391.8 0 OFFCURVE",
"404.3 13.8 OFFCURVE",
"404.3 37.8 CURVE SMOOTH",
"404.3 49.35 OFFCURVE",
"402.15 62.45 OFFCURVE",
"397.75 73.35 CURVE",
"374.5 64.1 OFFCURVE",
"335.7 61.1 OFFCURVE",
"282.05 61.1 CURVE SMOOTH",
"227.2 61.1 LINE SMOOTH",
"203.15 61.1 OFFCURVE",
"162.05 60.05 OFFCURVE",
"127.4 57.95 CURVE",
"124.4 61.05 LINE",
"147.55 90.85 OFFCURVE",
"180.25 130.55 OFFCURVE",
"203.2 162.4 CURVE SMOOTH",
"387.65 414.3 LINE SMOOTH",
"395.75 425.45 OFFCURVE",
"399.8 434.95 OFFCURVE",
"399.8 443.3 CURVE SMOOTH",
"399.8 453.95 OFFCURVE",
"396.55 465.75 OFFCURVE",
"387.35 490.5 CURVE",
"61.05 490.5 LINE",
"57.95 478 OFFCURVE",
"56.8 462.55 OFFCURVE",
"56.8 455.6 CURVE SMOOTH",
"56.8 450.05 OFFCURVE",
"56.9 438.7 OFFCURVE",
"59 430.3 CURVE",
"179.5 430.3 LINE",
"223.1 430.3 OFFCURVE",
"293 432.4 OFFCURVE",
"316.75 435.45 CURVE",
"319.75 432.35 LINE",
"293.95 399.8 OFFCURVE",
"263.7 364.65 OFFCURVE",
"241.6 334.55 CURVE SMOOTH"
);
}
);
width = 444.3;
},
{
anchors = (
{
name = bottom;
position = "{223.698, -20}";
},
{
name = top;
position = "{223.698, 542}";
}
);
layerId = "9ED2045D-B62B-46E9-A722-9499BEB4CDB9";
paths = (
{
closed = 1;
nodes = (
"56.416 54.374 LINE",
"49.831 44.091 OFFCURVE",
"47.737 38.413 OFFCURVE",
"47.737 33.432 CURVE SMOOTH",
"47.737 24.847 OFFCURVE",
"50.133 21.075 OFFCURVE",
"57.925 0 CURVE",
"352.114 0 LINE SMOOTH",
"386.169 0 OFFCURVE",
"395.149 8.169 OFFCURVE",
"395.149 25.13 CURVE SMOOTH",
"395.149 32.809 OFFCURVE",
"394.055 45.205 OFFCURVE",
"392.471 49.77 CURVE",
"370.981 42.279 OFFCURVE",
"330.773 39.279 OFFCURVE",
"267.62 39.279 CURVE SMOOTH",
"204.676 39.279 LINE SMOOTH",
"180.978 39.279 OFFCURVE",
"133.543 38.581 OFFCURVE",
"96.429 37.185 CURVE",
"93.429 39.581 LINE",
"115.523 70.789 OFFCURVE",
"150.335 112.601 OFFCURVE",
"173.637 145.507 CURVE SMOOTH",
"383.075 433.305 LINE SMOOTH",
"390.471 443.399 OFFCURVE",
"394.169 449.38 OFFCURVE",
"394.169 455.266 CURVE SMOOTH",
"394.169 461.341 OFFCURVE",
"392.679 467.51 OFFCURVE",
"384.886 486.981 CURVE",
"67.737 486.981 LINE",
"65.341 478 OFFCURVE",
"65.247 465.717 OFFCURVE",
"65.247 465.454 CURVE SMOOTH",
"65.247 463.776 OFFCURVE",
"64.643 454.889 OFFCURVE",
"66.039 449.305 CURVE",
"204.136 449.305 LINE",
"250.552 449.305 OFFCURVE",
"328.194 450.701 OFFCURVE",
"346.665 453.399 CURVE",
"349.665 451.003 LINE",
"322.457 415.286 OFFCURVE",
"293.967 381.191 OFFCURVE",
"272.571 351.795 CURVE SMOOTH"
);
}
);
width = 444;
}
);
leftKerningGroup = z;
rightKerningGroup = z;
unicode = 007A;
},
{
glyphname = a.smcp;
lastChange = "2018-10-19 19:05:17 +0000";
layers = (
{
anchors = (
{
name = bottom;
position = "{290, -20}";
},
{
name = top;
position = "{296, 594}";
}
);
layerId = UUID1;
paths = (
{
closed = 1;
nodes = (
"3 14 LINE",
"9 5 LINE",
"27 -3 OFFCURVE",
"58 -7 OFFCURVE",
"86 -7 CURVE SMOOTH",
"112 -7 OFFCURVE",
"136 -5 OFFCURVE",
"156 0 CURVE",
"233 245 LINE SMOOTH",
"250 300 OFFCURVE",
"268 374 OFFCURVE",
"282 426 CURVE",
"288 426 LINE",
"301 372 OFFCURVE",
"316 301 OFFCURVE",
"332 247 CURVE SMOOTH",
"389 59 LINE SMOOTH",
"407 -3 OFFCURVE",
"447 -9 OFFCURVE",
"485 -9 CURVE SMOOTH",
"507 -9 OFFCURVE",
"552 -3 OFFCURVE",
"577 8 CURVE",
"389 552 LINE",
"350 557 OFFCURVE",
"322 558 OFFCURVE",
"296 558 CURVE SMOOTH",
"268 558 OFFCURVE",
"234 557 OFFCURVE",
"197 552 CURVE"
);
},
{
closed = 1;
nodes = (
"350 93 LINE SMOOTH",
"365 93 OFFCURVE",
"373 94 OFFCURVE",
"388 94 CURVE",
"465 94 LINE",
"420 222 LINE",
"351 222 LINE",
"336 222 OFFCURVE",
"329 223 OFFCURVE",
"314 223 CURVE SMOOTH",
"255 223 LINE SMOOTH",
"240 223 OFFCURVE",
"230 222 OFFCURVE",
"216 222 CURVE",
"152 222 LINE",
"101 94 LINE",
"175 94 LINE",
"190 94 OFFCURVE",
"198 93 OFFCURVE",
"213 93 CURVE SMOOTH"
);
}
);
width = 580;
},
{
anchors = (
{
name = bottom;
position = "{263.4, -20}";
},
{
name = top;
position = "{263.7, 594}";
}
);
layerId = "59A137EB-1A44-4616-9625-4B79FA594CBD";
paths = (
{
closed = 1;
nodes = (
"18.2 4.5 LINE",
"20.4 1.2 LINE",
"28.9 -2.05 OFFCURVE",
"41.85 -4.15 OFFCURVE",
"55.6 -4.15 CURVE SMOOTH",
"66.4 -4.15 OFFCURVE",
"79 -3.1 OFFCURVE",
"88.55 -0.95 CURVE",
"219.7 357.1 LINE SMOOTH",
"229.1 382.65 OFFCURVE",
"246.15 434.8 OFFCURVE",
"257.3 474.45 CURVE",
"261.4 474.45 LINE",
"274.4 432.8 OFFCURVE",
"297 366.55 OFFCURVE",
"311.1 327.75 CURVE SMOOTH",
"419.4 32.4 LINE SMOOTH",
"430.75 1.75 OFFCURVE",
"440.35 -6.15 OFFCURVE",
"464.1 -6.15 CURVE SMOOTH",
"481.35 -6.15 OFFCURVE",
"496.9 -3 OFFCURVE",
"508.6 3.25 CURVE",
"306.35 542.5 LINE",
"298.7 544.65 OFFCURVE",
"276.4 546.6 OFFCURVE",
"264.65 546.6 CURVE SMOOTH",
"251.85 546.6 OFFCURVE",
"228.3 544.65 OFFCURVE",
"219.8 542.5 CURVE"
);
},
{
closed = 1;
nodes = (
"321.5 134.8 LINE SMOOTH",
"327.95 134.8 OFFCURVE",
"378.7 135.8 OFFCURVE",
"385.15 135.8 CURVE",
"416.55 135.8 LINE",
"392.45 198.25 LINE",
"364.3 198.25 LINE",
"356.9 198.25 OFFCURVE",
"317.6 199.25 OFFCURVE",
"311.15 199.25 CURVE SMOOTH",
"215.1 199.25 LINE SMOOTH",
"208.65 199.25 OFFCURVE",
"163.5 198.25 OFFCURVE",
"156.15 198.25 CURVE",
"129.2 198.25 LINE",
"103.85 135.8 LINE",
"134.15 135.8 LINE",
"141.55 135.8 OFFCURVE",
"197.05 134.8 OFFCURVE",
"203.5 134.8 CURVE SMOOTH"
);
}
);
width = 526.8;
},
{
anchors = (
{
name = bottom;
position = "{253.546, -20}";
},
{
name = top;
position = "{251.734, 594}";
}
);
layerId = "9ED2045D-B62B-46E9-A722-9499BEB4CDB9";
paths = (
{
closed = 1;
nodes = (
"23.831 0.981 LINE",
"24.623 -0.208 LINE",
"29.604 -1.698 OFFCURVE",
"35.867 -3.094 OFFCURVE",
"44.338 -3.094 CURVE SMOOTH",
"49.507 -3.094 OFFCURVE",
"57.883 -2.396 OFFCURVE",
"63.562 -1.302 CURVE",
"214.773 398.629 LINE SMOOTH",
"221.357 413.269 OFFCURVE",
"238.055 457.324 OFFCURVE",
"248.149 492.399 CURVE",
"251.546 492.399 LINE",
"264.546 455.324 OFFCURVE",
"289.961 390.834 OFFCURVE",
"303.357 357.665 CURVE SMOOTH",
"430.662 22.546 LINE SMOOTH",
"439.549 3.51 OFFCURVE",
"437.886 -5.094 OFFCURVE",
"456.357 -5.094 CURVE SMOOTH",
"471.848 -5.094 OFFCURVE",
"476.487 -3 OFFCURVE",
"483.26 1.49 CURVE",
"275.731 538.981 LINE",
"279.695 540.075 OFFCURVE",
"259.507 542.377 OFFCURVE",
"253.036 542.377 CURVE SMOOTH",
"245.867 542.377 OFFCURVE",
"226.188 540.075 OFFCURVE",
"228.247 538.981 CURVE"
);
},
{
closed = 1;
nodes = (
"310.942 150.286 LINE SMOOTH",
"314.224 150.286 OFFCURVE",
"380.812 151.286 OFFCURVE",
"384.094 151.286 CURVE",
"398.601 151.286 LINE",
"382.244 189.451 LINE",
"369.227 189.451 LINE",
"364.643 189.451 OFFCURVE",
"313.377 190.451 OFFCURVE",
"310.094 190.451 CURVE SMOOTH",
"200.318 190.451 LINE SMOOTH",
"197.036 190.451 OFFCURVE",
"138.864 189.451 OFFCURVE",
"133.977 189.451 CURVE",
"120.753 189.451 LINE",
"104.906 151.286 LINE",
"119.016 151.286 LINE",
"123.601 151.286 OFFCURVE",
"196.698 150.286 OFFCURVE",
"199.981 150.286 CURVE SMOOTH"
);
}
);
width = 527;
}
);
leftKerningGroup = a.smcp;
rightKerningGroup = a.smcp;
},
{
glyphname = b.smcp;
lastChange = "2018-10-19 19:05:17 +0000";
layers = (
{
anchors = (
{
name = bottom;
position = "{275, -20}";
},
{
name = top;
position = "{269, 594}";
}
);
layerId = UUID1;
paths = (
{
closed = 1;
nodes = (
"70 547 LINE",
"70 4 LINE",
"76 -1 LINE",
"158 -3 OFFCURVE",
"234 -4 OFFCURVE",
"302 -4 CURVE SMOOTH",
"434 -4 OFFCURVE",
"535 30 OFFCURVE",
"535 162 CURVE SMOOTH",
"535 234 OFFCURVE",
"473 305 OFFCURVE",
"398 305 CURVE",
"398 292 LINE",
"463 292 OFFCURVE",
"506 352 OFFCURVE",
"506 410 CURVE SMOOTH",
"506 520 OFFCURVE",
"411 557 OFFCURVE",
"289 557 CURVE SMOOTH",
"223 557 OFFCURVE",
"127 555 OFFCURVE",
"76 553 CURVE"
);
},
{
closed = 1;
nodes = (
"230 446 LINE",
"248 445 OFFCURVE",
"270 445 OFFCURVE",
"281 445 CURVE SMOOTH",
"330 445 OFFCURVE",
"345 420 OFFCURVE",
"345 395 CURVE SMOOTH",
"345 369 OFFCURVE",
"330 344 OFFCURVE",
"280 344 CURVE SMOOTH",
"163 344 LINE",
"163 232 LINE",
"291 232 LINE SMOOTH",
"350 232 OFFCURVE",
"369 200 OFFCURVE",
"369 169 CURVE SMOOTH",
"369 141 OFFCURVE",
"355 109 OFFCURVE",
"299 109 CURVE SMOOTH",
"280 109 OFFCURVE",
"255 109 OFFCURVE",
"230 108 CURVE"
);
}
);
width = 567;
},
{
anchors = (
{
name = bottom;
position = "{262.65, -20}";
},
{
name = top;
position = "{253.8, 594}";
}
);
layerId = "59A137EB-1A44-4616-9625-4B79FA594CBD";
paths = (
{
closed = 1;
nodes = (
"90.9 537.5 LINE",
"90.9 4.95 LINE",
"95.95 -0.05 LINE",
"160.85 -1.1 OFFCURVE",
"204.55 -3.05 OFFCURVE",
"279.2 -3.05 CURVE SMOOTH",
"433.05 -3.05 OFFCURVE",
"489.4 68 OFFCURVE",
"489.4 151.55 CURVE SMOOTH",
"489.4 234 OFFCURVE",
"413.15 295.5 OFFCURVE",
"338.15 295.5 CURVE",
"338.15 284.4 LINE",
"411.7 290.1 OFFCURVE",
"459.45 342.5 OFFCURVE",
"459.45 403.35 CURVE SMOOTH",
"459.45 490.55 OFFCURVE",
"404.35 545.6 OFFCURVE",
"268.1 545.6 CURVE SMOOTH",
"210.65 545.6 OFFCURVE",
"158.35 543.6 OFFCURVE",
"95.95 542.55 CURVE"
);
},
{
closed = 1;
nodes = (
"166.35 485.9 LINE",
"197.65 484.9 OFFCURVE",
"240.55 484.9 OFFCURVE",
"268.65 484.9 CURVE SMOOTH",
"362.3 484.9 OFFCURVE",
"382.05 442.8 OFFCURVE",
"382.05 401.65 CURVE SMOOTH",
"382.05 362.35 OFFCURVE",
"361.35 317.4 OFFCURVE",
"266.7 317.4 CURVE SMOOTH",
"135.45 317.4 LINE",
"135.45 255.75 LINE",
"274.85 255.75 LINE SMOOTH",
"381.35 255.75 OFFCURVE",
"410.8 197.15 OFFCURVE",
"410.8 155.7 CURVE SMOOTH",
"410.8 114.4 OFFCURVE",
"390.15 57.7 OFFCURVE",
"283.8 57.7 CURVE SMOOTH",
"242.95 57.7 OFFCURVE",
"207.5 56.75 OFFCURVE",
"166.35 56.7 CURVE"
);
}
);
width = 539.45;
},
{
anchors = (
{
name = bottom;
position = "{259, -20}";
},
{
name = top;
position = "{249, 594}";
}
);
layerId = "9ED2045D-B62B-46E9-A722-9499BEB4CDB9";
paths = (
{
closed = 1;
nodes = (
"100 534 LINE",
"100 5 LINE",
"104 0 LINE",
"163 0 OFFCURVE",
"195 -3 OFFCURVE",
"272 -3 CURVE SMOOTH",
"434 -3 OFFCURVE",
"474 82 OFFCURVE",
"474 148 CURVE SMOOTH",
"474 234 OFFCURVE",
"392 292 OFFCURVE",
"317 292 CURVE",
"317 282 LINE",
"394 289 OFFCURVE",
"443 339 OFFCURVE",
"443 401 CURVE SMOOTH",
"443 480 OFFCURVE",
"403 541 OFFCURVE",
"261 541 CURVE SMOOTH",
"207 541 OFFCURVE",
"171 539 OFFCURVE",
"104 539 CURVE"
);
},
{
closed = 1;
nodes = (
"144 501 LINE",
"180 500 OFFCURVE",
"231 500 OFFCURVE",
"265 500 CURVE SMOOTH",
"375 500 OFFCURVE",
"397 451 OFFCURVE",
"397 404 CURVE SMOOTH",
"397 360 OFFCURVE",
"374 308 OFFCURVE",
"263 308 CURVE SMOOTH",
"126 308 LINE",
"126 265 LINE",
"270 265 LINE SMOOTH",
"394 265 OFFCURVE",
"427 196 OFFCURVE",
"427 151 CURVE SMOOTH",
"427 105 OFFCURVE",
"404 39 OFFCURVE",
"279 39 CURVE SMOOTH",
"230 39 OFFCURVE",
"191 37 OFFCURVE",
"144 38 CURVE"
);
}
);
width = 539;
}
);
leftKerningGroup = b.smcp;
},
{
glyphname = c.smcp;
lastChange = "2018-10-19 19:05:17 +0000";
layers = (
{
anchors = (
{
name = bottom;
position = "{288, -20}";
},
{
name = top;
position = "{298, 594}";
}
);
layerId = UUID1;
paths = (
{
closed = 1;
nodes = (
"392 295 OFFCURVE",
"411 293 OFFCURVE",
"427 293 CURVE SMOOTH",
"493 293 OFFCURVE",
"528 320 OFFCURVE",
"528 382 CURVE SMOOTH",
"528 472 OFFCURVE",
"455 567 OFFCURVE",
"298 567 CURVE SMOOTH",
"158 567 OFFCURVE",
"30 479 OFFCURVE",
"30 273 CURVE SMOOTH",
"30 137 OFFCURVE",
"87 -15 OFFCURVE",
"282 -15 CURVE SMOOTH",
"384 -15 OFFCURVE",
"464 23 OFFCURVE",
"520 71 CURVE",
"513 105 OFFCURVE",
"479 158 OFFCURVE",
"446 175 CURVE",
"408 147 OFFCURVE",
"356 121 OFFCURVE",
"307 121 CURVE SMOOTH",
"254 121 OFFCURVE",
"199 148 OFFCURVE",
"199 272 CURVE SMOOTH",
"199 379 OFFCURVE",
"224 438 OFFCURVE",
"292 438 CURVE SMOOTH",
"358 438 OFFCURVE",
"373 383 OFFCURVE",
"373 297 CURVE"
);
}
);
width = 548;
},
{
anchors = (
{
name = bottom;
position = "{276.6, -20}";
},
{
name = top;
position = "{284.7, 594}";
}
);
layerId = "59A137EB-1A44-4616-9625-4B79FA594CBD";
paths = (
{
closed = 1;
nodes = (
"430.95 345.35 OFFCURVE",
"439.5 343.35 OFFCURVE",
"451.7 343.35 CURVE SMOOTH",
"486.35 343.35 OFFCURVE",
"492.85 365.6 OFFCURVE",
"492.85 388.65 CURVE SMOOTH",
"492.85 463.45 OFFCURVE",
"428.4 554.65 OFFCURVE",
"284.7 554.65 CURVE SMOOTH",
"157.05 554.65 OFFCURVE",
"45.2 469.5 OFFCURVE",
"45.2 270.15 CURVE SMOOTH",
"45.2 126.55 OFFCURVE",
"107.9 -12.15 OFFCURVE",
"273.45 -12.15 CURVE SMOOTH",
"363.1 -12.15 OFFCURVE",
"438.35 23 OFFCURVE",
"486.75 67.2 CURVE",
"481.65 84.1 OFFCURVE",
"464.75 105.75 OFFCURVE",
"446.95 117.05 CURVE",
"390.9 74.8 OFFCURVE",
"337 53.55 OFFCURVE",
"284.2 53.55 CURVE SMOOTH",
"186.55 53.55 OFFCURVE",
"124.9 131.85 OFFCURVE",
"124.9 270.1 CURVE SMOOTH",
"124.9 417 OFFCURVE",
"182.2 492.15 OFFCURVE",
"283.45 492.15 CURVE SMOOTH",
"388.4 492.15 OFFCURVE",
"418.6 418.15 OFFCURVE",
"419.55 348.3 CURVE"
);
}
);
width = 530.9;
},
{
anchors = (
{
name = bottom;
position = "{272.377, -20}";
},
{
name = top;
position = "{279.773, 594}";
}
);
layerId = "9ED2045D-B62B-46E9-A722-9499BEB4CDB9";
paths = (
{
closed = 1;
nodes = (
"445.38 364.003 OFFCURVE",
"450.058 362.003 OFFCURVE",
"460.851 362.003 CURVE SMOOTH",
"483.886 362.003 OFFCURVE",
"479.828 382.493 OFFCURVE",
"479.828 391.114 CURVE SMOOTH",
"479.828 460.283 OFFCURVE",
"418.546 550.075 OFFCURVE",
"279.773 550.075 CURVE SMOOTH",
"156.698 550.075 OFFCURVE",
"50.831 465.981 OFFCURVE",
"50.831 269.094 CURVE SMOOTH",
"50.831 122.679 OFFCURVE",
"115.643 -11.094 OFFCURVE",
"270.282 -11.094 CURVE SMOOTH",
"355.357 -11.094 OFFCURVE",
"428.848 23 OFFCURVE",
"474.432 65.792 CURVE",
"470.036 76.357 OFFCURVE",
"459.471 86.393 OFFCURVE",
"447.302 95.581 CURVE",
"384.565 48.052 OFFCURVE",
"329.961 28.562 OFFCURVE",
"275.753 28.562 CURVE SMOOTH",
"161.562 28.562 OFFCURVE",
"97.448 125.867 OFFCURVE",
"97.448 269.396 CURVE SMOOTH",
"97.448 431.078 OFFCURVE",
"166.714 512.211 OFFCURVE",
"280.283 512.211 CURVE SMOOTH",
"399.662 512.211 OFFCURVE",
"435.493 431.172 OFFCURVE",
"436.795 367.305 CURVE"
);
}
);
width = 531;
}
);
leftKerningGroup = c.smcp;
},
{
glyphname = d.smcp;
lastChange = "2018-10-19 19:05:17 +0000";
layers = (
{
anchors = (
{
name = bottom;
position = "{297, -20}";
},
{
name = top;
position = "{294, 594}";
}
);
layerId = UUID1;
paths = (
{
closed = 1;
nodes = (
"579 368 OFFCURVE",
"563 456 OFFCURVE",
"475 515 CURVE SMOOTH",
"433 544 OFFCURVE",
"357 557 OFFCURVE",
"305 557 CURVE",
"225 557 OFFCURVE",
"155 555 OFFCURVE",
"76 553 CURVE",
"70 547 LINE",
"70 5 LINE",
"76 -1 LINE",
"155 -3 OFFCURVE",
"225 -4 OFFCURVE",
"305 -4 CURVE",
"357 -4 OFFCURVE",
"433 7 OFFCURVE",
"475 35 CURVE SMOOTH",
"564 95 OFFCURVE",
"579 182 OFFCURVE",
"579 275 CURVE SMOOTH"
);
},
{
closed = 1;
nodes = (
"411 206 OFFCURVE",
"397 122 OFFCURVE",
"305 122 CURVE SMOOTH",
"277 122 OFFCURVE",
"262 121 OFFCURVE",
"234 121 CURVE",
"234 431 LINE",
"261 430 OFFCURVE",
"277 430 OFFCURVE",
"305 430 CURVE SMOOTH",
"397 430 OFFCURVE",
"411 345 OFFCURVE",
"411 275 CURVE"
);
}
);
width = 610;
},
{
anchors = (
{
name = bottom;
position = "{278, -20}";
},
{
name = top;
position = "{270.25, 594}";
}
);
layerId = "59A137EB-1A44-4616-9625-4B79FA594CBD";
paths = (
{
closed = 1;
nodes = (
"522.95 363.25 OFFCURVE",
"508.85 445.55 OFFCURVE",
"430.35 504.55 CURVE SMOOTH",
"392.15 533.55 OFFCURVE",
"320.9 545.6 OFFCURVE",
"273.65 545.6 CURVE",
"202.2 545.6 OFFCURVE",
"172.1 544.55 OFFCURVE",
"95.95 542.55 CURVE",
"90.9 537.5 LINE",
"90.9 5 LINE",
"95.95 -0.05 LINE",
"171.15 -2.05 OFFCURVE",
"202.2 -3.05 OFFCURVE",
"273.65 -3.05 CURVE",
"320.9 -3.05 OFFCURVE",
"392.15 7.95 OFFCURVE",
"430.35 36.9 CURVE SMOOTH",
"509.85 95.95 OFFCURVE",
"522.95 177.25 OFFCURVE",
"522.95 270.25 CURVE SMOOTH"
);
},
{
closed = 1;
nodes = (
"443.3 171.8 OFFCURVE",
"419.8 58.35 OFFCURVE",
"272.7 58.35 CURVE SMOOTH",
"232.35 58.35 OFFCURVE",
"202.15 57.35 OFFCURVE",
"166.55 57.35 CURVE",
"166.55 484.2 LINE",
"202.1 484.15 OFFCURVE",
"232.35 483.2 OFFCURVE",
"272.7 483.2 CURVE SMOOTH",
"419.8 483.2 OFFCURVE",
"443.3 369.7 OFFCURVE",
"443.3 270.25 CURVE"
);
}
);
width = 571.05;
},
{
anchors = (
{
name = bottom;
position = "{273, -20}";
},
{
name = top;
position = "{263, 594}";
}
);
layerId = "9ED2045D-B62B-46E9-A722-9499BEB4CDB9";
paths = (
{
closed = 1;
nodes = (
"504 361 OFFCURVE",
"491 442 OFFCURVE",
"416 501 CURVE SMOOTH",
"379 530 OFFCURVE",
"310 541 OFFCURVE",
"264 541 CURVE",
"196 541 OFFCURVE",
"180 541 OFFCURVE",
"105 539 CURVE",
"101 534 LINE",
"101 5 LINE",
"105 0 LINE",
"179 -2 OFFCURVE",
"196 -3 OFFCURVE",
"264 -3 CURVE",
"310 -3 OFFCURVE",
"379 8 OFFCURVE",
"416 38 CURVE SMOOTH",
"492 96 OFFCURVE",
"504 175 OFFCURVE",
"504 268 CURVE SMOOTH"
);
},
{
closed = 1;
nodes = (
"457 159 OFFCURVE",
"430 35 OFFCURVE",
"263 35 CURVE SMOOTH",
"218 35 OFFCURVE",
"182 34 OFFCURVE",
"144 34 CURVE",
"144 504 LINE",
"182 504 OFFCURVE",
"218 503 OFFCURVE",
"263 503 CURVE SMOOTH",
"430 503 OFFCURVE",
"457 379 OFFCURVE",
"457 268 CURVE"
);
}
);
width = 571;
}
);
leftKerningGroup = b.smcp;
rightKerningGroup = d.smcp;
},
